<svg width="1920" height="3024" viewBox="0 0 1920 3024" fill="none" xmlns="http://www.w3.org/2000/svg">
<path d="M1941.27 3023C1982.98 2766.03 1877.88 2270.03 1579.92 2146.28C1363.95 2056.57 1117.66 2033.83 880.959 1996.93C614.791 1955.43 341.276 1909.53 106.805 1798.33C-179.864 1662.37 -319.249 1440.71 -399.792 1196.09C-462.593 1005.4 -498.553 807.478 -613.648 629.775C-783.681 367.208 -1098.11 151.955 -1455.63 54.6501C-1580.16 20.7496 -1736.95 -4.76737 -1869.82 3.60208" stroke="url(#paint0_linear_92_5434)" stroke-width="3.1732" stroke-miterlimit="10"/>
<path d="M1955.4 2989.56C1967.86 2869.49 1947.62 2697.77 1888.72 2539.93C1823.65 2365.53 1713.9 2206.71 1550.82 2146.27C1392.89 2087.74 1220.41 2060.47 1045.99 2037.35C972.98 2027.63 899.519 2018.54 826.845 2008.07C680.276 1986.92 531.383 1963.76 388.498 1929.59C261.748 1899.24 139.272 1860.57 25.8392 1807.65C-74.5131 1760.85 -157.49 1704.21 -226.578 1640.23C-360.539 1516.16 -442.078 1364.38 -499.464 1203.62C-507.994 1179.79 -516.13 1155.87 -524.089 1131.9C-579.86 964.503 -626.845 795.657 -735.176 643.043C-864.408 461.149 -1066.67 303.913 -1304.73 195.177C-1404.03 149.749 -1509.78 112.677 -1619.14 85.7076C-1655.01 76.8869 -1693.37 68.7003 -1732.99 61.6974C-1836.29 43.4361 -1948.5 33.1782 -2047.66 40.4771" stroke="url(#paint1_linear_92_5434)" stroke-width="3.1732" stroke-miterlimit="10"/>
<path d="M1970.5 2956.01C1974.91 2837.97 1948.21 2670.59 1883.58 2519.3C1812.2 2352.23 1699.6 2202.08 1535.26 2146.17C1376.89 2092.31 1204.91 2067.75 1030.23 2046.58C957.26 2037.65 883.601 2029.17 810.612 2019.11C663.551 1998.8 513.988 1975.73 371.438 1940.97C244.747 1910.02 122.645 1870.51 9.72451 1816.86C-90.0565 1769.53 -172.718 1712.44 -241.649 1648.07C-375.274 1523.33 -456.853 1371.17 -516.623 1211.04C-525.527 1187.27 -534.097 1163.43 -542.528 1139.58C-601.806 972.802 -654.248 806.013 -766.735 656.245C-901.09 477.676 -1107.11 324.879 -1347.2 220.736C-1447.24 177.225 -1553.62 141.985 -1663.33 116.72C-1699.38 108.463 -1737.79 100.855 -1777.39 94.4011C-1880.72 77.5911 -1992.81 68.7423 -2091.74 77.2811" stroke="url(#paint2_linear_92_5434)" stroke-width="3.1732" stroke-miterlimit="10"/>
<path d="M1985.6 2922.45C1981.96 2806.44 1948.86 2643.44 1878.48 2498.66C1800.82 2338.94 1685.41 2197.43 1519.76 2146.07C1361.01 2096.86 1189.48 2075.02 1014.55 2055.82C941.618 2047.69 867.743 2039.8 794.458 2030.17C646.924 2010.72 496.671 1987.74 354.456 1952.39C227.844 1920.81 106.117 1880.47 -6.29192 1826.12C-105.502 1778.24 -187.848 1720.7 -256.621 1655.98C-389.932 1530.55 -471.529 1378.03 -533.683 1218.51C-542.962 1194.81 -551.945 1171.06 -560.889 1147.31C-623.654 981.158 -681.572 816.44 -798.216 669.49C-937.693 494.247 -1147.5 345.888 -1389.61 246.353C-1490.38 204.744 -1597.37 171.335 -1707.45 147.776C-1743.66 140.083 -1782.16 133.051 -1821.75 127.148C-1925.08 111.789 -2037.06 104.349 -2135.77 114.128" stroke="url(#paint3_linear_92_5434)" stroke-width="3.1732" stroke-miterlimit="10"/>
<path d="M2000.7 2888.9C1989.01 2774.92 1949.51 2616.32 1873.35 2478.05C1789.45 2325.73 1671.25 2192.81 1504.21 2145.99C1345.14 2101.41 1174.02 2082.3 998.827 2065.08C925.937 2057.76 851.864 2050.44 778.284 2041.24C630.258 2022.64 479.355 1999.76 337.435 1963.8C210.882 1931.6 89.5292 1890.43 -22.3476 1835.37C-120.986 1786.95 -202.997 1728.94 -271.633 1663.86C-404.608 1537.75 -486.246 1384.85 -550.783 1225.97C-560.436 1202.34 -569.853 1178.66 -579.269 1155.02C-645.54 989.485 -708.916 826.825 -829.736 682.707C-974.335 510.803 -1187.92 366.869 -1432.05 271.927C-1533.54 232.235 -1641.16 200.658 -1751.58 178.803C-1787.97 171.674 -1826.5 165.206 -1866.12 159.866C-1969.49 145.958 -2081.34 139.942 -2179.84 150.961" stroke="url(#paint4_linear_92_5434)" stroke-width="3.1732" stroke-miterlimit="10"/>
<path d="M2015.81 2855.35C1996.07 2743.4 1950.2 2589.23 1868.23 2457.42C1778.12 2312.51 1657.15 2188.16 1488.69 2145.91C1329.34 2105.94 1158.56 2089.59 983.126 2074.34C910.275 2067.8 835.986 2061.09 762.11 2052.32C613.591 2034.58 462.019 2011.78 320.434 1975.23C193.94 1942.41 72.9816 1900.39 -38.383 1844.64C-136.43 1795.69 -218.147 1737.21 -286.604 1671.76C-419.245 1544.97 -500.922 1391.7 -567.843 1233.45C-577.87 1209.87 -587.72 1186.3 -597.61 1162.77C-667.388 997.855 -736.22 837.252 -861.197 695.966C-1010.92 527.388 -1228.27 387.878 -1474.42 297.558C-1576.65 259.767 -1684.88 230.022 -1795.67 209.873C-1832.21 203.321 -1870.83 197.417 -1910.42 192.64C-2013.81 180.198 -2125.55 175.577 -2223.81 187.835" stroke="url(#paint5_linear_92_5434)" stroke-width="3.1732" stroke-miterlimit="10"/>
<path d="M2030.89 2821.8C2003.12 2711.88 1950.93 2562.18 1863.11 2436.79C1766.83 2299.34 1643.1 2183.48 1473.15 2145.81C1313.56 2110.44 1143.05 2097.14 967.385 2083.57C894.554 2077.95 820.087 2071.7 745.897 2063.35C596.905 2046.47 444.643 2023.76 303.393 1986.61C176.958 1953.19 56.3742 1910.33 -54.4586 1853.87C-151.935 1804.38 -233.336 1745.44 -301.636 1679.64C-433.961 1552.17 -515.658 1398.52 -584.963 1240.9C-595.384 1217.4 -605.648 1193.9 -616.03 1170.48C-689.314 1006.18 -763.603 847.636 -892.737 709.183C-1047.58 543.93 -1268.71 408.859 -1516.9 323.132C-1619.85 287.258 -1728.71 259.344 -1839.86 240.9C-1876.56 234.912 -1915.25 229.585 -1954.85 225.358C-2058.25 214.368 -2169.87 211.155 -2267.92 224.654" stroke="url(#paint6_linear_92_5434)" stroke-width="3.1732" stroke-miterlimit="10"/>
<path d="M2045.99 2788.23C2010.15 2680.34 1951.7 2535.14 1857.97 2416.16C1755.59 2286.19 1629.07 2178.79 1457.6 2145.72C1297.84 2114.92 1127.59 2104.45 951.666 2092.83C878.874 2088.02 804.191 2082.36 729.705 2074.42C580.22 2058.39 427.288 2035.77 286.373 1998.03C159.997 1963.98 39.8072 1920.29 -70.5134 1863.11C-167.418 1813.07 -248.504 1753.68 -316.646 1687.51C-448.637 1559.38 -530.373 1405.34 -602.081 1248.36C-612.877 1224.92 -623.574 1201.5 -634.429 1178.19C-711.2 1014.51 -790.966 858.021 -924.257 722.4C-1084.2 560.472 -1309.12 429.839 -1559.33 348.72C-1663.01 314.762 -1772.44 288.512 -1884.01 271.941C-1920.87 266.46 -1959.62 261.768 -1999.21 258.09C-2102.64 248.551 -2214.14 246.748 -2311.97 261.486" stroke="url(#paint7_linear_92_5434)" stroke-width="3.1732" stroke-miterlimit="10"/>
<path d="M2061.1 2754.68C2017.2 2648.81 1952.55 2508.14 1852.87 2395.53C1744.46 2273.07 1615.14 2174.06 1442.08 2145.62C1282.17 2119.36 1112.14 2111.75 935.964 2102.07C863.212 2098.07 788.312 2093 713.53 2085.49C563.573 2070.31 409.972 2047.78 269.372 2009.44C143.055 1974.78 23.239 1930.24 -86.5497 1872.37C-182.883 1821.8 -263.654 1761.95 -331.639 1695.4C-463.294 1566.59 -545.069 1412.19 -619.162 1255.82C-630.331 1232.45 -641.462 1209.13 -652.789 1185.92C-733.067 1022.87 -818.29 868.448 -955.738 735.645C-1120.8 577.043 -1349.74 451.229 -1601.74 374.323C-1706.25 342.436 -1816.22 317.834 -1928.11 302.983C-1965.13 298.065 -2003.96 293.937 -2043.56 290.823C-2147 282.749 -2258.39 282.34 -2356 298.319" stroke="url(#paint8_linear_92_5434)" stroke-width="3.1732" stroke-miterlimit="10"/>
<path d="M2076.19 2721.14C2024.26 2617.29 1953.45 2481.16 1847.72 2374.92C1733.36 2259.98 1601.2 2169.32 1426.54 2145.55C1266.53 2123.78 1096.68 2119.08 920.243 2111.34C847.53 2108.16 772.433 2103.65 697.336 2096.57C546.887 2082.24 392.615 2059.81 252.331 2020.88C126.073 1985.6 6.65081 1940.23 -102.626 1881.64C-198.368 1830.53 -278.823 1770.23 -346.67 1703.32C-477.991 1573.82 -559.806 1419.05 -636.281 1263.32C-647.826 1240.01 -659.39 1216.76 -671.19 1193.67C-754.975 1031.24 -845.654 878.875 -987.258 748.904C-1157.45 593.627 -1390.15 472.294 -1644.18 399.954C-1749.42 369.983 -1859.99 347.199 -1972.26 334.066C-2009.46 329.712 -2048.35 326.162 -2087.92 323.597C-2191.39 316.975 -2302.65 317.975 -2400.03 335.208" stroke="url(#paint9_linear_92_5434)" stroke-width="3.1732" stroke-miterlimit="10"/>
<path d="M2091.3 2687.59C2031.31 2585.77 1954.46 2454.21 1842.62 2354.29C1722.39 2246.89 1587.35 2164.52 1411.01 2145.45C1250.93 2128.15 1081.23 2126.38 904.523 2120.58C831.849 2118.2 756.536 2114.29 681.163 2107.62C530.221 2094.15 375.28 2071.8 235.33 2032.27C109.132 1996.38 -9.91605 1950.16 -118.661 1890.87C-213.832 1839.21 -293.972 1778.45 -361.642 1711.19C-492.647 1581 -574.482 1425.85 -653.341 1270.75C-665.26 1247.51 -677.257 1224.35 -689.55 1201.36C-776.841 1039.55 -872.977 889.245 -1018.74 762.121C-1194.07 610.169 -1430.55 493.289 -1686.59 425.528C-1792.56 397.487 -1903.77 376.507 -2016.39 365.079C-2053.74 361.289 -2092.69 358.316 -2132.29 356.315C-2235.77 351.144 -2346.92 353.553 -2444.08 372.026" stroke="url(#paint10_linear_92_5434)" stroke-width="3.1732" stroke-miterlimit="10"/>
<path d="M2106.39 2654.02C2038.36 2554.23 1955.54 2427.22 1837.5 2333.65C1711.52 2233.77 1573.48 2159.67 1395.49 2145.36C1235.37 2132.48 1065.79 2133.66 888.821 2129.81C816.187 2128.24 740.677 2124.9 664.989 2118.67C513.574 2106.06 357.943 2083.79 218.329 2043.66C92.2088 2007.16 -26.4646 1960.09 -134.697 1900.1C-229.297 1847.91 -309.122 1786.68 -376.634 1719.05C-507.305 1588.19 -589.178 1432.66 -670.422 1278.19C-682.734 1255.01 -695.145 1231.94 -707.911 1209.06C-798.689 1047.85 -900.302 899.616 -1050.24 775.324C-1230.67 626.697 -1470.92 514.284 -1729.01 451.102C-1835.7 424.978 -1947.54 405.801 -2060.5 396.107C-2098.01 392.88 -2137.04 390.485 -2176.61 389.033C-2280.12 385.327 -2391.15 389.132 -2488.09 408.844" stroke="url(#paint11_linear_92_5434)" stroke-width="3.1732" stroke-miterlimit="10"/>
<path d="M2121.48 2620.47C2045.39 2522.71 1956.7 2400.25 1832.36 2313.03C1700.7 2220.68 1559.63 2154.81 1379.93 2145.27C1219.78 2136.77 1050.3 2140.96 873.081 2139.07C800.486 2138.3 724.759 2135.55 648.776 2129.74C496.868 2117.98 340.588 2095.81 201.288 2055.09C75.2273 2017.96 -43.0717 1970.07 -150.772 1909.37C-244.801 1856.64 -324.31 1794.95 -391.665 1726.97C-522.001 1595.43 -603.934 1439.54 -687.541 1285.68C-700.228 1262.57 -713.053 1239.59 -726.311 1216.81C-820.595 1056.22 -927.665 910.043 -1081.76 788.583C-1267.31 643.282 -1511.32 535.335 -1771.44 476.718C-1878.86 452.511 -1991.33 435.165 -2104.65 427.162C-2142.33 424.499 -2181.42 422.681 -2221 421.78C-2324.52 419.525 -2435.43 424.739 -2532.16 445.691" stroke="url(#paint12_linear_92_5434)" stroke-width="3.1732" stroke-miterlimit="10"/>
<path d="M2136.59 2586.92C2052.47 2491.19 1957.99 2373.27 1827.26 2292.4C1690.04 2207.54 1545.84 2149.89 1364.42 2145.19C1204.28 2141.03 1034.88 2147.36 857.4 2148.33C784.844 2148.72 708.901 2146.2 632.622 2140.82C480.242 2129.91 323.271 2107.83 184.287 2066.51C58.2851 2028.76 -59.6199 1980.03 -166.808 1918.61C-260.265 1865.35 -339.46 1803.21 -406.657 1734.84C-536.677 1602.63 -618.63 1446.36 -704.621 1293.14C-717.682 1270.1 -730.94 1247.19 -744.691 1224.53C-842.482 1064.56 -955.009 920.442 -1113.26 801.814C-1303.94 659.838 -1551.73 556.344 -1813.87 502.307C-1922.01 480.016 -2035.13 464.488 -2148.8 458.204C-2186.64 456.118 -2225.8 454.85 -2265.38 454.512C-2368.92 453.709 -2479.72 460.345 -2576.21 482.524" stroke="url(#paint13_linear_92_5434)" stroke-width="3.1732" stroke-miterlimit="10"/>
<path d="M2151.68 2553.37C2059.5 2459.67 1959.34 2346.23 1822.11 2271.79C1679.43 2194.38 1531.64 2136.7 1348.86 2145.1C1189.03 2152.44 1019.39 2155.54 841.64 2157.59C769.124 2158.42 692.983 2156.84 616.389 2151.88C463.516 2141.82 305.876 2119.84 167.227 2077.92C41.2842 2039.56 -76.2468 1989.98 -182.903 1927.87C-275.769 1874.06 -354.648 1811.47 -421.688 1742.73C-551.374 1609.85 -633.365 1453.19 -721.74 1300.6C-735.175 1277.62 -748.867 1254.81 -763.09 1232.25C-864.388 1072.9 -982.372 930.855 -1144.78 815.045C-1340.56 676.395 -1592.11 577.353 -1856.31 527.909C-1965.17 507.534 -2078.9 493.824 -2192.94 489.245C-2230.96 487.723 -2270.17 487.033 -2309.75 487.244C-2413.31 487.906 -2524 495.938 -2620.26 519.37" stroke="url(#paint14_linear_92_5434)" stroke-width="3.1732" stroke-miterlimit="10"/>
<path d="M2166.77 2519.81C2066.55 2428.12 1960.76 2319.15 1816.99 2251.15C1668.93 2181.13 1518.22 2139.92 1333.31 2145C1173.15 2149.41 1003.93 2162.83 825.919 2166.83C753.442 2168.46 677.084 2167.48 600.215 2162.94C446.849 2153.74 288.54 2131.84 150.225 2089.33C24.3415 2050.36 -92.7952 1999.94 -198.939 1937.11C-291.234 1882.77 -369.798 1819.71 -436.68 1750.62C-566.031 1617.05 -648.062 1460.02 -738.84 1308.07C-752.65 1285.16 -766.775 1262.43 -781.471 1239.99C-886.276 1081.26 -1009.72 941.268 -1176.28 828.29C-1377.18 692.979 -1632.5 598.362 -1898.74 553.526C-2008.33 535.067 -2122.69 523.189 -2237.07 520.314C-2275.25 519.356 -2314.53 519.243 -2354.11 520.018C-2457.69 522.132 -2568.27 531.573 -2664.31 556.245" stroke="url(#paint15_linear_92_5434)" stroke-width="3.1732" stroke-miterlimit="10"/>
<path d="M2181.88 2486.26C2073.61 2396.6 1962.28 2292 1811.87 2230.52C1658.5 2167.83 1504.41 2134.86 1317.79 2144.91C1157.63 2153.53 988.504 2170.1 810.218 2176.06C737.781 2178.48 661.226 2178.1 584.041 2173.99C430.203 2165.65 271.223 2143.83 133.224 2100.72C7.39966 2061.12 -109.363 2009.88 -214.975 1946.34C-306.699 1891.46 -384.948 1827.94 -451.672 1758.49C-580.688 1624.23 -662.758 1466.84 -755.92 1315.51C-770.104 1292.66 -784.663 1270.01 -799.851 1247.68C-908.143 1089.57 -1037.06 951.638 -1207.78 841.493C-1413.81 709.507 -1672.88 619.328 -1941.16 579.086C-2051.46 562.544 -2166.47 552.483 -2281.2 551.328C-2319.56 550.933 -2358.9 551.398 -2398.46 552.723C-2502.06 556.288 -2612.52 567.137 -2708.34 593.05" stroke="url(#paint16_linear_92_5434)" stroke-width="3.1732" stroke-miterlimit="10"/>
<path d="M2196.97 2452.71C2080.66 2365.08 1963.82 2264.79 1806.75 2209.9C1648.1 2154.47 1490.58 2129.77 1302.25 2144.83C1142.07 2157.64 973.04 2177.38 794.498 2185.33C722.101 2188.56 645.329 2188.75 567.849 2185.08C413.518 2177.58 253.868 2155.87 116.184 2112.16C-9.58094 2071.94 -125.949 2019.85 -231.049 1955.61C-322.202 1900.2 -400.135 1836.21 -466.702 1766.39C-595.403 1631.46 -677.493 1473.69 -773.039 1322.98C-787.617 1300.19 -802.589 1277.64 -818.25 1255.4C-930.048 1097.91 -1064.42 962.037 -1239.32 854.724C-1450.47 726.064 -1713.28 640.323 -1983.63 604.688C-2094.66 590.048 -2210.3 581.833 -2325.39 582.369C-2363.9 582.552 -2403.3 583.567 -2442.88 585.455C-2546.5 590.471 -2656.84 602.73 -2752.43 629.882" stroke="url(#paint17_linear_92_5434)" stroke-width="3.1732" stroke-miterlimit="10"/>
<path d="M2227.17 2385.6C2094.76 2302.03 1966.99 2210.12 1796.5 2168.65C1627.4 2127.5 1462.88 2119.44 1271.18 2144.65C1110.92 2165.73 942.13 2191.92 763.056 2203.83C690.737 2208.64 613.552 2210.03 535.461 2207.2C380.165 2201.41 219.156 2179.88 82.142 2134.97C-43.4856 2093.53 -159.106 2039.76 -263.181 1974.1C-353.171 1917.6 -430.474 1852.71 -496.726 1782.16C-624.757 1645.88 -706.926 1487.34 -807.239 1337.9C-822.565 1315.24 -838.404 1292.87 -855.011 1270.84C-973.823 1114.59 -1119.11 982.849 -1302.32 881.2C-1523.69 759.19 -1794.04 682.299 -2068.46 655.879C-2180.93 645.057 -2297.85 640.52 -2413.62 644.452C-2452.47 645.776 -2492.01 647.932 -2531.57 650.933C-2635.23 658.866 -2745.33 673.929 -2840.49 703.575" stroke="url(#paint18_linear_92_5434)" stroke-width="3.1732" stroke-miterlimit="10"/>
<path d="M2242.26 2352.05C2101.8 2270.51 1968.55 2182.68 1791.38 2148.02C1617.04 2113.92 1448.99 2114.22 1255.66 2144.55C1095.32 2169.72 926.685 2199.17 747.355 2213.06C675.076 2218.65 597.675 2220.66 519.288 2218.25C363.499 2213.31 201.84 2191.87 65.1414 2146.37C-60.4271 2104.31 -175.673 2049.7 -279.216 1983.34C-368.635 1926.31 -445.623 1860.95 -511.717 1790.04C-639.413 1653.08 -721.621 1494.18 -824.318 1345.35C-840.019 1322.77 -856.292 1300.46 -873.391 1278.57C-995.689 1122.94 -1146.45 993.247 -1333.82 894.431C-1560.31 775.747 -1834.4 703.279 -2110.87 681.481C-2224.07 672.562 -2341.62 669.885 -2457.75 675.507C-2496.78 677.395 -2536.36 680.129 -2575.91 683.679C-2679.59 693.064 -2789.58 709.535 -2884.52 740.422" stroke="url(#paint19_linear_92_5434)" stroke-width="3.1732" stroke-miterlimit="10"/>
<path d="M2257.37 2318.5C2108.87 2238.99 1970.1 2155.16 1786.26 2127.39C1606.63 2100.25 1435.07 2108.96 1240.11 2144.47C1079.68 2173.69 911.221 2206.44 731.634 2222.32C659.394 2228.7 581.796 2231.31 503.114 2229.32C346.852 2225.25 184.504 2203.89 48.1396 2157.8C-77.3697 2115.12 -192.241 2059.67 -295.253 1992.6C-384.1 1935.01 -460.773 1869.21 -526.709 1797.94C-654.09 1660.29 -736.318 1501.03 -841.399 1352.84C-857.474 1330.32 -874.18 1308.1 -891.752 1286.3C-1017.56 1131.29 -1173.78 1003.66 -1365.3 907.676C-1596.92 792.317 -1874.79 724.246 -2153.29 707.084C-2267.19 700.067 -2385.39 699.235 -2501.88 706.548C-2541.06 709.014 -2580.72 712.311 -2620.28 716.412C-2723.98 727.261 -2833.85 745.128 -2928.55 777.254" stroke="url(#paint20_linear_92_5434)" stroke-width="3.1732" stroke-miterlimit="10"/>
<path d="M2272.46 2284.95C2115.9 2207.45 1971.62 2127.59 1781.14 2106.78C1596.19 2086.56 1421.1 2103.68 1224.59 2144.38C1064.01 2177.65 895.775 2213.69 715.933 2231.58C643.732 2238.75 565.917 2241.95 486.939 2240.38C330.186 2237.16 167.167 2215.89 31.1184 2169.2C-94.3318 2125.91 -208.809 2069.62 -311.309 2001.84C-399.565 1943.72 -475.942 1877.45 -541.721 1805.82C-668.767 1667.49 -751.035 1507.85 -858.499 1360.29C-874.968 1337.83 -892.067 1315.71 -910.132 1294.02C-1039.44 1139.63 -1201.12 1014.06 -1396.8 920.907C-1633.54 808.874 -1915.15 745.213 -2195.72 732.686C-2310.36 727.572 -2429.17 728.6 -2546.01 737.604C-2585.35 740.633 -2625.09 744.494 -2664.64 749.158C-2768.36 761.459 -2878.11 780.735 -2972.59 814.101" stroke="url(#paint21_linear_92_5434)" stroke-width="3.1732" stroke-miterlimit="10"/>
<path d="M2287.57 2251.39C2122.97 2175.92 1973.08 2099.96 1776.04 2086.13C1585.71 2072.79 1407.11 2098.34 1209.07 2144.28C1048.33 2181.57 880.331 2220.94 700.213 2240.82C628.052 2248.78 550.039 2252.58 470.746 2251.44C313.5 2249.08 149.812 2227.9 14.0979 2180.61C-111.293 2136.7 -225.396 2079.57 -327.364 2011.1C-415.049 1952.44 -491.111 1885.71 -556.732 1813.71C-683.443 1674.71 -765.75 1514.68 -875.598 1367.74C-892.442 1345.35 -909.975 1323.32 -928.532 1301.73C-1061.33 1147.96 -1228.49 1024.46 -1428.32 934.138C-1670.18 825.43 -1955.56 766.179 -2238.16 758.274C-2353.52 755.048 -2472.96 757.95 -2590.16 768.645C-2629.68 772.252 -2669.45 776.677 -2709.01 781.89C-2812.75 795.642 -2922.38 816.341 -3016.64 850.948" stroke="url(#paint22_linear_92_5434)" stroke-width="3.1732" stroke-miterlimit="10"/>
<path d="M2302.66 2217.84C2130.01 2144.4 1974.47 2072.28 1770.89 2065.52C1575.13 2059.01 1393.05 2093.01 1193.52 2144.2C1032.59 2185.5 864.866 2228.19 684.492 2250.08C612.37 2258.83 534.141 2263.22 454.553 2262.52C296.834 2261 132.476 2239.92 -2.92299 2192.04C-128.255 2147.51 -241.964 2089.54 -343.42 2020.36C-430.533 1961.17 -506.261 1893.98 -571.724 1821.61C-698.12 1681.93 -780.447 1521.53 -892.698 1375.23C-909.916 1352.91 -927.882 1330.94 -946.912 1309.47C-1083.22 1156.3 -1255.83 1034.86 -1459.84 947.369C-1706.82 841.986 -1995.96 786.765 -2280.61 783.877C-2396.68 782.397 -2516.73 787.47 -2634.32 799.686C-2674 803.914 -2713.85 808.859 -2753.41 814.636C-2857.17 829.854 -2966.68 851.948 -3060.73 887.794" stroke="url(#paint23_linear_92_5434)" stroke-width="3.1732" stroke-miterlimit="10"/>
<path d="M2317.75 2184.29C2137.06 2112.88 1975.66 2039.44 1765.77 2044.89C1564.65 2050.1 1378.96 2087.64 1177.98 2144.12C1016.81 2189.4 849.382 2235.44 668.772 2259.32C596.689 2268.84 518.263 2273.86 438.359 2273.58C280.148 2272.92 115.12 2251.92 -19.9437 2203.44C-145.217 2158.31 -258.551 2099.49 -359.475 2029.6C-446.017 1969.86 -521.43 1902.22 -586.735 1829.49C-712.796 1689.13 -795.162 1528.36 -909.797 1382.68C-927.39 1360.42 -945.789 1338.55 -965.292 1317.19C-1105.1 1164.64 -1283.17 1045.27 -1491.34 960.6C-1743.43 858.542 -2036.35 807.746 -2323.02 809.465C-2439.83 809.902 -2560.51 816.792 -2678.43 830.728C-2718.27 835.533 -2758.2 841.042 -2797.74 847.369C-2901.52 864.038 -3010.91 887.541 -3104.72 924.627" stroke="url(#paint24_linear_92_5434)" stroke-width="3.1732" stroke-miterlimit="10"/>
<path d="M2332.86 2150.74C2144.11 2081.36 1977.09 2016.86 1760.65 2024.26C1553.84 2031.34 1364.84 2082.26 1162.46 2144.02C1001.01 2193.28 833.859 2242.43 653.071 2268.56C581.008 2278.78 502.384 2284.5 422.205 2284.63C263.521 2284.82 97.8039 2263.91 -36.9448 2214.84C-162.159 2169.08 -275.099 2109.42 -375.511 2038.83C-461.482 1978.55 -536.579 1910.45 -601.727 1837.35C-727.453 1696.32 -809.858 1535.17 -926.877 1390.12C-944.844 1367.93 -963.677 1346.14 -983.653 1324.88C-1126.97 1172.96 -1310.5 1055.64 -1522.82 973.816C-1780.03 875.084 -2076.73 828.727 -2365.42 835.053C-2482.95 837.392 -2604.24 846.128 -2722.54 861.755C-2762.53 867.123 -2802.54 873.21 -2842.08 880.086C-2945.88 898.207 -3055.16 923.119 -3148.75 961.445" stroke="url(#paint25_linear_92_5434)" stroke-width="3.1732" stroke-miterlimit="10"/>
<path d="M2347.95 2117.17C2151.14 2049.82 1978.3 1989.11 1755.53 2003.63C1543.1 2017.48 1350.67 2076.86 1146.91 2143.93C985.175 2197.17 818.394 2249.71 637.33 2277.82C565.287 2288.84 486.467 2295.14 405.992 2295.7C246.815 2296.74 80.4283 2275.92 -53.9855 2226.26C-179.14 2179.89 -291.707 2119.4 -391.586 2048.1C-476.967 1987.29 -551.768 1918.72 -616.759 1845.27C-742.15 1703.55 -824.594 1542.03 -943.997 1397.62C-962.357 1375.49 -981.604 1353.78 -1002.07 1332.65C-1148.9 1181.34 -1337.88 1066.08 -1554.36 987.09C-1816.69 891.697 -2117.16 849.764 -2407.89 860.684C-2526.15 864.94 -2648.07 875.507 -2766.73 892.839C-2806.9 898.771 -2846.95 905.422 -2886.49 912.861C-2990.31 932.447 -3099.46 958.754 -3192.84 998.334" stroke="url(#paint26_linear_92_5434)" stroke-width="3.1732" stroke-miterlimit="10"/>
<path d="M2363.04 2083.63C2158.2 2018.3 1979.46 1961.36 1750.39 1983.01C1532.29 2003.62 1336.43 2071.47 1131.37 2143.83C969.297 2201.04 802.929 2256.98 621.61 2287.06C549.606 2298.87 470.589 2305.78 389.799 2306.76C230.129 2308.66 63.0923 2287.92 -71.0063 2237.66C-196.082 2190.67 -308.274 2129.35 -407.642 2057.33C-492.451 1995.98 -566.937 1926.95 -631.77 1853.13C-756.846 1710.73 -839.31 1548.84 -961.096 1405.06C-979.831 1382.99 -999.511 1361.38 -1020.45 1340.34C-1170.76 1189.65 -1365.22 1076.45 -1585.87 1000.29C-1853.31 908.225 -2157.56 870.73 -2450.31 886.258C-2569.29 892.416 -2691.83 904.815 -2810.86 923.852C-2851.18 930.361 -2891.31 937.576 -2930.85 945.579C-3034.69 966.616 -3143.75 994.332 -3236.89 1035.15" stroke="url(#paint27_linear_92_5434)" stroke-width="3.1732" stroke-miterlimit="10"/>
<path d="M2378.15 2050.08C2165.25 1986.77 1980.58 1933.6 1745.28 1962.39C1521.45 1989.77 1322.2 2066.05 1115.85 2143.76C953.399 2204.93 787.465 2264.28 605.909 2296.34C533.944 2308.95 454.71 2316.43 373.625 2317.85C213.483 2320.6 45.7561 2299.96 -88.0076 2249.1C-213.024 2201.51 -324.842 2139.32 -423.678 2066.62C-507.915 2004.72 -582.066 1935.25 -646.742 1861.05C-771.483 1717.98 -854.006 1555.71 -978.156 1412.55C-997.265 1390.56 -1017.38 1369.03 -1038.79 1348.09C-1192.61 1198.02 -1392.53 1086.88 -1617.33 1013.55C-1889.9 924.81 -2197.93 891.753 -2492.7 911.875C-2612.42 919.948 -2735.58 934.18 -2854.95 954.921C-2895.43 961.994 -2935.64 969.786 -2975.16 978.339C-3079.01 1000.83 -3187.96 1029.95 -3280.86 1072.01" stroke="url(#paint28_linear_92_5434)" stroke-width="3.1732" stroke-miterlimit="10"/>
<path d="M2393.24 2016.53C2172.3 1955.25 1981.63 1905.86 1740.16 1941.76C1510.56 1975.9 1307.92 2060.63 1100.3 2143.66C937.461 2208.79 772 2271.55 590.188 2305.56C518.263 2318.98 438.832 2327.05 357.431 2328.88C196.797 2332.49 28.4001 2311.93 -105.048 2260.49C-230.006 2212.27 -341.43 2149.26 -439.753 2075.83C-523.419 2013.4 -597.255 1943.47 -661.773 1868.91C-786.179 1725.16 -868.742 1562.52 -995.276 1419.98C-1014.76 1398.05 -1035.31 1376.61 -1057.21 1355.78C-1214.54 1206.34 -1419.91 1097.25 -1648.89 1026.75C-1926.58 941.338 -2238.37 912.72 -2535.17 937.449C-2655.62 947.439 -2779.4 963.502 -2899.13 985.948C-2939.79 993.585 -2980.04 1001.96 -3019.58 1011.06C-3123.46 1035 -3232.26 1065.53 -3324.97 1108.83" stroke="url(#paint29_linear_92_5434)" stroke-width="3.1732" stroke-miterlimit="10"/>
<path d="M2408.35 1982.96C2179.36 1923.71 1982.67 1878.09 1735.04 1921.12C1315.55 1994.02 989.431 2232.8 574.468 2314.81C360.8 2357.04 78.5569 2350.33 -122.049 2271.89C-353.053 2181.57 -536.638 2039.9 -676.765 1876.79C-819.965 1710.1 -907.886 1518.67 -1075.57 1363.49C-1431.51 1034.14 -2032.45 909.536 -2577.59 963.051C-2739.96 978.988 -2908.12 1005.7 -3063.92 1043.79C-3167.84 1069.19 -3276.53 1101.14 -3369 1145.68" stroke="url(#paint30_linear_92_5434)" stroke-width="3.1732" stroke-miterlimit="10"/>
<defs>
<linearGradient id="paint0_linear_92_5434" x1="40.1023" y1="2" x2="40.1023" y2="3023" gradientUnits="userSpaceOnUse">
<stop stop-color="#25D68B"/>
<stop offset="1" stop-color="#137049"/>
</linearGradient>
<linearGradient id="paint1_linear_92_5434" x1="-44.3667" y1="38.1073" x2="-44.3667" y2="2989.56" gradientUnits="userSpaceOnUse">
<stop stop-color="#25D68B"/>
<stop offset="1" stop-color="#137049"/>
</linearGradient>
<linearGradient id="paint2_linear_92_5434" x1="-60.391" y1="73.9805" x2="-60.391" y2="2956.01" gradientUnits="userSpaceOnUse">
<stop stop-color="#25D68B"/>
<stop offset="1" stop-color="#137049"/>
</linearGradient>
<linearGradient id="paint3_linear_92_5434" x1="-75.0845" y1="109.721" x2="-75.0845" y2="2922.45" gradientUnits="userSpaceOnUse">
<stop stop-color="#25D68B"/>
<stop offset="1" stop-color="#137049"/>
</linearGradient>
<linearGradient id="paint4_linear_92_5434" x1="-89.574" y1="145.257" x2="-89.574" y2="2888.9" gradientUnits="userSpaceOnUse">
<stop stop-color="#25D68B"/>
<stop offset="1" stop-color="#137049"/>
</linearGradient>
<linearGradient id="paint5_linear_92_5434" x1="-104.004" y1="180.645" x2="-104.004" y2="2855.35" gradientUnits="userSpaceOnUse">
<stop stop-color="#25D68B"/>
<stop offset="1" stop-color="#137049"/>
</linearGradient>
<linearGradient id="paint6_linear_92_5434" x1="-118.514" y1="215.764" x2="-118.514" y2="2821.8" gradientUnits="userSpaceOnUse">
<stop stop-color="#25D68B"/>
<stop offset="1" stop-color="#137049"/>
</linearGradient>
<linearGradient id="paint7_linear_92_5434" x1="-132.992" y1="250.674" x2="-132.992" y2="2788.23" gradientUnits="userSpaceOnUse">
<stop stop-color="#25D68B"/>
<stop offset="1" stop-color="#137049"/>
</linearGradient>
<linearGradient id="paint8_linear_92_5434" x1="-147.453" y1="285.352" x2="-147.453" y2="2754.68" gradientUnits="userSpaceOnUse">
<stop stop-color="#25D68B"/>
<stop offset="1" stop-color="#137049"/>
</linearGradient>
<linearGradient id="paint9_linear_92_5434" x1="-161.923" y1="319.81" x2="-161.923" y2="2721.14" gradientUnits="userSpaceOnUse">
<stop stop-color="#25D68B"/>
<stop offset="1" stop-color="#137049"/>
</linearGradient>
<linearGradient id="paint10_linear_92_5434" x1="-176.392" y1="353.935" x2="-176.392" y2="2687.59" gradientUnits="userSpaceOnUse">
<stop stop-color="#25D68B"/>
<stop offset="1" stop-color="#137049"/>
</linearGradient>
<linearGradient id="paint11_linear_92_5434" x1="-190.852" y1="387.767" x2="-190.852" y2="2654.02" gradientUnits="userSpaceOnUse">
<stop stop-color="#25D68B"/>
<stop offset="1" stop-color="#137049"/>
</linearGradient>
<linearGradient id="paint12_linear_92_5434" x1="-205.342" y1="421.294" x2="-205.342" y2="2620.47" gradientUnits="userSpaceOnUse">
<stop stop-color="#25D68B"/>
<stop offset="1" stop-color="#137049"/>
</linearGradient>
<linearGradient id="paint13_linear_92_5434" x1="-219.811" y1="454.448" x2="-219.811" y2="2586.92" gradientUnits="userSpaceOnUse">
<stop stop-color="#25D68B"/>
<stop offset="1" stop-color="#137049"/>
</linearGradient>
<linearGradient id="paint14_linear_92_5434" x1="-234.291" y1="487.207" x2="-234.291" y2="2553.37" gradientUnits="userSpaceOnUse">
<stop stop-color="#25D68B"/>
<stop offset="1" stop-color="#137049"/>
</linearGradient>
<linearGradient id="paint15_linear_92_5434" x1="-248.771" y1="519.507" x2="-248.771" y2="2519.81" gradientUnits="userSpaceOnUse">
<stop stop-color="#25D68B"/>
<stop offset="1" stop-color="#137049"/>
</linearGradient>
<linearGradient id="paint16_linear_92_5434" x1="-263.23" y1="551.192" x2="-263.23" y2="2486.26" gradientUnits="userSpaceOnUse">
<stop stop-color="#25D68B"/>
<stop offset="1" stop-color="#137049"/>
</linearGradient>
<linearGradient id="paint17_linear_92_5434" x1="-277.729" y1="582.344" x2="-277.729" y2="2452.71" gradientUnits="userSpaceOnUse">
<stop stop-color="#25D68B"/>
<stop offset="1" stop-color="#137049"/>
</linearGradient>
<linearGradient id="paint18_linear_92_5434" x1="-306.659" y1="643.054" x2="-306.659" y2="2385.6" gradientUnits="userSpaceOnUse">
<stop stop-color="#25D68B"/>
<stop offset="1" stop-color="#137049"/>
</linearGradient>
<linearGradient id="paint19_linear_92_5434" x1="-321.128" y1="672.565" x2="-321.128" y2="2352.05" gradientUnits="userSpaceOnUse">
<stop stop-color="#25D68B"/>
<stop offset="1" stop-color="#137049"/>
</linearGradient>
<linearGradient id="paint20_linear_92_5434" x1="-335.589" y1="701.43" x2="-335.589" y2="2318.5" gradientUnits="userSpaceOnUse">
<stop stop-color="#25D68B"/>
<stop offset="1" stop-color="#137049"/>
</linearGradient>
<linearGradient id="paint21_linear_92_5434" x1="-350.069" y1="729.614" x2="-350.069" y2="2284.95" gradientUnits="userSpaceOnUse">
<stop stop-color="#25D68B"/>
<stop offset="1" stop-color="#137049"/>
</linearGradient>
<linearGradient id="paint22_linear_92_5434" x1="-364.538" y1="757.029" x2="-364.538" y2="2251.64" gradientUnits="userSpaceOnUse">
<stop stop-color="#25D68B"/>
<stop offset="1" stop-color="#137049"/>
</linearGradient>
<linearGradient id="paint23_linear_92_5434" x1="-379.037" y1="783.627" x2="-379.037" y2="2262.59" gradientUnits="userSpaceOnUse">
<stop stop-color="#25D68B"/>
<stop offset="1" stop-color="#137049"/>
</linearGradient>
<linearGradient id="paint24_linear_92_5434" x1="-393.487" y1="809.423" x2="-393.487" y2="2273.59" gradientUnits="userSpaceOnUse">
<stop stop-color="#25D68B"/>
<stop offset="1" stop-color="#137049"/>
</linearGradient>
<linearGradient id="paint25_linear_92_5434" x1="-407.947" y1="834.483" x2="-407.947" y2="2284.63" gradientUnits="userSpaceOnUse">
<stop stop-color="#25D68B"/>
<stop offset="1" stop-color="#137049"/>
</linearGradient>
<linearGradient id="paint26_linear_92_5434" x1="-422.447" y1="858.993" x2="-422.447" y2="2295.74" gradientUnits="userSpaceOnUse">
<stop stop-color="#25D68B"/>
<stop offset="1" stop-color="#137049"/>
</linearGradient>
<linearGradient id="paint27_linear_92_5434" x1="-436.926" y1="882.853" x2="-436.926" y2="2306.88" gradientUnits="userSpaceOnUse">
<stop stop-color="#25D68B"/>
<stop offset="1" stop-color="#137049"/>
</linearGradient>
<linearGradient id="paint28_linear_92_5434" x1="-451.356" y1="906.181" x2="-451.356" y2="2318.09" gradientUnits="userSpaceOnUse">
<stop stop-color="#25D68B"/>
<stop offset="1" stop-color="#137049"/>
</linearGradient>
<linearGradient id="paint29_linear_92_5434" x1="-465.865" y1="928.894" x2="-465.865" y2="2329.29" gradientUnits="userSpaceOnUse">
<stop stop-color="#25D68B"/>
<stop offset="1" stop-color="#137049"/>
</linearGradient>
<linearGradient id="paint30_linear_92_5434" x1="-480.325" y1="951.081" x2="-480.325" y2="2340.54" gradientUnits="userSpaceOnUse">
<stop stop-color="#25D68B"/>
<stop offset="1" stop-color="#137049"/>
</linearGradient>
</defs>
</svg>
