<svg width="1920" height="2857" viewBox="0 0 1920 2857" fill="none" xmlns="http://www.w3.org/2000/svg">
<path d="M-1214.33 2133.99C-1025.93 2263.71 -595.541 2409.59 -390.406 2293.01C-241.71 2208.51 -135.111 2079.25 -20.7453 1961.24C107.851 1828.54 242.566 1693.54 414.938 1607.49C625.676 1502.3 851.259 1515.48 1073.85 1571.25C1247.38 1614.73 1416.97 1676.31 1599.03 1684.99C1868.01 1697.81 2151.5 1609.78 2357.13 1448.72C2428.75 1392.63 2505.34 1314.9 2546.52 1236.63" stroke="url(#paint0_linear_37_105)" stroke-width="3.1732" stroke-miterlimit="10"/>
<path d="M-1193.02 2156.08C-1091.59 2219.87 -923.997 2288.1 -760.382 2318.5C-617.625 2345.02 -477.734 2344.12 -384.995 2288.02C-241.205 2201.04 -137.993 2071.27 -25.86 1952.29C68.3442 1852.13 167.857 1750.16 284.287 1669.98C323.958 1642.68 365.542 1617.77 409.535 1596.03C509.266 1546.74 612.444 1523.52 717.042 1518.56C834.398 1512.99 953.498 1530.51 1071.77 1558.96C1110.71 1568.31 1149.46 1578.47 1188.2 1588.62C1323.14 1623.94 1457.49 1659.38 1598.5 1663.08C1795.55 1668.28 1998.98 1619.17 2172.73 1527.54C2235.37 1494.54 2294.29 1455.95 2347.74 1412.39C2370.13 1394.11 2392.98 1373.69 2415 1351.82C2462.14 1304.98 2505.61 1251.28 2532.66 1197.44" stroke="url(#paint1_linear_37_105)" stroke-width="3.1732" stroke-miterlimit="10"/>
<path d="M-1171.71 2178.15C-1069.45 2236.49 -903.872 2299.07 -744.056 2323.8C-604.714 2345.37 -469.469 2340.9 -379.571 2283.01C-240.685 2193.57 -140.846 2063.29 -30.9474 1943.31C61.4768 1842.04 161.134 1738.45 278.061 1658.39C318.002 1631.05 359.901 1606.19 404.158 1584.56C504.326 1535.54 608.08 1512.39 713.232 1507.39C831.198 1501.78 950.85 1519.24 1069.71 1546.65C1108.88 1555.66 1147.87 1565.37 1186.84 1574.95C1322.64 1608.31 1457.42 1640.49 1597.98 1641.17C1794.41 1642.13 1995.71 1588.95 2166.53 1494.21C2228.1 1460.1 2285.96 1420.49 2338.35 1376.04C2360.31 1357.34 2382.69 1336.58 2404.23 1314.4C2450.33 1266.9 2492.77 1212.57 2518.82 1158.24" stroke="url(#paint2_linear_37_105)" stroke-width="3.1732" stroke-miterlimit="10"/>
<path d="M-1150.4 2200.24C-1047.31 2253.11 -883.802 2310.05 -727.742 2329.13C-591.855 2345.74 -461.229 2337.72 -374.157 2278.03C-240.188 2186.18 -143.726 2055.32 -36.0453 1934.39C54.5981 1831.99 154.387 1726.78 271.837 1646.83C312.062 1619.48 354.25 1594.68 398.784 1573.13C499.377 1524.39 603.718 1501.3 709.44 1496.27C828.013 1490.62 948.233 1508.03 1067.66 1534.39C1107.07 1543.06 1146.29 1552.32 1185.5 1561.33C1322.16 1592.7 1457.36 1621.64 1597.46 1619.29C1793.26 1616.02 1992.44 1558.78 2160.33 1460.9C2220.83 1425.7 2277.63 1385.05 2328.97 1339.72C2350.5 1320.6 2372.39 1299.49 2393.44 1277.03C2438.5 1228.85 2479.91 1173.9 2504.96 1119.07" stroke="url(#paint3_linear_37_105)" stroke-width="3.1732" stroke-miterlimit="10"/>
<path d="M-1129.09 2222.33C-1025.16 2269.74 -863.758 2321.03 -711.414 2334.44C-579.024 2346.09 -452.962 2334.54 -368.745 2273.03C-239.691 2178.78 -146.606 2047.35 -41.1453 1925.43C47.7182 1821.92 147.639 1715.08 265.598 1635.25C306.106 1607.87 348.583 1583.13 393.394 1561.67C494.412 1513.21 599.342 1490.19 705.617 1485.12C824.8 1479.43 945.587 1496.78 1065.59 1522.1C1105.23 1530.42 1144.69 1539.25 1184.14 1547.69C1321.64 1577.09 1457.28 1602.77 1596.94 1597.38C1792.09 1589.88 1989.18 1528.59 2154.12 1427.57C2213.55 1391.28 2269.29 1349.59 2319.59 1303.39C2340.71 1283.85 2362.12 1262.37 2382.68 1239.62C2426.71 1190.78 2467.09 1135.2 2491.12 1079.88" stroke="url(#paint4_linear_37_105)" stroke-width="3.1732" stroke-miterlimit="10"/>
<path d="M-1107.78 2244.42C-1003.01 2286.37 -843.756 2332.01 -695.102 2339.75C-566.234 2346.46 -444.721 2331.38 -363.335 2268.04C-239.193 2171.41 -149.176 2039.56 -46.2599 1916.48C41.0915 1812 140.875 1703.37 259.343 1623.65C300.136 1596.25 342.901 1571.56 387.989 1550.19C489.445 1502 594.95 1479.06 701.794 1473.96C821.586 1468.23 942.926 1485.52 1063.51 1509.8C1103.39 1517.78 1143.1 1526.17 1182.78 1534.04C1321.14 1561.46 1457.19 1583.9 1596.42 1575.47C1790.94 1563.74 1985.91 1498.38 2147.92 1394.22C2206.27 1356.83 2261.09 1314.21 2310.2 1267.03C2330.94 1247.11 2351.84 1225.25 2371.9 1202.2C2414.89 1152.67 2454.23 1096.48 2477.26 1040.66" stroke="url(#paint5_linear_37_105)" stroke-width="3.1732" stroke-miterlimit="10"/>
<path d="M-1086.47 2266.49C-980.867 2302.98 -823.82 2343 -678.774 2345.07C-553.469 2346.85 -436.465 2328.24 -357.923 2263.04C-238.693 2164.08 -152 2031.61 -51.3599 1907.52C34.2536 1801.95 134.125 1691.67 253.117 1612.06C294.181 1584.65 337.262 1560.01 382.614 1538.73C484.494 1490.82 590.587 1467.95 697.999 1462.8C818.399 1457.04 940.307 1474.27 1061.45 1497.5C1101.56 1505.13 1141.51 1513.07 1181.43 1520.38C1320.64 1545.83 1457.12 1565.02 1595.89 1553.56C1789.77 1537.6 1982.63 1468.19 2141.72 1360.9C2198.99 1322.42 2252.77 1278.78 2300.81 1230.7C2321.13 1210.37 2341.54 1188.15 2361.12 1164.8C2403.07 1114.59 2441.39 1057.79 2463.42 1001.47" stroke="url(#paint6_linear_37_105)" stroke-width="3.1732" stroke-miterlimit="10"/>
<path d="M-1065.16 2288.58C-958.723 2319.61 -803.923 2354.02 -662.46 2350.38C-540.771 2347.25 -428.221 2325.12 -352.509 2258.05C-238.189 2156.78 -154.824 2023.65 -56.4581 1898.58C27.4175 1791.92 127.378 1679.99 246.88 1600.5C288.227 1573.06 331.596 1548.47 377.226 1527.29C479.544 1479.66 586.211 1456.85 694.178 1451.67C815.201 1445.86 937.662 1463.04 1059.38 1485.22C1099.72 1492.51 1139.92 1500.01 1180.07 1506.76C1320.14 1530.22 1457.05 1546.16 1595.37 1531.67C1788.62 1511.48 1979.37 1438.01 2135.52 1327.59C2191.71 1288.01 2244.46 1243.35 2291.44 1194.39C2311.34 1173.64 2331.27 1151.07 2350.35 1127.42C2391.27 1076.55 2428.55 1019.11 2449.56 962.301" stroke="url(#paint7_linear_37_105)" stroke-width="3.1732" stroke-miterlimit="10"/>
<path d="M-1043.85 2310.67C-936.581 2336.24 -784.065 2365.07 -646.133 2355.69C-528.086 2347.67 -419.95 2322 -347.098 2253.06C-237.672 2149.5 -157.649 2015.7 -61.5722 1889.63C20.5647 1781.86 120.615 1668.29 240.626 1588.92C282.257 1561.46 325.915 1536.92 371.822 1515.83C474.565 1468.47 581.82 1445.72 690.356 1440.52C811.988 1434.68 935.002 1451.8 1057.31 1472.94C1097.89 1479.89 1138.31 1486.95 1178.71 1493.13C1319.62 1514.61 1456.95 1527.3 1594.84 1509.78C1787.46 1485.35 1976.1 1407.81 2129.3 1294.27C2184.43 1253.6 2236.14 1207.9 2282.04 1158.06C2301.53 1136.89 2320.96 1113.97 2339.57 1090.02C2379.45 1038.47 2415.7 980.413 2435.71 923.109" stroke="url(#paint8_linear_37_105)" stroke-width="3.1732" stroke-miterlimit="10"/>
<path d="M-1022.54 2332.76C-914.439 2352.85 -764.274 2376.15 -629.806 2361C-515.439 2348.13 -411.677 2318.92 -341.673 2248.06C-237.139 2142.25 -160.475 2007.73 -66.6588 1880.67C13.7394 1771.79 113.879 1656.58 234.4 1577.33C276.301 1549.84 320.276 1525.37 366.446 1504.37C469.627 1457.29 577.457 1434.61 686.561 1429.36C808.801 1423.48 932.382 1440.53 1055.25 1460.64C1096.07 1467.24 1136.74 1473.86 1177.37 1479.46C1319.14 1498.97 1456.89 1508.41 1594.33 1487.86C1786.31 1459.21 1972.83 1377.61 2123.11 1260.93C2177.16 1219.16 2227.84 1172.45 2272.66 1121.71C2291.74 1100.13 2310.7 1076.85 2328.81 1052.6C2367.64 1000.39 2402.86 941.712 2421.88 883.903" stroke="url(#paint9_linear_37_105)" stroke-width="3.1732" stroke-miterlimit="10"/>
<path d="M-1001.24 2354.84C-892.283 2369.47 -744.52 2387.26 -613.492 2366.32C-502.843 2348.63 -403.416 2315.85 -336.274 2243.06C-236.604 2135.03 -163.341 1999.75 -71.7715 1871.72C6.87451 1761.74 107.118 1644.89 228.162 1565.75C270.347 1538.25 314.61 1513.83 361.057 1492.92C464.663 1446.12 573.081 1423.5 682.74 1418.23C805.59 1412.31 929.723 1429.3 1053.18 1448.36C1094.23 1454.62 1135.13 1460.79 1176.01 1465.83C1318.64 1483.36 1456.82 1489.57 1593.81 1465.97C1785.15 1433.08 1969.57 1347.42 2116.91 1227.61C2169.89 1184.75 2219.51 1137 2263.29 1085.38C2281.94 1063.37 2300.42 1039.75 2318.04 1015.21C2355.84 962.317 2390.03 903.023 2408.03 844.722" stroke="url(#paint10_linear_37_105)" stroke-width="3.1732" stroke-miterlimit="10"/>
<path d="M-979.94 2376.93C-870.155 2386.1 -724.818 2398.43 -597.179 2371.63C-490.272 2349.19 -395.141 2312.8 -330.862 2238.08C-236.04 2127.84 -166.179 1991.8 -76.8849 1862.78C0.00823839 1751.68 100.355 1633.2 221.909 1554.18C264.379 1526.66 308.93 1502.29 355.655 1481.47C459.697 1434.94 568.691 1412.4 678.918 1407.08C802.376 1401.13 927.077 1418.06 1051.11 1436.07C1092.4 1441.98 1133.54 1447.72 1174.65 1452.19C1318.13 1467.75 1456.74 1470.7 1593.27 1444.07C1783.98 1406.95 1966.29 1317.23 2110.68 1194.28C2162.59 1150.32 2211.17 1101.56 2253.87 1049.05C2272.11 1026.63 2290.1 1002.65 2307.24 977.811C2344.01 924.249 2377.15 864.324 2394.15 805.532" stroke="url(#paint11_linear_37_105)" stroke-width="3.1732" stroke-miterlimit="10"/>
<path d="M-958.63 2399.01C-848.012 2402.72 -705.126 2409.66 -580.866 2376.94C-477.725 2349.78 -386.852 2309.76 -325.45 2233.08C-235.462 2120.67 -169.032 1983.82 -81.9851 1853.82C-6.84489 1741.6 93.6061 1621.5 215.669 1542.58C258.422 1515.03 303.275 1490.72 350.264 1470C454.732 1423.74 564.313 1401.27 675.108 1395.91C799.176 1389.92 924.443 1406.8 1049.05 1423.77C1090.56 1429.34 1131.95 1434.63 1173.31 1438.54C1317.63 1452.12 1456.66 1451.82 1592.77 1422.15C1782.84 1380.8 1963.03 1287.02 2104.51 1160.93C2155.32 1115.88 2202.88 1066.08 2244.51 1012.69C2262.33 989.851 2279.83 965.51 2296.48 940.385C2332.2 886.145 2364.32 825.611 2380.32 766.315" stroke="url(#paint12_linear_37_105)" stroke-width="3.1732" stroke-miterlimit="10"/>
<path d="M-937.322 2421.09C-825.871 2419.34 -685.458 2420.96 -564.539 2382.26C-465.174 2350.45 -378.521 2306.74 -320.039 2228.08C-234.855 2113.52 -171.887 1975.83 -87.0857 1844.86C-13.712 1731.52 86.856 1609.79 209.443 1531C252.466 1503.43 297.621 1479.17 344.901 1458.53C449.793 1412.56 559.963 1390.15 671.313 1384.77C795.989 1378.74 921.81 1395.55 1046.99 1411.48C1088.74 1416.7 1130.37 1421.55 1171.95 1424.9C1317.13 1436.49 1456.59 1432.95 1592.25 1400.26C1781.68 1354.68 1959.77 1256.84 2098.3 1127.62C2148.05 1081.47 2194.55 1030.64 2235.13 976.371C2252.53 953.108 2269.57 928.418 2285.72 902.993C2320.41 848.087 2351.5 786.922 2366.49 727.133" stroke="url(#paint13_linear_37_105)" stroke-width="3.1732" stroke-miterlimit="10"/>
<path d="M-916.012 2443.18C-803.728 2435.97 -665.783 2432.33 -548.225 2387.57C-452.647 2351.18 -370.203 2303.73 -314.626 2223.08C-234.219 2106.39 -174.753 1967.86 -92.1984 1835.91C-20.5911 1721.46 80.094 1598.1 203.191 1519.42C246.497 1491.82 291.942 1467.63 339.499 1447.09C444.829 1401.39 555.573 1379.04 667.491 1373.62C792.79 1367.56 919.165 1384.31 1044.92 1399.19C1086.91 1404.07 1128.77 1408.47 1170.6 1411.25C1316.64 1420.88 1456.52 1414.08 1591.72 1378.36C1780.53 1328.54 1956.49 1226.64 2092.09 1094.3C2140.76 1047.05 2186.22 995.183 2225.73 940.051C2242.71 916.366 2259.27 891.329 2274.94 865.604C2308.59 810.018 2338.64 748.234 2352.62 687.954" stroke="url(#paint14_linear_37_105)" stroke-width="3.1732" stroke-miterlimit="10"/>
<path d="M-894.702 2465.27C-781.572 2452.59 -646.105 2443.77 -531.898 2392.88C-440.088 2351.96 -361.843 2300.73 -309.214 2218.1C-233.555 2099.29 -177.619 1959.88 -97.2977 1826.97C-27.4569 1711.4 73.3459 1586.41 196.952 1507.85C240.543 1480.23 286.276 1456.09 334.11 1435.64C439.864 1390.21 551.197 1367.94 663.67 1362.49C789.578 1356.38 916.519 1373.08 1042.85 1386.91C1085.07 1391.45 1127.18 1395.41 1169.23 1397.62C1316.11 1405.27 1456.44 1395.23 1591.19 1356.47C1779.36 1302.42 1953.22 1196.46 2085.89 1060.98C2133.49 1012.64 2177.89 959.739 2216.34 903.718C2232.89 879.612 2248.98 854.227 2264.15 828.203C2296.76 771.939 2325.79 709.545 2338.77 648.762" stroke="url(#paint15_linear_37_105)" stroke-width="3.1732" stroke-miterlimit="10"/>
<path d="M-873.393 2487.36C-759.43 2469.21 -626.382 2455.3 -515.571 2398.19C-427.5 2352.8 -353.456 2297.74 -303.789 2213.1C-232.836 2092.19 -180.474 1951.89 -102.385 1818.01C-34.3113 1701.31 66.6095 1574.71 190.725 1496.26C234.586 1468.62 280.636 1444.54 328.733 1424.17C434.926 1379.03 546.833 1356.82 659.874 1351.33C786.391 1345.19 913.885 1361.82 1040.79 1374.62C1083.25 1378.81 1125.59 1382.34 1167.89 1383.97C1315.63 1389.64 1456.36 1376.35 1590.69 1334.55C1778.21 1276.27 1949.97 1166.25 2079.7 1027.64C2126.23 978.202 2169.57 924.26 2206.98 867.372C2223.11 842.844 2238.72 817.111 2253.41 790.787C2284.98 733.856 2312.97 670.832 2324.95 609.556" stroke="url(#paint16_linear_37_105)" stroke-width="3.1732" stroke-miterlimit="10"/>
<path d="M-852.084 2509.43C-737.289 2485.82 -606.628 2466.87 -499.257 2403.51C-414.88 2353.7 -345.067 2294.77 -298.391 2208.1C-232.13 2085.1 -183.368 1943.91 -107.512 1809.05C-41.2191 1691.23 59.8328 1563 184.472 1484.68C228.618 1457.01 274.955 1432.99 323.329 1412.7C429.947 1367.83 542.441 1345.68 656.051 1340.16C783.177 1333.98 911.238 1350.55 1038.72 1362.31C1081.41 1366.15 1123.98 1369.23 1166.52 1370.31C1315.12 1373.99 1456.28 1357.46 1590.15 1312.64C1777.04 1250.13 1946.68 1136.05 2073.48 994.293C2118.94 943.755 2161.22 888.783 2197.58 831.017C2213.28 806.067 2228.42 779.987 2242.61 753.363C2273.15 695.754 2300.11 632.121 2311.06 570.342" stroke="url(#paint17_linear_37_105)" stroke-width="3.1732" stroke-miterlimit="10"/>
<path d="M-830.775 2531.52C-715.146 2502.45 -586.801 2478.52 -482.931 2408.82C-402.203 2354.66 -336.638 2291.8 -292.966 2203.11C-231.356 2078.02 -186.236 1935.91 -112.598 1800.1C-48.0995 1681.15 53.0982 1551.31 178.247 1473.1C222.676 1445.42 269.302 1421.44 317.954 1401.25C425.009 1356.65 538.079 1334.58 652.243 1329.02C779.978 1322.81 908.592 1339.32 1036.66 1350.03C1079.58 1353.53 1122.41 1356.17 1165.18 1356.68C1314.64 1358.39 1456.22 1338.6 1589.64 1290.74C1775.9 1224 1943.44 1105.86 2067.29 960.98C2111.68 909.354 2152.9 853.339 2188.22 794.694C2203.49 769.324 2218.15 742.895 2231.86 715.983C2261.36 657.707 2287.29 593.443 2297.25 531.171" stroke="url(#paint18_linear_37_105)" stroke-width="3.1732" stroke-miterlimit="10"/>
<path d="M-809.465 2553.61C-693.003 2519.08 -566.904 2490.21 -466.617 2414.13C-389.497 2355.63 -328.208 2288.83 -287.566 2198.12C-230.581 2070.95 -189.144 1927.92 -117.711 1791.16C-54.9929 1671.08 46.336 1539.62 171.994 1461.51C216.707 1433.81 263.636 1409.89 312.551 1389.79C420.031 1345.47 533.688 1323.46 648.421 1317.87C776.765 1311.61 905.946 1328.07 1034.59 1337.73C1077.74 1340.89 1120.8 1343.08 1163.82 1343.02C1314.11 1342.75 1456.14 1319.72 1589.1 1268.83C1774.72 1197.86 1940.14 1075.66 2061.06 927.646C2104.36 874.92 2144.54 817.874 2178.8 758.352C2193.65 732.559 2207.83 705.783 2221.06 678.57C2249.53 619.616 2274.42 554.731 2283.38 491.968" stroke="url(#paint19_linear_37_105)" stroke-width="3.1732" stroke-miterlimit="10"/>
<path d="M-788.155 2575.7C-670.848 2535.7 -546.923 2501.94 -450.289 2419.46C-376.707 2356.65 -319.737 2285.87 -282.14 2193.13C-229.738 2063.89 -192.024 1919.95 -122.797 1782.21C-61.874 1660.99 39.6007 1527.92 165.783 1449.94C210.766 1422.21 257.996 1398.35 307.189 1378.34C415.107 1334.3 529.339 1312.36 644.641 1306.73C773.606 1300.43 903.341 1316.84 1032.54 1325.46C1075.94 1328.27 1119.24 1330.02 1162.49 1329.4C1313.64 1327.16 1456.08 1300.87 1588.61 1246.96C1773.6 1171.75 1936.91 1045.5 2054.9 894.343C2097.13 840.529 2136.24 782.429 2169.45 722.052C2183.87 695.838 2197.6 668.702 2210.32 641.202C2237.75 581.581 2261.6 516.077 2269.57 452.809" stroke="url(#paint20_linear_37_105)" stroke-width="3.1732" stroke-miterlimit="10"/>
<path d="M-766.846 2597.77C-648.706 2552.32 -526.86 2513.68 -433.976 2424.76C-363.877 2357.65 -311.254 2282.89 -276.729 2188.13C-228.896 2056.8 -194.92 1911.94 -127.911 1773.25C-68.782 1650.91 32.8381 1516.23 159.529 1438.35C204.796 1410.6 252.316 1386.8 301.786 1366.88C410.127 1323.11 524.948 1301.24 640.804 1295.57C770.379 1289.23 900.667 1305.59 1030.46 1313.16C1074.09 1315.63 1117.62 1316.94 1161.12 1315.75C1313.13 1311.53 1455.99 1282.01 1588.08 1225.04C1772.43 1145.61 1933.64 1015.28 2048.69 861.008C2089.84 806.093 2127.88 746.963 2160.07 685.708C2174.05 659.073 2187.31 631.588 2199.55 603.788C2225.93 543.489 2248.77 477.364 2255.71 413.605" stroke="url(#paint21_linear_37_105)" stroke-width="3.1732" stroke-miterlimit="10"/>
<path d="M-745.537 2619.86C-626.564 2568.95 -506.727 2525.45 -417.65 2430.07C-350.965 2358.67 -302.73 2279.91 -271.318 2183.13C-228.014 2049.72 -197.829 1903.94 -133.012 1764.29C-75.6913 1640.81 26.088 1504.52 153.289 1426.77C198.84 1399 246.662 1375.24 296.395 1355.42C405.175 1311.92 520.571 1290.13 636.996 1284.43C767.179 1278.05 898.034 1294.35 1028.4 1300.87C1072.27 1302.99 1116.04 1303.86 1159.77 1302.11C1312.63 1295.91 1455.92 1263.14 1587.55 1203.14C1771.26 1119.48 1930.36 985.089 2042.47 827.674C2082.55 771.658 2119.53 711.498 2150.66 649.364C2164.23 622.308 2177 594.475 2188.75 566.376C2214.1 505.41 2235.89 438.654 2241.84 374.402" stroke="url(#paint22_linear_37_105)" stroke-width="3.1732" stroke-miterlimit="10"/>
<path d="M-724.227 2641.95C-604.422 2585.56 -486.5 2537.2 -401.322 2435.38C-337.999 2359.68 -294.192 2276.94 -265.892 2178.14C-227.089 2042.65 -200.738 1895.94 -138.098 1755.35C-82.5856 1630.73 19.3534 1492.83 147.078 1415.19C192.899 1387.39 241.022 1363.69 291.033 1343.96C400.238 1300.75 516.221 1279.01 633.214 1273.28C764.007 1266.87 895.428 1283.09 1026.35 1288.59C1070.46 1290.37 1114.47 1290.8 1158.44 1288.47C1312.15 1280.29 1455.86 1244.27 1587.06 1181.24C1770.15 1093.34 1927.12 954.894 2036.31 794.347C2075.32 737.243 2111.22 676.03 2141.31 613.029C2154.45 585.54 2166.75 557.371 2178.02 528.971C2202.34 467.326 2223.1 399.962 2228.03 335.207" stroke="url(#paint23_linear_37_105)" stroke-width="3.1732" stroke-miterlimit="10"/>
<path d="M-702.932 2664.03C-582.293 2602.18 -466.22 2548.94 -385.023 2440.69C-325.007 2360.68 -285.655 2273.97 -260.507 2173.15C-226.18 2035.56 -203.674 1887.95 -143.239 1746.39C-89.5487 1620.63 12.5632 1481.13 140.797 1403.61C186.902 1375.79 235.315 1352.14 285.603 1332.51C395.232 1289.56 511.803 1267.89 629.351 1262.13C760.752 1255.67 892.727 1271.84 1024.24 1276.29C1068.57 1277.73 1112.84 1277.71 1157.03 1274.82C1311.6 1264.66 1455.74 1225.39 1586.49 1159.33C1768.94 1067.21 1923.8 924.704 2030.05 761.015C2067.99 702.811 2102.81 640.568 2131.88 576.687C2144.58 548.777 2156.43 520.259 2167.2 491.56C2190.48 429.237 2210.21 361.253 2214.14 296.006" stroke="url(#paint24_linear_37_105)" stroke-width="3.1732" stroke-miterlimit="10"/>
<path d="M-681.623 2686.12C-560.137 2618.81 -445.859 2560.67 -368.695 2446.01C-311.934 2361.66 -277.077 2270.98 -255.082 2168.15C-225.203 2028.46 -206.582 1879.95 -148.324 1737.44C-96.4556 1610.56 5.82813 1469.43 134.572 1392.03C180.962 1364.2 229.662 1340.6 280.228 1321.05C390.295 1278.39 507.441 1256.79 625.557 1250.99C757.567 1244.5 890.109 1260.61 1022.2 1264.01C1066.76 1265.1 1111.26 1264.65 1155.71 1261.19C1311.13 1249.05 1455.69 1206.53 1585.99 1137.44C1767.8 1041.08 1920.56 894.52 2023.86 727.702C2060.73 668.409 2094.48 605.113 2122.51 540.366C2134.77 512.034 2146.15 483.168 2156.43 454.181C2178.67 391.191 2197.38 322.575 2200.3 256.836" stroke="url(#paint25_linear_37_105)" stroke-width="3.1732" stroke-miterlimit="10"/>
<path d="M-660.313 2708.2C-537.995 2635.43 -425.431 2572.37 -352.382 2451.32C-298.849 2362.62 -268.499 2267.99 -249.684 2163.15C-224.227 2021.34 -209.532 1871.95 -153.438 1728.49C-103.392 1600.47 -0.934625 1457.73 128.318 1380.44C174.991 1352.57 223.995 1329.04 274.823 1309.58C385.315 1267.2 503.049 1245.66 621.72 1239.82C754.339 1233.29 887.448 1249.35 1020.1 1251.7C1064.9 1252.45 1109.64 1251.55 1154.31 1247.52C1310.58 1233.41 1455.58 1187.65 1585.43 1115.52C1766.61 1014.93 1917.25 864.305 2017.63 694.357C2053.41 633.964 2085.96 569.587 2113.09 504.011C2124.87 475.239 2135.83 446.045 2145.63 416.757C2166.84 353.088 2184.5 283.865 2186.42 217.622" stroke="url(#paint26_linear_37_105)" stroke-width="3.1732" stroke-miterlimit="10"/>
<path d="M-639.003 2730.29C-515.852 2652.06 -404.965 2584.04 -336.054 2456.64C-285.71 2363.56 -259.881 2265 -244.257 2158.18C-223.21 2014.23 -212.729 1863.89 -158.537 1719.55C-110.574 1590.33 -7.68237 1446.05 122.094 1368.87C169.037 1340.99 218.343 1317.51 269.449 1298.14C380.378 1256.03 498.674 1234.57 617.927 1228.7C751.169 1222.13 884.817 1238.13 1018.05 1239.44C1063.09 1239.85 1108.07 1238.5 1152.99 1233.92C1310.11 1217.83 1455.52 1168.81 1584.93 1093.65C1765.47 988.826 1914 834.134 2011.45 661.056C2046.15 599.562 2077.64 534.167 2103.73 467.712C2115.08 438.519 2125.57 408.965 2134.88 379.389C2155.04 315.054 2171.67 245.199 2172.58 178.464" stroke="url(#paint27_linear_37_105)" stroke-width="3.1732" stroke-miterlimit="10"/>
<path d="M-617.695 2752.37C-493.711 2668.68 -384.46 2595.67 -319.741 2461.95C-272.561 2364.46 -251.264 2261.98 -238.846 2153.17C-222.196 2007.08 -215.61 1855.9 -163.637 1710.59C-117.456 1580.24 -14.4321 1434.34 115.854 1357.29C163.081 1329.38 212.676 1305.96 264.059 1286.68C375.413 1244.85 494.297 1223.45 614.118 1217.54C747.969 1210.94 882.184 1226.87 1015.99 1227.14C1061.27 1227.2 1106.49 1225.41 1151.63 1220.26C1309.61 1202.2 1455.45 1149.93 1584.42 1071.74C1764.32 962.696 1910.75 803.94 2005.24 627.732C2038.88 565.15 2069.32 498.711 2094.35 431.38C2105.27 401.764 2115.29 371.862 2124.11 341.987C2143.23 276.973 2158.83 206.498 2158.74 139.271" stroke="url(#paint28_linear_37_105)" stroke-width="3.1732" stroke-miterlimit="10"/>
<path d="M-596.385 2774.46C-471.569 2685.3 -363.93 2607.29 -303.414 2467.26C-259.372 2365.34 -242.607 2258.95 -233.434 2148.17C-221.154 1999.92 -218.491 1847.92 -168.738 1701.63C-124.336 1570.17 -21.1811 1422.65 109.615 1345.7C157.126 1317.77 207.022 1294.4 258.669 1275.22C370.461 1233.66 489.92 1212.33 610.295 1206.38C744.755 1199.74 879.523 1215.62 1013.92 1214.84C1059.43 1214.55 1104.88 1212.33 1150.28 1206.6C1309.11 1186.55 1455.38 1131.04 1583.9 1049.82C1763.17 936.531 1907.48 773.723 1999.05 594.372C2031.61 530.689 2061 463.232 2084.97 395.011C2095.46 364.986 2105.01 334.724 2113.34 304.549C2131.44 238.868 2146 167.774 2144.91 100.043" stroke="url(#paint29_linear_37_105)" stroke-width="3.1732" stroke-miterlimit="10"/>
<path d="M-575.076 2796.55C-449.413 2701.93 -343.361 2618.85 -287.1 2472.58C-246.184 2366.2 -233.719 2255.95 -228.022 2143.18C-219.759 1992.78 -221.371 1839.95 -173.851 1692.69C-131.229 1560.11 -27.9438 1410.95 103.376 1334.13C151.157 1306.17 201.355 1282.86 253.28 1263.77C365.496 1222.48 485.543 1201.22 606.487 1195.25C741.556 1188.57 876.891 1204.38 1011.85 1202.56C1057.59 1201.93 1103.28 1199.27 1148.91 1192.97C1308.59 1170.95 1455.29 1112.18 1583.36 1027.92C1761.99 910.415 1904.19 743.542 1992.82 561.061C2024.31 496.29 2052.64 427.79 2075.57 358.691C2085.64 328.244 2094.71 297.635 2102.55 267.16C2119.6 200.802 2133.14 129.086 2131.03 60.864" stroke="url(#paint30_linear_37_105)" stroke-width="3.1732" stroke-miterlimit="10"/>
<path d="M-553.766 2818.63C-427.27 2718.56 -322.793 2630.41 -270.773 2477.89C-182.653 2219.54 -258.283 1943.4 -178.95 1683.74C-138.108 1550.05 -34.6918 1399.27 97.1369 1322.55C248.926 1234.22 424.872 1192.9 602.679 1184.1C784.386 1175.1 966.474 1206.41 1147.57 1179.34C1532 1121.87 1839.5 846.46 1986.64 527.749C2030.47 432.815 2067.78 330.295 2091.79 229.781C2107.81 162.755 2120.3 90.4086 2117.2 21.694" stroke="url(#paint31_linear_37_105)" stroke-width="3.1732" stroke-miterlimit="10"/>
<defs>
<linearGradient id="paint0_linear_37_105" x1="645.714" y1="1353.32" x2="701.237" y2="2257.81" gradientUnits="userSpaceOnUse">
<stop stop-color="#137049"/>
<stop offset="1" stop-color="#25D68B"/>
</linearGradient>
<linearGradient id="paint1_linear_37_105" x1="647.5" y1="1313.16" x2="705.434" y2="2256.94" gradientUnits="userSpaceOnUse">
<stop stop-color="#137049"/>
<stop offset="1" stop-color="#25D68B"/>
</linearGradient>
<linearGradient id="paint2_linear_37_105" x1="649.293" y1="1273" x2="709.668" y2="2256.54" gradientUnits="userSpaceOnUse">
<stop stop-color="#137049"/>
<stop offset="1" stop-color="#25D68B"/>
</linearGradient>
<linearGradient id="paint3_linear_37_105" x1="651.082" y1="1232.87" x2="713.931" y2="2256.72" gradientUnits="userSpaceOnUse">
<stop stop-color="#137049"/>
<stop offset="1" stop-color="#25D68B"/>
</linearGradient>
<linearGradient id="paint4_linear_37_105" x1="652.875" y1="1192.72" x2="718.24" y2="2257.54" gradientUnits="userSpaceOnUse">
<stop stop-color="#137049"/>
<stop offset="1" stop-color="#25D68B"/>
</linearGradient>
<linearGradient id="paint5_linear_37_105" x1="654.66" y1="1152.54" x2="722.589" y2="2259.15" gradientUnits="userSpaceOnUse">
<stop stop-color="#137049"/>
<stop offset="1" stop-color="#25D68B"/>
</linearGradient>
<linearGradient id="paint6_linear_37_105" x1="656.454" y1="1112.39" x2="727.006" y2="2261.72" gradientUnits="userSpaceOnUse">
<stop stop-color="#137049"/>
<stop offset="1" stop-color="#25D68B"/>
</linearGradient>
<linearGradient id="paint7_linear_37_105" x1="658.242" y1="1072.26" x2="731.49" y2="2265.5" gradientUnits="userSpaceOnUse">
<stop stop-color="#137049"/>
<stop offset="1" stop-color="#25D68B"/>
</linearGradient>
<linearGradient id="paint8_linear_37_105" x1="660.029" y1="1032.11" x2="736.07" y2="2270.86" gradientUnits="userSpaceOnUse">
<stop stop-color="#137049"/>
<stop offset="1" stop-color="#25D68B"/>
</linearGradient>
<linearGradient id="paint9_linear_37_105" x1="661.829" y1="991.945" x2="740.762" y2="2277.81" gradientUnits="userSpaceOnUse">
<stop stop-color="#137049"/>
<stop offset="1" stop-color="#25D68B"/>
</linearGradient>
<linearGradient id="paint10_linear_37_105" x1="663.623" y1="951.804" x2="745.539" y2="2286.26" gradientUnits="userSpaceOnUse">
<stop stop-color="#137049"/>
<stop offset="1" stop-color="#25D68B"/>
</linearGradient>
<linearGradient id="paint11_linear_37_105" x1="665.389" y1="911.653" x2="750.392" y2="2296.38" gradientUnits="userSpaceOnUse">
<stop stop-color="#137049"/>
<stop offset="1" stop-color="#25D68B"/>
</linearGradient>
<linearGradient id="paint12_linear_37_105" x1="667.188" y1="871.476" x2="755.394" y2="2308.39" gradientUnits="userSpaceOnUse">
<stop stop-color="#137049"/>
<stop offset="1" stop-color="#25D68B"/>
</linearGradient>
<linearGradient id="paint13_linear_37_105" x1="668.989" y1="831.335" x2="760.532" y2="2322.62" gradientUnits="userSpaceOnUse">
<stop stop-color="#137049"/>
<stop offset="1" stop-color="#25D68B"/>
</linearGradient>
<linearGradient id="paint14_linear_37_105" x1="670.77" y1="791.195" x2="765.843" y2="2339.99" gradientUnits="userSpaceOnUse">
<stop stop-color="#137049"/>
<stop offset="1" stop-color="#25D68B"/>
</linearGradient>
<linearGradient id="paint15_linear_37_105" x1="672.557" y1="751.043" x2="771.507" y2="2362.99" gradientUnits="userSpaceOnUse">
<stop stop-color="#137049"/>
<stop offset="1" stop-color="#25D68B"/>
</linearGradient>
<linearGradient id="paint16_linear_37_105" x1="674.363" y1="710.877" x2="777.193" y2="2386.03" gradientUnits="userSpaceOnUse">
<stop stop-color="#137049"/>
<stop offset="1" stop-color="#25D68B"/>
</linearGradient>
<linearGradient id="paint17_linear_37_105" x1="676.135" y1="670.702" x2="782.845" y2="2409.07" gradientUnits="userSpaceOnUse">
<stop stop-color="#137049"/>
<stop offset="1" stop-color="#25D68B"/>
</linearGradient>
<linearGradient id="paint18_linear_37_105" x1="677.943" y1="630.573" x2="788.532" y2="2432.12" gradientUnits="userSpaceOnUse">
<stop stop-color="#137049"/>
<stop offset="1" stop-color="#25D68B"/>
</linearGradient>
<linearGradient id="paint19_linear_37_105" x1="679.723" y1="590.409" x2="794.192" y2="2455.17" gradientUnits="userSpaceOnUse">
<stop stop-color="#137049"/>
<stop offset="1" stop-color="#25D68B"/>
</linearGradient>
<linearGradient id="paint20_linear_37_105" x1="681.532" y1="550.291" x2="799.878" y2="2478.21" gradientUnits="userSpaceOnUse">
<stop stop-color="#137049"/>
<stop offset="1" stop-color="#25D68B"/>
</linearGradient>
<linearGradient id="paint21_linear_37_105" x1="683.318" y1="510.127" x2="805.544" y2="2501.25" gradientUnits="userSpaceOnUse">
<stop stop-color="#137049"/>
<stop offset="1" stop-color="#25D68B"/>
</linearGradient>
<linearGradient id="paint22_linear_37_105" x1="685.097" y1="469.963" x2="811.203" y2="2524.3" gradientUnits="userSpaceOnUse">
<stop stop-color="#137049"/>
<stop offset="1" stop-color="#25D68B"/>
</linearGradient>
<linearGradient id="paint23_linear_37_105" x1="686.911" y1="429.809" x2="816.897" y2="2547.35" gradientUnits="userSpaceOnUse">
<stop stop-color="#137049"/>
<stop offset="1" stop-color="#25D68B"/>
</linearGradient>
<linearGradient id="paint24_linear_37_105" x1="688.67" y1="389.647" x2="822.535" y2="2570.39" gradientUnits="userSpaceOnUse">
<stop stop-color="#137049"/>
<stop offset="1" stop-color="#25D68B"/>
</linearGradient>
<linearGradient id="paint25_linear_37_105" x1="690.465" y1="349.518" x2="828.209" y2="2593.43" gradientUnits="userSpaceOnUse">
<stop stop-color="#137049"/>
<stop offset="1" stop-color="#25D68B"/>
</linearGradient>
<linearGradient id="paint26_linear_37_105" x1="692.243" y1="309.343" x2="833.868" y2="2616.48" gradientUnits="userSpaceOnUse">
<stop stop-color="#137049"/>
<stop offset="1" stop-color="#25D68B"/>
</linearGradient>
<linearGradient id="paint27_linear_37_105" x1="694.039" y1="269.225" x2="839.542" y2="2639.53" gradientUnits="userSpaceOnUse">
<stop stop-color="#137049"/>
<stop offset="1" stop-color="#25D68B"/>
</linearGradient>
<linearGradient id="paint28_linear_37_105" x1="695.833" y1="229.073" x2="845.214" y2="2662.57" gradientUnits="userSpaceOnUse">
<stop stop-color="#137049"/>
<stop offset="1" stop-color="#25D68B"/>
</linearGradient>
<linearGradient id="paint29_linear_37_105" x1="697.631" y1="188.884" x2="850.893" y2="2685.62" gradientUnits="userSpaceOnUse">
<stop stop-color="#137049"/>
<stop offset="1" stop-color="#25D68B"/>
</linearGradient>
<linearGradient id="paint30_linear_37_105" x1="699.405" y1="148.745" x2="856.546" y2="2708.66" gradientUnits="userSpaceOnUse">
<stop stop-color="#137049"/>
<stop offset="1" stop-color="#25D68B"/>
</linearGradient>
<linearGradient id="paint31_linear_37_105" x1="701.206" y1="108.615" x2="862.226" y2="2731.71" gradientUnits="userSpaceOnUse">
<stop stop-color="#137049"/>
<stop offset="1" stop-color="#25D68B"/>
</linearGradient>
</defs>
</svg>
