<svg width="41" height="41" viewBox="0 0 41 41" fill="none" xmlns="http://www.w3.org/2000/svg">
<circle cx="20.5" cy="20.5" r="20.5" fill="url(#paint0_linear_13_36)"/>
<path d="M40.9999 20.5C41.0046 21.101 40.8219 21.6884 40.4774 22.1808C40.1329 22.6731 39.6435 23.0459 39.0775 23.2472L27.4622 27.4724L23.2401 39.0894C23.032 39.6502 22.6573 40.1338 22.1664 40.4754C21.6754 40.8169 21.0918 41 20.4938 41C19.8957 41 19.3121 40.8169 18.8211 40.4754C18.3302 40.1338 17.9555 39.6502 17.7474 39.0894L13.5253 27.4706L1.91005 23.2472C1.34942 23.039 0.865901 22.6642 0.524458 22.1731C0.183015 21.682 0 21.0982 0 20.5C0 19.9018 0.183015 19.318 0.524458 18.8269C0.865901 18.3358 1.34942 17.961 1.91005 17.7528L13.5253 13.5294L17.7474 1.91063C17.9555 1.34983 18.3302 0.866165 18.8211 0.524618C19.3121 0.183071 19.8957 0 20.4938 0C21.0918 0 21.6754 0.183071 22.1664 0.524618C22.6573 0.866165 23.032 1.34983 23.2401 1.91063L27.464 13.5294L39.0775 17.7528C39.6435 17.9541 40.1329 18.3269 40.4774 18.8192C40.8219 19.3116 41.0046 19.899 40.9999 20.5Z" fill="black"/>
<defs>
<linearGradient id="paint0_linear_13_36" x1="20.5" y1="0" x2="20.5" y2="41" gradientUnits="userSpaceOnUse">
<stop stop-color="#76F4B0"/>
<stop offset="1" stop-color="#18D1EF"/>
</linearGradient>
</defs>
</svg>
