<svg width="1920" height="2137" viewBox="0 0 1920 2137" fill="none" xmlns="http://www.w3.org/2000/svg">
<path d="M2051.5 1536.83C2044.68 1405.88 1937.14 1174.08 1772.14 1146.93C1652.55 1127.23 1524.84 1143.87 1400.47 1152.46C1260.61 1162.12 1116.54 1170.45 985.192 1142.29C824.607 1107.87 729.56 1014.71 661.926 903.629C609.195 817.038 569.322 723.866 491.42 649.561C376.328 539.767 192.981 469.518 0.586829 462.077C-66.4307 459.482 -148.93 464.646 -215.576 483.758" stroke="url(#paint0_linear_109_87)" stroke-width="3.1732" stroke-miterlimit="10"/>
<path d="M2055.04 1518.81C2048.27 1458.42 2019.26 1376.34 1972.09 1305.45C1919.98 1227.12 1846.86 1161.48 1757.35 1150.21C1670.66 1139.28 1580 1145.36 1488.79 1153.69C1450.61 1157.16 1412.26 1160.98 1374.17 1164.05C1297.34 1170.2 1219.11 1175.63 1142.74 1174.97C1074.98 1174.37 1008.49 1169.21 945.043 1156.01C888.915 1144.35 840.548 1125.89 798.441 1102.26C716.796 1056.43 658.782 991.073 612.07 918.577C605.134 907.835 598.387 897 591.726 886.124C545.111 810.185 502.804 732.542 431.077 669.798C345.529 595.03 225.54 540.619 92.6412 514.076C37.1933 502.97 -20.6185 496.697 -79.1613 495.793C-98.3633 495.51 -118.758 495.818 -139.665 496.85C-194.183 499.542 -252.355 507.17 -301.972 521.949" stroke="url(#paint1_linear_109_87)" stroke-width="3.1732" stroke-miterlimit="10"/>
<path d="M2059.05 1500.62C2048.42 1442.14 2016.59 1362.92 1967.23 1295.9C1912.71 1221.88 1839.08 1160.83 1749.43 1151.91C1663.03 1143.33 1572.91 1150.68 1481.78 1160C1443.71 1163.85 1405.33 1168 1367.12 1171.3C1290.13 1177.93 1211.57 1183.48 1135.3 1182.49C1067.51 1181.59 1001.12 1175.96 937.855 1162.36C881.959 1150.37 833.702 1131.66 791.634 1107.82C710.086 1061.62 652.011 996.078 604.155 924.163C597.035 913.49 590.077 902.746 583.188 891.978C534.858 816.74 490.001 740.723 416.471 679.847C328.682 607.291 207.263 555.486 73.8337 531.428C18.2243 521.346 -39.7083 516.043 -98.2454 516.017C-117.476 516.031 -137.838 516.63 -158.675 517.93C-213.045 521.336 -271.003 529.644 -320.374 545.007" stroke="url(#paint2_linear_109_87)" stroke-width="3.1732" stroke-miterlimit="10"/>
<path d="M2063.07 1482.43C2048.57 1425.85 2013.96 1349.51 1962.38 1286.33C1905.47 1216.64 1831.36 1160.15 1741.53 1153.62C1655.45 1147.36 1565.86 1155.99 1474.82 1166.31C1436.85 1170.55 1398.43 1175.02 1360.11 1178.56C1282.98 1185.66 1204.08 1191.33 1127.91 1190.02C1060.09 1188.8 993.803 1182.72 930.721 1168.71C875.056 1156.39 826.91 1137.42 784.884 1113.39C703.421 1066.82 645.297 1001.11 596.296 929.757C588.993 919.162 581.834 908.505 574.697 897.851C524.661 823.311 477.246 748.93 401.91 689.908C311.878 619.563 189.021 570.366 55.0625 548.801C-0.710071 539.735 -58.7533 535.401 -117.295 536.255C-136.544 536.564 -156.883 537.455 -177.66 539.025C-231.872 543.145 -289.616 552.131 -338.742 568.079" stroke="url(#paint3_linear_109_87)" stroke-width="3.1732" stroke-miterlimit="10"/>
<path d="M2067.09 1464.24C2048.71 1409.57 2011.33 1336.11 1957.53 1276.78C1898.25 1211.43 1823.66 1159.47 1733.62 1155.33C1647.87 1151.39 1558.79 1161.32 1467.83 1172.64C1429.97 1177.27 1391.51 1182.04 1353.1 1185.82C1275.81 1193.4 1196.59 1199.19 1120.5 1197.55C1052.65 1196.02 986.455 1189.49 923.565 1175.07C868.132 1162.42 820.107 1143.18 778.11 1118.95C696.744 1072.01 638.558 1006.12 588.414 935.349C580.928 924.831 573.559 914.265 566.192 903.713C514.441 829.873 464.475 757.119 387.325 699.959C295.054 631.833 170.756 585.236 36.2764 566.155C-19.6577 558.113 -77.8217 554.75 -136.347 556.479C-155.626 557.085 -175.923 558.257 -196.649 560.106C-250.722 564.943 -308.251 574.615 -357.131 591.148" stroke="url(#paint4_linear_109_87)" stroke-width="3.1732" stroke-miterlimit="10"/>
<path d="M2071.11 1446.06C2048.86 1393.29 2008.73 1322.73 1952.67 1267.23C1891.05 1206.21 1815.98 1158.78 1725.72 1157.04C1640.34 1155.4 1551.72 1166.64 1460.86 1178.96C1423.11 1183.97 1384.6 1189.06 1346.08 1193.09C1268.63 1201.14 1189.08 1207.05 1113.11 1205.08C1045.21 1203.24 979.128 1196.25 916.424 1181.43C861.233 1168.45 813.306 1148.95 771.36 1124.53C690.09 1077.22 631.843 1011.14 580.556 940.952C572.887 930.503 565.307 920.034 557.712 909.591C504.246 836.452 451.73 765.324 372.775 710.025C278.262 644.111 152.534 600.112 17.527 583.53C-38.5702 576.505 -96.8448 574.111 -155.375 576.72C-174.67 577.627 -194.946 579.086 -215.6 581.209C-269.524 586.769 -326.841 597.113 -375.465 614.228" stroke="url(#paint5_linear_109_87)" stroke-width="3.1732" stroke-miterlimit="10"/>
<path d="M2075.12 1427.87C2049.01 1377.01 2006.15 1309.36 1947.82 1257.67C1883.88 1201.01 1808.33 1158.07 1717.8 1158.75C1632.8 1159.39 1544.66 1172.1 1453.86 1185.27C1416.22 1190.73 1377.68 1196.07 1339.04 1200.34C1261.45 1208.87 1181.55 1214.9 1105.68 1212.6C1037.75 1210.45 971.768 1203.01 909.257 1187.78C854.298 1174.48 806.481 1154.71 764.577 1130.09C683.393 1082.41 625.095 1016.15 572.665 946.545C564.803 936.176 557.02 925.788 549.187 915.456C494.006 843.017 438.94 773.516 358.18 720.078C261.426 656.376 134.259 614.984 -1.27886 600.888C-57.5377 594.887 -115.933 593.464 -174.458 596.951C-193.771 598.152 -214.025 599.903 -234.619 602.297C-288.394 608.571 -345.497 619.594 -393.876 637.294" stroke="url(#paint6_linear_109_87)" stroke-width="3.1732" stroke-miterlimit="10"/>
<path d="M2079.14 1409.68C2049.15 1360.72 2003.59 1295.99 1942.95 1248.12C1876.72 1195.83 1800.68 1157.35 1709.89 1160.46C1625.3 1163.37 1537.6 1177.44 1446.88 1191.59C1409.35 1197.45 1370.76 1203.1 1332.02 1207.61C1254.26 1216.61 1174.04 1222.76 1098.28 1220.13C1030.31 1217.67 964.431 1209.77 902.102 1194.14C847.374 1180.5 799.668 1160.47 757.804 1135.66C676.717 1087.61 618.357 1021.16 564.774 952.14C556.729 941.848 548.736 931.551 540.673 921.32C483.786 849.58 426.16 781.708 343.596 730.13C244.61 668.637 116.004 629.854 -20.0629 618.25C-76.4833 613.272 -134.988 612.731 -193.518 617.185C-212.857 618.653 -233.071 620.723 -253.605 623.386C-307.232 630.376 -364.121 642.077 -412.255 660.362" stroke="url(#paint7_linear_109_87)" stroke-width="3.1732" stroke-miterlimit="10"/>
<path d="M2083.16 1391.49C2049.29 1344.43 2001.08 1282.63 1938.11 1238.56C1869.63 1190.64 1793.08 1156.6 1701.99 1162.16C1617.82 1167.31 1530.54 1182.77 1439.91 1197.9C1402.48 1204.15 1363.84 1210.12 1325 1214.87C1247.1 1224.34 1166.55 1230.61 1090.88 1227.65C1022.87 1224.88 957.092 1216.53 894.958 1200.49C840.462 1186.53 792.867 1166.25 751.042 1141.23C670.051 1092.81 611.631 1026.19 556.904 957.737C548.675 947.514 540.472 937.315 532.181 927.193C473.579 856.153 413.405 789.914 329.034 740.19C227.807 680.91 97.6829 644.947 -38.8357 635.615C-95.4509 631.749 -154.046 632.077 -212.559 637.413C-231.916 639.176 -252.109 641.532 -272.582 644.472C-326.059 652.184 -382.736 664.557 -430.624 683.427" stroke="url(#paint8_linear_109_87)" stroke-width="3.1732" stroke-miterlimit="10"/>
<path d="M2087.17 1373.31C2049.44 1328.15 1998.59 1269.27 1933.25 1229.01C1862.56 1185.46 1785.48 1155.84 1694.08 1163.88C1610.35 1171.25 1523.47 1188.12 1432.92 1204.23C1395.61 1210.88 1356.93 1217.14 1317.98 1222.14C1239.92 1232.09 1159.03 1238.48 1083.46 1235.2C1015.42 1232.12 949.748 1223.31 887.796 1206.86C833.542 1192.57 786.057 1172.02 744.263 1146.81C663.367 1098.02 604.887 1031.22 549.017 963.352C540.606 953.206 532.19 943.09 523.671 933.077C463.353 862.738 400.629 798.126 314.454 750.262C210.985 693.194 79.4368 659.857 -57.6155 652.997C-114.392 650.154 -173.1 651.444 -231.616 657.667C-251.001 659.727 -271.161 662.373 -291.564 665.581C-344.892 674.008 -401.356 687.061 -448.987 706.52" stroke="url(#paint9_linear_109_87)" stroke-width="3.1732" stroke-miterlimit="10"/>
<path d="M2091.19 1355.12C2049.59 1311.87 1996.16 1255.91 1928.4 1219.46C1855.56 1180.27 1777.91 1155.05 1686.17 1165.59C1602.89 1175.16 1516.42 1193.45 1425.94 1210.55C1388.73 1217.58 1350.01 1224.16 1310.96 1229.4C1232.74 1239.82 1151.53 1246.33 1076.06 1242.71C1007.98 1239.32 942.408 1230.06 880.65 1213.21C826.626 1198.58 779.252 1177.77 737.508 1152.37C656.699 1103.2 598.168 1036.22 541.153 968.926C532.559 958.857 523.932 948.832 515.175 938.93C453.142 869.29 387.867 806.305 299.89 760.309C194.169 705.455 61.1832 674.732 -76.3913 670.349C-133.328 668.537 -192.159 670.784 -250.67 677.885C-270.074 680.239 -290.201 683.176 -310.552 686.663C-363.733 695.805 -419.982 709.537 -467.368 729.58" stroke="url(#paint10_linear_109_87)" stroke-width="3.1732" stroke-miterlimit="10"/>
<path d="M2095.21 1336.93C2049.73 1295.58 1993.77 1242.54 1923.55 1209.89C1848.6 1175.05 1770.33 1154.23 1678.27 1167.29C1595.45 1179.04 1509.36 1198.77 1418.96 1216.86C1381.86 1224.28 1343.1 1231.16 1303.94 1236.65C1225.58 1247.55 1144.02 1254.18 1068.66 1250.23C1000.55 1246.53 935.078 1236.81 873.503 1219.55C819.711 1204.59 772.447 1183.53 730.743 1157.92C650.031 1108.39 591.438 1041.23 533.281 974.51C524.492 964.513 515.666 954.582 506.679 944.782C442.939 875.834 375.106 814.485 285.314 770.352C177.362 717.707 42.9497 689.603 -95.167 687.701C-152.265 686.913 -211.22 690.117 -269.712 698.107C-289.135 700.756 -309.239 703.985 -329.52 707.74C-382.551 717.605 -438.588 732.008 -485.729 752.636" stroke="url(#paint11_linear_109_87)" stroke-width="3.1732" stroke-miterlimit="10"/>
<path d="M2099.22 1318.74C2049.87 1279.3 1991.42 1229.16 1918.68 1200.35C1841.67 1169.84 1762.76 1153.41 1670.35 1169.01C1588 1182.91 1502.28 1204.1 1411.97 1223.18C1374.97 1231 1336.17 1238.19 1296.9 1243.92C1218.38 1255.29 1136.51 1262.04 1061.24 1257.76C993.094 1253.76 927.722 1243.58 866.341 1225.92C812.781 1210.63 765.626 1189.3 723.964 1163.51C643.348 1113.61 584.685 1046.27 525.394 980.124C516.423 970.204 507.395 960.362 498.169 950.666C432.714 882.419 362.33 822.696 270.734 780.423C160.54 729.99 24.7021 704.506 -113.948 705.076C-171.208 705.311 -230.284 709.486 -288.771 718.347C-308.223 721.293 -328.294 724.813 -348.515 728.838C-401.398 739.417 -457.221 754.499 -504.116 775.712" stroke="url(#paint12_linear_109_87)" stroke-width="3.1732" stroke-miterlimit="10"/>
<path d="M2103.24 1300.55C2050.03 1263.02 1989.13 1215.76 1913.84 1190.79C1834.82 1164.59 1755.21 1152.55 1662.46 1170.72C1580.58 1186.75 1495.14 1208.99 1405.01 1229.5C1368.16 1237.88 1329.27 1245.22 1289.9 1251.18C1211.23 1263.03 1129.01 1269.9 1053.84 1265.29C985.658 1260.97 920.395 1250.35 859.196 1232.27C805.868 1216.66 758.824 1195.07 717.201 1169.07C636.672 1118.8 577.957 1051.28 517.523 985.714C508.369 975.871 499.129 966.113 489.666 956.534C422.496 888.987 349.562 830.891 256.161 790.479C143.726 742.258 6.45015 719.388 -132.732 722.437C-190.144 723.693 -249.352 728.835 -307.832 738.58C-327.301 741.828 -347.352 745.626 -367.512 749.928C-420.246 761.223 -475.854 776.991 -522.495 798.779" stroke="url(#paint13_linear_109_87)" stroke-width="3.1732" stroke-miterlimit="10"/>
<path d="M2107.26 1282.37C2050.17 1246.74 1986.87 1202.32 1908.98 1181.24C1827.98 1159.32 1746.55 1147.67 1654.53 1172.43C1574.07 1194.08 1488.16 1214.75 1398 1235.83C1361.22 1244.42 1322.34 1252.24 1282.85 1258.45C1204.03 1270.77 1121.48 1277.76 1046.41 1272.82C978.192 1268.2 913.026 1257.11 852.022 1238.64C798.935 1222.69 752.002 1200.84 710.419 1174.64C629.986 1124 571.21 1056.3 509.633 991.316C500.295 981.543 490.846 971.881 481.153 962.405C412.267 895.558 336.785 839.096 241.578 800.537C126.911 754.526 -11.7918 734.268 -151.515 739.804C-209.088 742.085 -268.408 748.189 -326.893 758.814C-346.391 762.358 -366.399 766.445 -386.499 771.017C-439.083 783.033 -494.489 799.476 -540.873 821.853" stroke="url(#paint14_linear_109_87)" stroke-width="3.1732" stroke-miterlimit="10"/>
<path d="M2111.27 1264.18C2050.31 1230.45 1984.64 1188.85 1904.12 1171.68C1821.2 1154 1740.08 1150.76 1646.62 1174.14C1565.67 1194.39 1481.09 1220.08 1391.02 1242.14C1354.35 1251.13 1315.41 1259.26 1275.84 1265.71C1196.85 1278.5 1113.97 1285.62 1039.01 1280.35C970.756 1275.41 905.699 1263.87 844.877 1244.99C792.022 1228.71 745.199 1206.6 703.657 1180.21C623.319 1129.19 564.483 1061.31 501.753 996.915C492.233 987.218 482.572 977.648 472.651 968.28C402.05 902.134 324.018 847.298 227.006 810.6C110.099 766.807 -30.034 749.148 -170.296 757.179C-228.031 760.483 -287.472 767.558 -345.941 779.058C-365.457 782.898 -385.442 787.277 -405.481 792.126C-457.916 804.858 -513.109 821.979 -559.248 844.941" stroke="url(#paint15_linear_109_87)" stroke-width="3.1732" stroke-miterlimit="10"/>
<path d="M2115.29 1245.99C2050.46 1214.17 1982.45 1175.34 1899.27 1162.12C1814.45 1148.64 1732.51 1149.84 1638.72 1175.84C1558.22 1198.16 1474.04 1225.39 1384.04 1248.45C1347.47 1257.82 1308.51 1266.27 1268.82 1272.96C1189.69 1286.23 1106.48 1293.47 1031.61 1287.86C963.315 1282.62 898.358 1270.62 837.73 1251.33C785.107 1234.73 738.393 1212.35 696.892 1185.77C616.651 1134.38 557.755 1066.32 493.88 1002.5C484.176 992.872 474.304 983.391 464.145 974.135C391.839 908.687 311.246 855.48 212.429 820.643C93.2813 779.062 -48.281 764.008 -189.074 774.524C-246.96 778.85 -306.533 786.891 -364.995 799.276C-384.54 803.412 -404.492 808.082 -424.461 813.198C-476.748 826.646 -531.727 844.446 -577.62 867.993" stroke="url(#paint16_linear_109_87)" stroke-width="3.1732" stroke-miterlimit="10"/>
<path d="M2119.3 1227.8C2050.61 1197.89 1980.26 1161.8 1894.41 1152.57C1807.71 1143.25 1724.92 1148.9 1630.81 1177.56C1550.76 1201.94 1466.97 1230.72 1377.06 1254.78C1340.6 1264.54 1301.59 1273.3 1261.79 1280.24C1182.51 1293.98 1098.97 1301.34 1024.19 1295.41C955.862 1289.85 891.013 1277.4 830.568 1257.7C778.178 1240.77 731.574 1218.13 690.112 1191.35C609.957 1139.59 551.01 1071.35 485.991 1008.1C476.094 998.552 466.021 989.16 455.632 980.005C381.611 915.258 298.468 863.677 197.837 830.703C76.4471 791.334 -66.5341 778.883 -207.876 791.897C-265.926 797.239 -325.618 806.258 -384.076 819.514C-403.638 823.952 -423.56 828.898 -443.477 834.294C-495.616 848.456 -550.381 866.935 -596.019 891.064" stroke="url(#paint17_linear_109_87)" stroke-width="3.1732" stroke-miterlimit="10"/>
<path d="M2123.33 1209.62C2050.76 1181.61 1978.1 1148.22 1889.57 1143.02C1800.98 1137.82 1717.34 1147.93 1622.91 1179.26C1543.31 1205.68 1459.92 1236.02 1370.08 1261.09C1333.73 1271.23 1294.69 1280.32 1254.77 1287.49C1175.33 1301.71 1091.46 1309.18 1016.79 1302.93C948.425 1297.06 883.674 1284.15 823.413 1264.06C771.263 1246.79 724.761 1223.9 683.34 1196.92C603.282 1144.79 544.273 1076.37 478.111 1013.7C468.031 1004.23 457.747 994.927 447.131 985.881C371.394 921.834 285.701 871.88 183.267 840.773C59.6539 803.605 -84.7679 793.754 -226.639 809.261C-284.85 815.627 -344.663 825.617 -403.105 839.748C-422.696 844.483 -442.585 849.719 -462.432 855.383C-514.422 870.267 -568.974 889.418 -614.365 914.139" stroke="url(#paint18_linear_109_87)" stroke-width="3.1732" stroke-miterlimit="10"/>
<path d="M2127.34 1191.42C2050.9 1165.32 1975.91 1134.59 1884.7 1133.46C1794.24 1132.34 1709.71 1146.95 1614.99 1180.98C1535.81 1209.43 1452.84 1241.35 1363.09 1267.41C1326.85 1277.94 1287.75 1287.34 1247.74 1294.76C1168.15 1309.45 1083.94 1317.05 1009.37 1310.46C940.978 1304.28 876.327 1290.92 816.248 1270.41C764.33 1252.81 717.948 1229.66 676.567 1202.48C596.605 1149.99 537.534 1081.38 470.23 1019.29C459.966 1009.89 449.472 1000.69 438.626 991.741C361.174 928.395 272.932 880.075 168.692 850.822C42.8292 815.874 -103.013 808.62 -245.424 826.621C-303.788 834.001 -363.73 844.972 -422.168 859.973C-441.776 865.01 -461.643 870.532 -481.429 876.472C-533.27 892.072 -587.609 911.902 -632.754 937.208" stroke="url(#paint19_linear_109_87)" stroke-width="3.1732" stroke-miterlimit="10"/>
<path d="M2131.35 1173.24C2051.04 1149.04 1973.71 1120.94 1879.85 1123.91C1787.49 1126.84 1702.08 1145.95 1607.09 1182.68C1528.31 1213.15 1445.78 1246.65 1356.11 1273.72C1319.97 1284.63 1280.84 1294.35 1240.72 1302.02C1160.97 1317.18 1076.44 1324.9 1001.97 1317.98C933.54 1311.49 868.987 1297.67 809.103 1276.76C757.417 1258.84 711.144 1235.42 669.804 1208.05C589.938 1155.18 530.808 1086.4 462.359 1024.88C451.912 1015.56 441.206 1006.44 430.123 997.61C350.965 934.962 260.164 888.271 154.119 860.878C26.0148 828.142 -121.248 823.484 -264.196 843.987C-322.723 852.384 -382.783 864.34 -441.217 880.212C-460.853 885.545 -480.678 891.356 -500.404 897.566C-552.097 913.881 -606.221 934.39 -651.122 960.28" stroke="url(#paint20_linear_109_87)" stroke-width="3.1732" stroke-miterlimit="10"/>
<path d="M2135.37 1155.05C2051.2 1132.75 1971.5 1107.24 1875 1114.35C1780.71 1121.3 1694.42 1144.94 1599.17 1184.4C1520.79 1216.86 1438.71 1251.97 1349.13 1280.04C1313.1 1291.34 1273.93 1301.38 1233.71 1309.28C1153.81 1324.92 1068.94 1332.76 994.574 1325.51C926.104 1318.71 861.651 1304.44 801.959 1283.12C750.504 1264.86 704.342 1241.19 663.044 1213.62C583.263 1160.38 524.082 1091.42 454.491 1030.48C443.861 1021.24 432.944 1012.21 421.631 1003.48C340.759 941.535 247.407 896.47 139.558 870.938C9.2117 840.414 -139.495 838.343 -282.969 861.352C-341.649 870.764 -401.838 883.7 -460.268 900.443C-479.921 906.077 -499.725 912.174 -519.39 918.654C-570.933 935.691 -624.846 956.872 -669.491 983.345" stroke="url(#paint21_linear_109_87)" stroke-width="3.1732" stroke-miterlimit="10"/>
<path d="M2139.39 1136.87C2051.33 1116.47 1969.26 1093.52 1870.14 1104.8C1773.9 1115.75 1686.75 1143.93 1591.27 1186.11C1513.26 1220.58 1431.65 1257.28 1342.16 1286.36C1306.23 1298.04 1267.01 1308.4 1226.69 1316.54C1146.64 1332.65 1061.43 1340.61 987.164 1333.03C918.658 1325.93 854.312 1311.2 794.804 1289.47C743.591 1270.88 697.529 1246.95 656.27 1219.19C576.586 1165.57 517.344 1096.43 446.61 1036.08C435.786 1026.9 424.679 1017.96 413.129 1009.35C330.54 948.103 234.638 904.666 124.985 880.994C-7.6028 852.682 -157.731 853.2 -301.751 878.72C-360.595 889.149 -420.892 903.067 -479.317 920.681C-498.989 926.61 -518.771 932.993 -538.376 939.75C-589.77 957.502 -643.469 979.361 -687.868 1006.42" stroke="url(#paint22_linear_109_87)" stroke-width="3.1732" stroke-miterlimit="10"/>
<path d="M2143.41 1118.67C2051.49 1100.18 1966.99 1079.78 1865.3 1095.24C1767.07 1110.17 1679.05 1142.88 1583.37 1187.81C1505.71 1224.27 1424.59 1262.58 1335.17 1292.68C1299.35 1304.74 1260.1 1315.41 1219.66 1323.8C1139.45 1340.39 1053.92 1348.47 979.755 1340.56C911.211 1333.15 846.964 1317.96 787.651 1295.83C736.67 1276.92 690.717 1252.72 649.499 1224.76C569.911 1170.77 510.608 1101.45 438.729 1041.67C427.722 1032.57 416.404 1023.72 404.614 1015.21C320.321 954.665 221.86 912.863 110.402 891.053C-24.4272 864.952 -175.988 868.061 -320.536 896.081C-379.544 907.52 -439.957 922.43 -498.378 940.914C-518.077 947.147 -537.818 953.811 -557.362 960.838C-608.608 979.305 -662.092 1001.85 -706.246 1029.49" stroke="url(#paint23_linear_109_87)" stroke-width="3.1732" stroke-miterlimit="10"/>
<path d="M2147.42 1100.49C2051.63 1083.9 1964.68 1066.03 1860.43 1085.69C1760.19 1104.59 1671.32 1141.85 1575.46 1189.53C1498.14 1227.98 1417.51 1267.89 1328.19 1299C1292.47 1311.44 1253.18 1322.44 1212.64 1331.07C1132.28 1348.13 1046.41 1356.33 972.347 1348.09C903.765 1340.37 839.628 1324.73 780.497 1302.2C729.747 1282.95 683.916 1258.49 642.738 1230.33C563.237 1175.98 503.882 1106.48 430.85 1047.28C419.661 1038.25 408.13 1029.49 396.112 1021.09C310.102 961.234 209.091 921.059 95.8184 901.111C-41.2522 877.223 -194.286 882.737 -339.329 913.452C-398.507 925.829 -458.993 941.874 -517.449 961.15C-537.161 967.706 -556.885 974.635 -576.367 981.938C-627.464 1001.13 -680.735 1024.35 -724.644 1052.57" stroke="url(#paint24_linear_109_87)" stroke-width="3.1732" stroke-miterlimit="10"/>
<path d="M2151.43 1082.3C2051.77 1067.62 1961.7 1049.76 1855.58 1076.14C1753.89 1101.4 1663.57 1140.81 1567.54 1191.24C1490.54 1231.68 1410.43 1273.2 1321.2 1305.32C1285.59 1318.14 1246.27 1329.45 1205.61 1338.34C1125.09 1355.87 1038.9 1364.19 964.935 1355.62C896.318 1347.59 832.279 1331.49 773.341 1308.55C722.823 1288.97 677.102 1264.26 635.964 1235.9C556.56 1181.18 497.145 1111.49 422.969 1052.87C411.596 1043.92 399.855 1035.25 387.609 1026.96C299.883 967.803 196.324 929.262 81.2451 911.167C-58.0571 889.489 -212.532 897.603 -358.103 930.811C-417.443 944.211 -478.052 961.22 -536.49 981.379C-556.219 988.236 -575.921 995.451 -595.334 1003.02C-646.283 1022.93 -699.34 1046.82 -742.993 1075.63" stroke="url(#paint25_linear_109_87)" stroke-width="3.1732" stroke-miterlimit="10"/>
<path d="M2155.46 1064.11C2051.92 1051.34 1959.97 1038.51 1850.73 1066.58C1746.34 1093.4 1655.8 1139.76 1559.64 1192.94C1482.93 1235.37 1403.3 1278.38 1314.23 1311.63C1278.7 1324.79 1239.35 1336.47 1198.6 1345.59C1117.94 1363.6 1031.4 1372.03 957.535 1363.14C888.88 1354.79 824.948 1338.24 766.195 1314.89C715.908 1294.99 670.297 1270.01 629.199 1241.45C549.891 1186.36 490.415 1116.5 415.096 1058.45C403.54 1049.58 391.588 1041 379.113 1032.81C289.672 974.356 183.562 937.441 66.6804 921.214C-74.8633 901.747 -230.777 912.469 -376.868 948.167C-436.37 962.584 -497.088 980.569 -555.533 1001.6C-575.28 1008.75 -594.96 1016.26 -614.313 1024.1C-665.113 1044.72 -717.956 1069.3 -761.364 1098.69" stroke="url(#paint26_linear_109_87)" stroke-width="3.1732" stroke-miterlimit="10"/>
<path d="M2159.47 1045.92C2052.06 1035.05 1957.55 1024.74 1845.87 1057.02C1739.37 1087.81 1648.01 1138.7 1551.73 1194.66C1475.3 1239.07 1396.23 1283.71 1307.24 1317.96C1271.81 1331.5 1232.42 1343.5 1191.56 1352.86C1110.75 1371.34 1023.88 1379.89 950.117 1370.67C881.425 1362.02 817.593 1345.01 759.033 1321.26C708.988 1301.02 663.477 1275.79 622.421 1247.04C543.208 1191.57 483.671 1121.53 407.21 1064.07C395.461 1055.27 383.307 1046.78 370.594 1038.7C279.438 980.95 170.779 945.661 52.0921 931.295C-91.6916 914.047 -249.036 927.367 -395.667 965.553C-455.331 980.994 -516.17 999.95 -574.609 1021.86C-594.385 1029.31 -614.023 1037.1 -633.314 1045.22C-683.965 1066.56 -736.596 1091.8 -779.757 1121.79" stroke="url(#paint27_linear_109_87)" stroke-width="3.1732" stroke-miterlimit="10"/>
<path d="M2163.48 1027.74C2052.21 1018.77 1955.12 1010.98 1841.01 1047.47C1732.36 1082.22 1640.18 1137.66 1543.81 1196.36C1467.65 1242.76 1389.16 1289.02 1300.25 1324.27C1264.93 1338.2 1225.51 1350.51 1184.54 1360.12C1103.56 1379.08 1016.37 1387.75 942.706 1378.19C873.987 1369.23 810.254 1351.77 751.876 1327.61C702.064 1307.04 656.662 1281.54 615.646 1252.6C536.519 1196.76 476.931 1126.53 399.327 1069.65C387.394 1060.93 375.03 1052.53 362.088 1044.56C269.227 987.502 158.007 953.842 37.5161 941.337C-108.509 926.301 -267.292 942.228 -414.443 982.905C-474.27 999.362 -535.22 1019.29 -593.663 1042.08C-613.456 1049.83 -633.073 1057.9 -652.303 1066.3C-702.804 1088.35 -755.232 1114.28 -798.137 1144.85" stroke="url(#paint28_linear_109_87)" stroke-width="3.1732" stroke-miterlimit="10"/>
<path d="M2167.51 1009.55C2052.35 1002.48 1952.66 997.215 1836.16 1037.92C1725.34 1076.64 1632.36 1136.61 1535.91 1198.08C1459.99 1246.47 1382.09 1294.36 1293.28 1330.6C1258.07 1344.92 1218.6 1357.54 1177.52 1367.39C1096.4 1386.82 1008.87 1395.62 935.31 1385.73C866.554 1376.47 802.919 1358.54 744.736 1333.98C695.154 1313.08 649.875 1287.33 608.897 1258.18C529.867 1201.97 470.209 1131.57 391.47 1075.26C379.355 1066.61 366.78 1058.31 353.608 1050.44C259.032 994.081 145.262 962.048 22.9661 951.403C-125.301 938.579 -285.523 957.114 -433.204 1000.28C-493.193 1017.76 -554.263 1038.65 -612.69 1062.32C-632.503 1070.36 -652.096 1078.73 -671.256 1087.39C-721.61 1110.17 -773.824 1136.77 -816.473 1167.92" stroke="url(#paint29_linear_109_87)" stroke-width="3.1732" stroke-miterlimit="10"/>
<path d="M2171.52 991.365C2052.5 986.203 1950.17 983.467 1831.31 1028.36C1718.29 1071.06 1624.51 1135.56 1528 1199.79C1452.31 1250.16 1375.03 1299.67 1286.29 1336.91C1251.19 1351.62 1211.68 1364.55 1170.49 1374.64C1089.21 1394.55 1001.35 1403.46 927.888 1393.25C859.095 1383.67 795.569 1365.29 737.568 1340.32C688.218 1319.1 643.048 1293.08 602.113 1263.74C523.179 1207.16 463.459 1136.58 383.576 1080.84C371.278 1072.27 358.492 1064.05 345.082 1056.29C248.79 1000.64 132.47 970.234 8.36011 961.452C-142.148 950.839 -303.8 971.979 -452.01 1017.63C-512.16 1036.14 -573.341 1058 -631.773 1082.55C-651.613 1090.89 -671.164 1099.55 -690.274 1108.48C-740.479 1131.97 -792.47 1159.25 -834.884 1190.99" stroke="url(#paint30_linear_109_87)" stroke-width="3.1732" stroke-miterlimit="10"/>
<path d="M2175.54 973.171C2052.65 969.915 1947.67 969.705 1826.45 1018.8C1621.12 1101.97 1481.35 1256.09 1279.31 1343.22C1175.28 1388.09 1031.04 1416.66 920.487 1400.77C793.183 1382.48 684.388 1333.61 595.349 1269.3C504.358 1203.57 438.774 1119.46 336.588 1062.15C119.686 940.539 -199.446 947.167 -470.782 1035C-551.599 1061.16 -634.186 1093.27 -709.251 1129.57C-759.316 1153.78 -811.093 1181.74 -853.252 1214.06" stroke="url(#paint31_linear_109_87)" stroke-width="3.1732" stroke-miterlimit="10"/>
<defs>
<linearGradient id="paint0_linear_109_87" x1="755.34" y1="267.356" x2="1084.86" y2="1751.46" gradientUnits="userSpaceOnUse">
<stop stop-color="#25D68B"/>
<stop offset="1" stop-color="#137049"/>
</linearGradient>
<linearGradient id="paint1_linear_109_87" x1="716.331" y1="294.63" x2="1038.27" y2="1744.56" gradientUnits="userSpaceOnUse">
<stop stop-color="#25D68B"/>
<stop offset="1" stop-color="#137049"/>
</linearGradient>
<linearGradient id="paint2_linear_109_87" x1="712.097" y1="314.062" x2="1026.46" y2="1729.89" gradientUnits="userSpaceOnUse">
<stop stop-color="#25D68B"/>
<stop offset="1" stop-color="#137049"/>
</linearGradient>
<linearGradient id="paint3_linear_109_87" x1="708.524" y1="333.279" x2="1015.33" y2="1715.06" gradientUnits="userSpaceOnUse">
<stop stop-color="#25D68B"/>
<stop offset="1" stop-color="#137049"/>
</linearGradient>
<linearGradient id="paint4_linear_109_87" x1="705.033" y1="352.372" x2="1004.3" y2="1700.22" gradientUnits="userSpaceOnUse">
<stop stop-color="#25D68B"/>
<stop offset="1" stop-color="#137049"/>
</linearGradient>
<linearGradient id="paint5_linear_109_87" x1="701.557" y1="371.386" x2="993.304" y2="1685.36" gradientUnits="userSpaceOnUse">
<stop stop-color="#25D68B"/>
<stop offset="1" stop-color="#137049"/>
</linearGradient>
<linearGradient id="paint6_linear_109_87" x1="698.01" y1="390.276" x2="982.267" y2="1670.52" gradientUnits="userSpaceOnUse">
<stop stop-color="#25D68B"/>
<stop offset="1" stop-color="#137049"/>
</linearGradient>
<linearGradient id="paint7_linear_109_87" x1="694.456" y1="409.062" x2="971.245" y2="1655.67" gradientUnits="userSpaceOnUse">
<stop stop-color="#25D68B"/>
<stop offset="1" stop-color="#137049"/>
</linearGradient>
<linearGradient id="paint8_linear_109_87" x1="690.886" y1="427.729" x2="960.233" y2="1640.82" gradientUnits="userSpaceOnUse">
<stop stop-color="#25D68B"/>
<stop offset="1" stop-color="#137049"/>
</linearGradient>
<linearGradient id="paint9_linear_109_87" x1="687.288" y1="446.291" x2="949.216" y2="1625.97" gradientUnits="userSpaceOnUse">
<stop stop-color="#25D68B"/>
<stop offset="1" stop-color="#137049"/>
</linearGradient>
<linearGradient id="paint10_linear_109_87" x1="683.653" y1="464.689" x2="938.2" y2="1611.12" gradientUnits="userSpaceOnUse">
<stop stop-color="#25D68B"/>
<stop offset="1" stop-color="#137049"/>
</linearGradient>
<linearGradient id="paint11_linear_109_87" x1="679.991" y1="482.942" x2="927.187" y2="1596.27" gradientUnits="userSpaceOnUse">
<stop stop-color="#25D68B"/>
<stop offset="1" stop-color="#137049"/>
</linearGradient>
<linearGradient id="paint12_linear_109_87" x1="676.281" y1="501.048" x2="916.16" y2="1581.42" gradientUnits="userSpaceOnUse">
<stop stop-color="#25D68B"/>
<stop offset="1" stop-color="#137049"/>
</linearGradient>
<linearGradient id="paint13_linear_109_87" x1="672.54" y1="518.968" x2="905.144" y2="1566.57" gradientUnits="userSpaceOnUse">
<stop stop-color="#25D68B"/>
<stop offset="1" stop-color="#137049"/>
</linearGradient>
<linearGradient id="paint14_linear_109_87" x1="668.752" y1="536.696" x2="894.122" y2="1551.72" gradientUnits="userSpaceOnUse">
<stop stop-color="#25D68B"/>
<stop offset="1" stop-color="#137049"/>
</linearGradient>
<linearGradient id="paint15_linear_109_87" x1="664.913" y1="554.199" x2="883.099" y2="1536.87" gradientUnits="userSpaceOnUse">
<stop stop-color="#25D68B"/>
<stop offset="1" stop-color="#137049"/>
</linearGradient>
<linearGradient id="paint16_linear_109_87" x1="661.017" y1="571.397" x2="872.087" y2="1522.02" gradientUnits="userSpaceOnUse">
<stop stop-color="#25D68B"/>
<stop offset="1" stop-color="#137049"/>
</linearGradient>
<linearGradient id="paint17_linear_109_87" x1="657.043" y1="588.338" x2="861.056" y2="1507.18" gradientUnits="userSpaceOnUse">
<stop stop-color="#25D68B"/>
<stop offset="1" stop-color="#137049"/>
</linearGradient>
<linearGradient id="paint18_linear_109_87" x1="653.043" y1="605.02" x2="850.055" y2="1492.33" gradientUnits="userSpaceOnUse">
<stop stop-color="#25D68B"/>
<stop offset="1" stop-color="#137049"/>
</linearGradient>
<linearGradient id="paint19_linear_109_87" x1="648.956" y1="621.427" x2="839.027" y2="1477.47" gradientUnits="userSpaceOnUse">
<stop stop-color="#25D68B"/>
<stop offset="1" stop-color="#137049"/>
</linearGradient>
<linearGradient id="paint20_linear_109_87" x1="644.818" y1="637.559" x2="828.01" y2="1462.63" gradientUnits="userSpaceOnUse">
<stop stop-color="#25D68B"/>
<stop offset="1" stop-color="#137049"/>
</linearGradient>
<linearGradient id="paint21_linear_109_87" x1="640.614" y1="653.371" x2="816.999" y2="1447.78" gradientUnits="userSpaceOnUse">
<stop stop-color="#25D68B"/>
<stop offset="1" stop-color="#137049"/>
</linearGradient>
<linearGradient id="paint22_linear_109_87" x1="636.326" y1="668.851" x2="805.977" y2="1432.93" gradientUnits="userSpaceOnUse">
<stop stop-color="#25D68B"/>
<stop offset="1" stop-color="#137049"/>
</linearGradient>
<linearGradient id="paint23_linear_109_87" x1="631.96" y1="683.953" x2="794.987" y2="1418.2" gradientUnits="userSpaceOnUse">
<stop stop-color="#25D68B"/>
<stop offset="1" stop-color="#137049"/>
</linearGradient>
<linearGradient id="paint24_linear_109_87" x1="627.489" y1="698.657" x2="788.809" y2="1425.22" gradientUnits="userSpaceOnUse">
<stop stop-color="#25D68B"/>
<stop offset="1" stop-color="#137049"/>
</linearGradient>
<linearGradient id="paint25_linear_109_87" x1="622.955" y1="712.961" x2="782.661" y2="1432.25" gradientUnits="userSpaceOnUse">
<stop stop-color="#25D68B"/>
<stop offset="1" stop-color="#137049"/>
</linearGradient>
<linearGradient id="paint26_linear_109_87" x1="618.336" y1="726.904" x2="776.513" y2="1439.3" gradientUnits="userSpaceOnUse">
<stop stop-color="#25D68B"/>
<stop offset="1" stop-color="#137049"/>
</linearGradient>
<linearGradient id="paint27_linear_109_87" x1="613.638" y1="740.582" x2="770.353" y2="1446.4" gradientUnits="userSpaceOnUse">
<stop stop-color="#25D68B"/>
<stop offset="1" stop-color="#137049"/>
</linearGradient>
<linearGradient id="paint28_linear_109_87" x1="608.878" y1="753.937" x2="764.207" y2="1453.51" gradientUnits="userSpaceOnUse">
<stop stop-color="#25D68B"/>
<stop offset="1" stop-color="#137049"/>
</linearGradient>
<linearGradient id="paint29_linear_109_87" x1="604.086" y1="767.028" x2="758.093" y2="1460.65" gradientUnits="userSpaceOnUse">
<stop stop-color="#25D68B"/>
<stop offset="1" stop-color="#137049"/>
</linearGradient>
<linearGradient id="paint30_linear_109_87" x1="599.187" y1="779.823" x2="751.937" y2="1467.78" gradientUnits="userSpaceOnUse">
<stop stop-color="#25D68B"/>
<stop offset="1" stop-color="#137049"/>
</linearGradient>
<linearGradient id="paint31_linear_109_87" x1="594.254" y1="792.355" x2="745.812" y2="1474.94" gradientUnits="userSpaceOnUse">
<stop stop-color="#25D68B"/>
<stop offset="1" stop-color="#137049"/>
</linearGradient>
</defs>
</svg>
