<svg width="94" height="77" viewBox="0 0 94 77" fill="none" xmlns="http://www.w3.org/2000/svg">
<path d="M4.39616 71.3087C5.53218 71.3087 6.56887 70.9563 7.33863 70.3867L6.13433 69.4502C5.68116 69.7737 5.0666 69.9764 4.40237 69.9764C2.9808 69.9764 1.83237 69.093 1.83237 67.9876C1.83237 66.8918 2.9808 65.9988 4.40237 65.9988C5.0666 65.9988 5.68737 66.2015 6.13433 66.5346L7.33863 65.5885C6.57508 65.0189 5.53839 64.6665 4.39616 64.6665C2.04343 64.6665 0.125244 66.1533 0.125244 67.9876C0.125244 69.8219 2.04343 71.3087 4.39616 71.3087Z" fill="white"/>
<path d="M22.858 67.9925C22.858 66.163 20.946 64.6714 18.5871 64.6714C16.2281 64.6714 14.3162 66.1582 14.3162 67.9925C14.3162 69.822 16.2281 71.3136 18.5871 71.3136C20.946 71.3136 22.858 69.822 22.858 67.9925ZM18.5871 69.9861C17.1655 69.9861 16.0171 69.0931 16.0171 67.9877C16.0171 66.8919 17.1655 65.9989 18.5871 65.9989C19.9962 65.9989 21.1447 66.8919 21.1447 67.9877C21.1447 69.0931 19.9962 69.9861 18.5871 69.9861Z" fill="white"/>
<path d="M39.0665 71.3087V64.6714H37.229L34.7397 69.5227L32.238 64.6714H30.4067V71.3087H32.1077V67.9925L33.8148 71.3087H35.6523L37.3656 67.9925V71.3087H39.0665Z" fill="white"/>
<path d="M48.3162 68.6586H49.0176C50.4268 68.6586 51.5628 67.7656 51.5628 66.6698C51.5628 65.5644 50.4268 64.6714 49.0052 64.6714H46.6152V71.3087H48.3162V68.6586ZM48.3162 66.0037H49.0052C49.477 66.0037 49.8619 66.303 49.8619 66.6698C49.8619 67.0271 49.477 67.3263 49.0052 67.3263H48.3162V66.0037Z" fill="white"/>
<path d="M62.8793 64.6714H61.0667L57.9814 71.3087H59.7941L60.6632 69.4503H63.2891L64.1581 71.3087H65.9708L62.8793 64.6714ZM61.2777 68.1228L61.9668 66.6264L62.6683 68.1228H61.2777Z" fill="white"/>
<path d="M80.3915 71.3087V64.6714H78.6906V69.1027L75.2764 64.6714H73.2837V71.3087H74.9846V66.8871L78.4113 71.3087H80.3915Z" fill="white"/>
<path d="M89.6159 64.6714H87.7163L89.9449 68.147V71.3087H91.6458V68.147L93.8744 64.6714H91.9686L90.8016 66.5105L89.6159 64.6714Z" fill="white"/>
<path d="M1.10603 76.9661H1.65231V74.5332H2.64555V74.1519H0.112793V74.5332H1.10603V76.9661Z" fill="white"/>
<path d="M6.64343 74.1519L5.32739 76.9661H5.91092L6.19027 76.3386H7.56218L7.84152 76.9661H8.41884L7.1028 74.1519H6.64343ZM6.34546 75.962L6.86691 74.7311H6.87933L7.40078 75.962H6.34546Z" fill="white"/>
<path d="M12.3673 74.7598C12.4231 74.7019 12.5038 74.6536 12.597 74.615C12.6901 74.5764 12.8018 74.5571 12.9322 74.5571C13.106 74.5619 13.255 74.6005 13.3791 74.6729C13.4971 74.755 13.5778 74.8467 13.6212 74.9625H14.2048C14.1489 74.726 14.0061 74.5281 13.7888 74.3688C13.5716 74.2095 13.286 74.1323 12.9322 74.1274C12.6466 74.1323 12.4107 74.1805 12.2183 74.2867C12.0259 74.3881 11.8831 74.504 11.7962 74.6343C11.7403 74.7019 11.7031 74.7936 11.672 74.9046C11.6472 75.0156 11.6348 75.2329 11.6348 75.5611C11.6348 75.8845 11.6472 76.1018 11.672 76.2128C11.6844 76.2755 11.7031 76.3238 11.7217 76.3624C11.7403 76.401 11.7651 76.4397 11.7962 76.4831C11.8831 76.6134 12.0259 76.7293 12.2183 76.8258C12.4107 76.9272 12.6466 76.9851 12.9322 76.9899C13.2984 76.9851 13.6088 76.8886 13.8509 76.7003C14.093 76.5121 14.2172 76.2755 14.2234 75.9907V75.4163H12.9384V75.8218H13.6771V75.9666C13.6709 76.1452 13.6026 76.2852 13.466 76.3914C13.3295 76.5024 13.1495 76.5603 12.9384 76.5603C12.808 76.5603 12.6963 76.541 12.6032 76.4976C12.5101 76.4638 12.4356 76.4155 12.3735 76.3576C12.3052 76.2948 12.2555 76.2176 12.2307 76.1211C12.2059 76.0245 12.1935 75.8363 12.1935 75.5611C12.1935 75.286 12.2059 75.0977 12.2307 74.9963C12.2493 74.8998 12.299 74.8226 12.3673 74.7598Z" fill="white"/>
<path d="M17.9109 74.1519V76.9661H20.2202V76.5654H18.4572V74.1519H17.9109Z" fill="white"/>
<path d="M24.3292 74.1519H23.7832V76.9661H24.3292V74.1519Z" fill="white"/>
<path d="M30.3071 76.1551H30.2947L28.6559 74.1519H28.1406V76.9661H28.6931V74.9676H28.6993L30.3382 76.9661H30.8534V74.1519H30.3071V76.1551Z" fill="white"/>
<path d="M36.9805 74.5573V74.1519H34.665V76.9661H36.9805V76.5654H35.2175V75.74H36.7198V75.3586H35.2175V74.5573H36.9805Z" fill="white"/>
<path d="M45.2681 74.2868C45.0757 74.3882 44.9329 74.504 44.846 74.6344C44.7901 74.7019 44.7529 74.7936 44.7218 74.9047C44.697 75.0157 44.6846 75.2329 44.6846 75.5612C44.6846 75.8846 44.697 76.1018 44.7218 76.2128C44.7342 76.2756 44.7529 76.3239 44.7715 76.3625C44.7901 76.4011 44.8149 76.4397 44.846 76.4832C44.9329 76.6135 45.0757 76.7293 45.2681 76.8259C45.4605 76.9273 45.6964 76.9852 45.982 76.99C46.3482 76.9852 46.6586 76.8886 46.9007 76.7004C47.1428 76.5121 47.267 76.2756 47.2732 75.9908V75.4164H45.9882V75.8218H46.7269V75.9667C46.7207 76.1453 46.6524 76.2852 46.5158 76.3914C46.3793 76.5025 46.1993 76.5604 45.9882 76.5604C45.8578 76.5604 45.7461 76.5411 45.653 76.4976C45.5599 76.4638 45.4854 76.4156 45.4233 76.3577C45.355 76.2949 45.3053 76.2177 45.2805 76.1211C45.2557 76.0246 45.2433 75.8363 45.2433 75.5612C45.2433 75.286 45.2557 75.0978 45.2805 74.9964C45.3053 74.8998 45.3488 74.8226 45.4233 74.7647C45.4792 74.7068 45.5599 74.6585 45.653 74.6199C45.7461 74.5812 45.8578 74.5619 45.9882 74.5619C46.162 74.5668 46.311 74.6054 46.4352 74.6778C46.5531 74.7599 46.6338 74.8516 46.6773 74.9674H47.2608C47.2049 74.7309 47.0621 74.533 46.8449 74.3737C46.6276 74.2144 46.342 74.1372 45.9882 74.1323C45.6964 74.1323 45.4543 74.1854 45.2681 74.2868Z" fill="white"/>
<path d="M53.2578 76.4831C53.3199 76.4155 53.3633 76.3238 53.3819 76.2128C53.4006 76.1018 53.413 75.8845 53.413 75.5611C53.413 75.2329 53.4006 75.0156 53.3819 74.9046C53.3571 74.7936 53.3137 74.7067 53.2578 74.6343C53.1709 74.504 53.0343 74.3881 52.8481 74.2867C52.6556 74.1854 52.4135 74.1323 52.128 74.1274C51.8424 74.1323 51.6065 74.1805 51.4141 74.2867C51.2217 74.3881 51.0789 74.504 50.992 74.6343C50.9361 74.7019 50.8989 74.7936 50.8678 74.9046C50.843 75.0156 50.8306 75.2329 50.8306 75.5611C50.8306 75.8845 50.843 76.1018 50.8678 76.2128C50.8802 76.2755 50.8989 76.3238 50.9175 76.3624C50.9361 76.401 50.9609 76.4397 50.992 76.4831C51.0789 76.6134 51.2217 76.7293 51.4141 76.8258C51.6065 76.9272 51.8424 76.9851 52.128 76.9899C52.4135 76.9851 52.6556 76.932 52.8481 76.8258C53.0405 76.7293 53.1771 76.6134 53.2578 76.4831ZM52.6867 76.3576C52.6308 76.4155 52.5563 76.4638 52.4694 76.4976C52.3763 76.541 52.2583 76.5603 52.128 76.5603C51.9976 76.5603 51.8859 76.541 51.7928 76.4976C51.6997 76.4638 51.6252 76.4155 51.5631 76.3576C51.4948 76.2948 51.4451 76.2176 51.4203 76.1211C51.3955 76.0245 51.3831 75.8363 51.3831 75.5611C51.3831 75.286 51.3955 75.0977 51.4203 74.9963C51.4451 74.8998 51.4886 74.8226 51.5631 74.7646C51.6189 74.7067 51.6997 74.6584 51.7928 74.6198C51.8859 74.5812 51.9976 74.5619 52.128 74.5619C52.2583 74.5667 52.3701 74.586 52.4694 74.6198C52.5625 74.6584 52.6308 74.7067 52.6867 74.7646C52.755 74.8274 52.8046 74.9046 52.8357 74.9963C52.8605 75.0977 52.8729 75.286 52.8729 75.5611C52.8729 75.8363 52.8605 76.0245 52.8357 76.1211C52.8046 76.2176 52.755 76.2997 52.6867 76.3576Z" fill="white"/>
<path d="M59.4152 74.5573V74.1519H57.106V76.9661H59.4152V76.5654H57.6522V75.74H59.1607V75.3586H57.6522V74.5573H59.4152Z" fill="white"/>
<path d="M64.0525 76.5652C63.6552 76.5604 63.3138 76.4687 63.0283 76.2852L62.6682 76.6038C63.0531 76.8597 63.5125 76.99 64.0525 76.99C64.8844 76.9804 65.3065 76.71 65.3251 76.1742C65.3251 75.9763 65.2444 75.7977 65.083 75.6481C64.9216 75.4936 64.6671 75.4019 64.3319 75.3633C64.1581 75.3488 64.0215 75.3295 63.9222 75.3198C63.7422 75.2957 63.6118 75.2474 63.5311 75.1798C63.4504 75.1122 63.4069 75.0398 63.4069 74.9578C63.4131 74.8226 63.469 74.7212 63.587 74.6537C63.6987 74.5861 63.8415 74.5571 64.0091 74.5571C64.3381 74.5619 64.6361 74.6344 64.903 74.7743L65.2072 74.422C64.872 74.2337 64.4809 74.1372 64.0339 74.1323C63.6615 74.1372 63.3697 74.2096 63.171 74.3592C62.96 74.5088 62.8544 74.7068 62.8544 74.9529C62.8544 75.1557 62.9351 75.3295 63.1028 75.4743C63.2642 75.6143 63.5001 75.7012 63.8104 75.7446C63.9843 75.7639 64.1457 75.7832 64.2884 75.7977C64.605 75.8411 64.7602 75.9666 64.7602 76.1742C64.7602 76.4301 64.5243 76.5604 64.0525 76.5652Z" fill="white"/>
<path d="M75.7414 76.9661V74.1519H75.1951V75.3586H73.7611V74.1519H73.2148V76.9661H73.7611V75.74H75.1951V76.9661H75.7414Z" fill="white"/>
<path d="M81.8687 74.5573V74.1519H79.5532V76.9661H81.8687V76.5654H80.1057V75.74H81.608V75.3586H80.1057V74.5573H81.8687Z" fill="white"/>
<path d="M85.9782 75.7642H86.6796L87.4246 76.9661H88.0764L87.2383 75.7159C87.6977 75.5759 87.9336 75.3201 87.9398 74.9387C87.9274 74.6781 87.8094 74.4802 87.5798 74.3402C87.3873 74.2147 87.1452 74.1567 86.841 74.1567H85.4319V76.971H85.9782V75.7642ZM85.9782 74.5333H86.8348C87.0086 74.5333 87.1452 74.5622 87.2383 74.6201C87.3563 74.6877 87.4184 74.7939 87.4184 74.9387C87.4184 75.0594 87.3687 75.1656 87.2694 75.2477C87.1638 75.3394 87.0149 75.3828 86.81 75.3877H85.9782V74.5333Z" fill="white"/>
<path d="M93.8869 74.5573V74.1519H91.5776V76.9661H93.8869V76.5654H92.1301V75.74H93.6324V75.3586H92.1301V74.5573H93.8869Z" fill="white"/>
<path d="M12.0317 24.0603L12.0255 24.0845L12.0193 24.1183C12.0068 24.1665 12.0006 24.2148 11.9944 24.2583V24.2631V24.2679C11.9944 24.2776 11.9944 24.2872 11.9882 24.2969C11.982 24.3258 11.9758 24.3548 11.9758 24.3838L11.9634 24.4562V24.4707L11.9572 24.4948V24.5044V24.5141V24.5189L11.951 24.5431V24.5624V24.5672L11.9448 24.5769C11.9324 24.6686 11.9137 24.7603 11.9013 24.852C11.8889 24.9341 11.8765 25.0161 11.8641 25.0982C11.8579 25.132 11.8579 25.1609 11.8517 25.1899V25.1947V25.1996C11.8392 25.3009 11.8206 25.3975 11.8082 25.4988C11.7958 25.5713 11.7896 25.6485 11.7834 25.7257V25.7354L11.771 25.8078C11.7647 25.8367 11.7647 25.8657 11.7585 25.8947C11.7523 25.9236 11.7523 25.9574 11.7461 25.9864C11.7461 26.0009 11.7399 26.0202 11.7399 26.0347C11.7399 26.0588 11.7337 26.0829 11.7337 26.1071C11.7337 26.136 11.7275 26.165 11.7275 26.1988C11.7275 26.2133 11.7275 26.2277 11.7213 26.2422C11.7089 26.3436 11.7027 26.4498 11.6903 26.5753V26.5801C11.684 26.6332 11.684 26.6863 11.6778 26.7346C11.6716 26.7877 11.6716 26.8456 11.6654 26.8987V26.9036V26.9084V26.918V26.9229C11.6654 26.9277 11.6654 26.9325 11.6654 26.9422C11.6654 26.9567 11.6654 26.9663 11.6654 26.9808V26.9953V27.0146C11.6592 27.0773 11.6592 27.1353 11.653 27.198C11.653 27.2221 11.653 27.2511 11.6468 27.2752C11.6406 27.3863 11.6344 27.4925 11.6344 27.5987C11.6344 27.6131 11.6344 27.6325 11.6344 27.6518V27.6904C11.6282 27.7773 11.6282 27.8642 11.6282 27.9559V28.0041V28.0283V28.12C11.6282 28.149 11.6282 28.1731 11.6282 28.2021C11.6282 28.2214 11.6282 28.2407 11.6282 28.26C11.6282 28.2793 11.6282 28.2986 11.6282 28.3179C11.6282 28.342 11.6282 28.371 11.6282 28.3951V28.482V28.5544C11.7275 33.7871 14.4217 38.6963 19.2202 42.3698C24.0188 46.0529 30.3755 48.0803 37.1171 48.0803C38.1911 48.0803 39.2526 48.0272 40.3017 47.9259C40.7797 47.8776 41.2515 47.8293 41.7233 47.7618C38.2345 46.1205 35.2176 43.9242 32.8462 41.2837C31.9833 40.3279 31.226 39.3239 30.5742 38.2908C30.4252 38.0591 30.2886 37.8226 30.152 37.5861C30.1396 37.5619 30.121 37.533 30.1086 37.5088C28.4573 34.6174 27.5945 31.4845 27.5945 28.26C27.5945 23.5728 29.4133 19.0691 32.8524 15.2363C33.6408 14.3577 34.5037 13.5275 35.4348 12.7503C38.4518 10.2209 42.1516 8.26102 46.3232 7.00596C47.5896 6.62461 48.8746 6.31567 50.1906 6.07431C52.3757 5.67366 54.6229 5.47574 56.9012 5.47574C62.2274 5.47574 67.3426 6.57634 71.8121 8.63754L71.8059 8.63271C71.7687 8.60375 71.719 8.56996 71.6818 8.53617C71.6259 8.49272 71.57 8.45411 71.5142 8.41066C71.4955 8.39618 71.4769 8.38653 71.4645 8.37205L71.4521 8.36239L71.4459 8.35756L71.4397 8.34791C71.39 8.31412 71.3341 8.2755 71.2845 8.23689C71.2286 8.19827 71.1789 8.15965 71.1231 8.11621L71.1169 8.11138L71.1107 8.10655L71.0982 8.0969C71.0858 8.09207 71.0796 8.08242 71.0672 8.07759C71.0051 8.03414 70.9431 7.98587 70.881 7.94243L70.8686 7.93277L70.7879 7.87485C70.7754 7.86519 70.763 7.85554 70.7444 7.84588C70.6513 7.78313 70.5644 7.72038 70.4775 7.65762C70.3719 7.58522 70.2726 7.51764 70.1795 7.45488C70.1485 7.43557 70.1174 7.41144 70.0802 7.39213C70.0119 7.34869 69.9436 7.30041 69.8753 7.25697L69.7388 7.17008L69.6643 7.12181V7.11698L69.6084 7.08319L69.5774 7.06388C69.4967 7.01078 69.416 6.96251 69.3353 6.90941L69.3228 6.89976L69.3166 6.89493L69.3104 6.8901L69.298 6.88528C69.2359 6.84666 69.1801 6.80804 69.118 6.77425L69.1118 6.76943H69.1056H69.0994C68.9069 6.64875 68.7083 6.52807 68.5096 6.41221L68.5034 6.40739L68.4972 6.40256C68.4413 6.36877 68.3917 6.33981 68.3358 6.30602L68.2675 6.2674L68.2303 6.24326C68.2241 6.23844 68.2117 6.23361 68.2054 6.22878L68.1992 6.22396L68.193 6.21913L68.1868 6.2143L68.1744 6.20947L68.0627 6.14672L68.0192 6.12258L67.864 6.0357C67.8454 6.02604 67.833 6.01639 67.8144 6.00673C67.7833 5.99225 67.7585 5.97294 67.7274 5.95846L67.6654 5.92467H67.6592H67.653C67.5909 5.89088 67.535 5.85709 67.4729 5.8233C67.4605 5.81365 67.4419 5.80882 67.4295 5.79916L67.4109 5.78951L67.3984 5.77986C67.2495 5.69779 67.1067 5.62056 66.9577 5.5385H66.9515H66.9453C66.877 5.50471 66.8149 5.46609 66.7466 5.4323C66.728 5.42265 66.7156 5.41299 66.697 5.40816L66.6908 5.40334C66.5914 5.35506 66.4921 5.30197 66.3928 5.24887C66.3866 5.24404 66.3804 5.24404 66.3742 5.23921L66.368 5.23439L66.3555 5.22956C66.3369 5.2199 66.3121 5.21025 66.2935 5.19577C66.219 5.15715 66.1507 5.12336 66.0762 5.08957L66.0638 5.08474L66.0514 5.07992C65.9458 5.02682 65.8341 4.97372 65.7286 4.92062L65.7161 4.91579L65.7037 4.90614C65.592 4.85304 65.4803 4.79511 65.3685 4.74684L65.1885 4.66478C65.1574 4.6503 65.1326 4.64064 65.1078 4.62616C65.0767 4.61168 65.0395 4.59237 65.0023 4.57789L64.996 4.57306L64.9898 4.56824C64.9712 4.55858 64.9464 4.54893 64.9278 4.53927C64.8471 4.50066 64.7664 4.46687 64.6857 4.42825L64.6236 4.39929C64.5925 4.3848 64.5677 4.37515 64.5429 4.36067C64.4684 4.32688 64.3939 4.29309 64.3194 4.2593C64.3132 4.25447 64.307 4.25447 64.2946 4.24964C63.7917 4.03242 63.2827 3.82002 62.7675 3.62211C62.7551 3.61728 62.7426 3.61246 62.7302 3.60763H62.724H62.7178L62.7054 3.6028C62.5937 3.55453 62.4819 3.51591 62.364 3.47247L62.0474 3.35179C62.0412 3.34696 62.0288 3.34696 62.0225 3.34213C62.0163 3.34213 62.0101 3.33731 62.0039 3.33731L61.9977 3.33248H61.9915C61.6315 3.20215 61.3024 3.08629 60.9858 2.9801L60.9796 2.97527L60.9734 2.97044H60.9672L60.9486 2.96562C60.8741 2.93665 60.7934 2.91252 60.7189 2.88838L60.6879 2.87873L60.6631 2.86907H60.6568L60.5203 2.82563C60.4706 2.81115 60.4209 2.79666 60.3713 2.77736C60.3527 2.77253 60.3278 2.76287 60.3092 2.75805C59.9678 2.65185 59.6884 2.56496 59.4339 2.49255L59.2787 2.44911L59.2601 2.44428L59.0987 2.39601C58.6642 2.27533 58.2172 2.15465 57.764 2.04363H57.7578H57.7516C57.7454 2.04363 57.7392 2.0388 57.7268 2.0388C57.6399 2.01949 57.553 1.99535 57.4661 1.97605C57.3792 1.95674 57.2923 1.9326 57.1991 1.91329C57.1495 1.89881 57.0936 1.88916 57.0439 1.87467C56.8453 1.83123 56.6591 1.78779 56.4852 1.74917H56.479H56.4728H56.4666C56.4418 1.74434 56.417 1.73951 56.3921 1.73469C56.3487 1.71538 56.3114 1.71055 56.2742 1.7009L56.2494 1.69607L56.2121 1.68642C55.8396 1.60918 55.461 1.5416 55.0823 1.46919C54.8588 1.43058 54.6353 1.39196 54.4119 1.35334C54.027 1.29059 53.6483 1.22783 53.2634 1.17474C53.1207 1.15543 52.9779 1.13612 52.8351 1.11681H52.8289H52.8227H52.8165C52.6737 1.0975 52.5309 1.07819 52.3881 1.06371C52.3199 1.05406 52.2578 1.04923 52.1895 1.03957C52.1088 1.02992 52.0219 1.02027 51.9412 1.01061C51.5315 0.967167 51.1218 0.92855 50.7121 0.894759C49.9175 0.832006 49.1229 0.788562 48.3221 0.764426C47.8875 0.754772 47.4468 0.745117 46.9998 0.745117C46.2487 0.745117 45.5038 0.764426 44.7526 0.803043C44.6719 0.80787 44.5974 0.80787 44.5167 0.812698C43.6911 0.856142 42.8655 0.923722 42.0523 1.01061C41.9033 1.02509 41.7605 1.0444 41.6115 1.05888C41.6053 1.05888 41.6053 1.05888 41.5991 1.05888H41.5929L12.0317 24.0507V24.0603Z" fill="white"/>
<path d="M81.9807 32.4213L81.9869 32.402L81.9931 32.3778C81.9993 32.3392 82.0055 32.3006 82.0117 32.262V32.2523V32.2378L82.0179 32.2234C82.0303 32.1751 82.0365 32.122 82.0489 32.0689L82.0551 32.0351L82.0614 32.0013C82.0676 31.9868 82.0676 31.9675 82.0738 31.953L82.0986 31.7793L82.1172 31.6586C82.1358 31.5427 82.1545 31.4365 82.1669 31.3303V31.3158C82.1793 31.2145 82.1979 31.1179 82.2041 31.0214C82.2165 30.9393 82.2228 30.8621 82.2352 30.7897V30.7849L82.2476 30.7125C82.2538 30.6594 82.26 30.6063 82.2662 30.5532V30.5338V30.5145C82.2786 30.447 82.2786 30.3745 82.2848 30.307V30.2973V30.278C82.2972 30.1766 82.3035 30.0704 82.3159 29.9498V29.9401C82.3283 29.8339 82.3345 29.7277 82.3407 29.6215V29.5925V29.5491V29.5057C82.3469 29.4188 82.3531 29.3271 82.3531 29.2402C82.3593 29.1195 82.3655 29.0085 82.3655 28.8926V28.8781V28.825C82.3655 28.743 82.3717 28.6609 82.3717 28.5788V28.4871V28.4726C82.3717 28.4002 82.3717 28.3327 82.3717 28.2602C82.3717 28.1878 82.3717 28.1106 82.3717 28.0382V28.0334V27.961C82.2724 22.7283 79.5783 17.8239 74.7859 14.1456C69.9873 10.4625 63.6306 8.43506 56.8828 8.43506C55.3246 8.43506 53.7851 8.54126 52.2767 8.75848C55.7654 10.3997 58.7886 12.5961 61.1537 15.2365C64.5928 19.0693 66.4117 23.5731 66.4117 28.2602C66.4117 32.9474 64.5928 37.4512 61.1537 41.284C57.7953 45.025 53.1395 47.873 47.6829 49.5143C44.3121 50.528 40.7613 51.0445 37.1112 51.0445C31.7849 51.0445 26.6698 49.9439 22.2002 47.8875L22.2064 47.8923L22.225 47.9068L22.2436 47.9213C22.2623 47.9406 22.2871 47.9551 22.3057 47.9696L22.374 48.0227C22.4299 48.0661 22.4857 48.1096 22.5478 48.153L22.5602 48.1627L22.5727 48.1723C22.6658 48.2447 22.7775 48.3268 22.8893 48.404L22.9079 48.4137L22.9203 48.4233C22.9948 48.4764 23.0631 48.5295 23.1376 48.5826L23.1438 48.5875L23.15 48.5923C23.2803 48.684 23.4045 48.7757 23.5411 48.8626L23.5473 48.8674L23.5535 48.8723C23.6404 48.9302 23.7273 48.9929 23.8142 49.0509L23.8328 49.0605L23.8887 49.0991H23.8949L24.1494 49.2681L24.1991 49.3019L24.2115 49.3115C24.2798 49.355 24.3481 49.3984 24.4164 49.4419L24.4412 49.4564L24.466 49.4757C24.5281 49.5143 24.5902 49.5577 24.6647 49.6012L24.6895 49.6156L24.7143 49.6301C24.7702 49.6639 24.8199 49.6977 24.8695 49.7315L24.8881 49.7412L24.9006 49.7508C25.0868 49.8715 25.2854 49.9873 25.4841 50.1032C25.5275 50.1322 25.571 50.1563 25.6144 50.1804C25.6641 50.2094 25.7138 50.2384 25.7634 50.2673C25.7945 50.2818 25.8193 50.2963 25.8441 50.3156L25.8938 50.3446C25.9745 50.3928 26.049 50.4363 26.1297 50.4845L26.2042 50.528C26.2414 50.5521 26.2849 50.5714 26.3221 50.5956L26.3345 50.6052L26.3532 50.6149C26.409 50.6487 26.4711 50.6825 26.527 50.7162L26.5891 50.75C26.7318 50.8321 26.8808 50.9093 27.0298 50.9914L27.0422 50.9962L27.0546 51.0059C27.1167 51.0397 27.185 51.0735 27.2533 51.1072L27.3029 51.1314L27.4644 51.2134L27.6382 51.3052C27.7251 51.3486 27.8182 51.3969 27.9113 51.4403C28.0044 51.4886 28.0975 51.532 28.1844 51.5755H28.4079L28.8114 51.8748C28.8735 51.9037 28.9356 51.9327 28.9977 51.9617C29.1218 52.0196 29.246 52.0727 29.3701 52.1258L29.3825 52.1306L29.395 52.1354C29.4943 52.1789 29.5874 52.2223 29.6867 52.2658C30.2082 52.4975 30.7358 52.7147 31.2697 52.9174C31.3876 52.9609 31.5056 53.0092 31.6173 53.0526C31.6359 53.0622 31.6546 53.0671 31.667 53.0719C31.7787 53.1105 31.8843 53.154 31.996 53.1926C32.3312 53.3133 32.6726 53.4339 33.0016 53.545H33.0079L33.0141 53.5498C33.0948 53.5788 33.1817 53.6077 33.2624 53.6319C33.2872 53.6415 33.312 53.6463 33.3431 53.6608C33.4548 53.6946 33.5666 53.7332 33.6783 53.767C33.9514 53.8539 34.2432 53.9408 34.5536 54.0325L34.566 54.0373L34.5784 54.0422C34.6715 54.0711 34.7709 54.1001 34.864 54.1242L34.8764 54.1291L34.8888 54.1339C35.342 54.2642 35.7889 54.3801 36.2173 54.4863L36.2297 54.4911L36.2421 54.4959C36.329 54.5201 36.4159 54.5394 36.5028 54.5635H36.5152L36.5276 54.5683C36.658 54.6021 36.7884 54.6311 36.9187 54.6649L37.0305 54.689C37.1857 54.7228 37.3471 54.7566 37.5023 54.7904C37.5892 54.8097 37.6699 54.8242 37.7444 54.8435L37.763 54.8483C38.7376 55.051 39.7308 55.2248 40.7054 55.36L40.7179 55.3648H40.7303C40.8482 55.3793 40.9786 55.3986 41.1338 55.4179H41.1462H41.1524C41.3076 55.4372 41.4442 55.4565 41.5621 55.4662H41.5807L41.5994 55.471C41.7359 55.4903 41.8725 55.5048 42.0153 55.5193H42.0277C43.6603 55.6931 45.324 55.7848 46.9753 55.7848C48.6327 55.7848 50.2964 55.6931 51.929 55.5193L51.9663 55.5145C52.0966 55.5 52.227 55.4855 52.3574 55.471L52.376 55.4662H52.3884L81.9496 32.4792C81.9744 32.4454 81.9744 32.4358 81.9807 32.4213Z" fill="white"/>
</svg>
