<svg width="77" height="80" viewBox="0 0 77 80" fill="none" xmlns="http://www.w3.org/2000/svg">
<path d="M32.7953 5.24149C32.88 5.24149 32.9718 5.24714 33.0566 5.25279C33.5579 5.26973 34.0593 5.29232 34.5818 5.3262C36.9333 5.46174 39.2071 5.73846 41.3538 6.13943V1.774C39.1577 1.32786 36.8062 1.02855 34.3629 0.887361C33.4661 0.830887 32.5128 0.797004 31.5313 0.780062C31.27 0.774414 31.0087 0.774414 30.7404 0.774414C30.7333 0.774414 30.7263 0.774414 30.7121 0.774414C26.1222 0.774414 21.4051 1.26009 16.681 2.2145C11.3142 3.29315 6.17346 4.95912 1.76709 7.03736V50.2963C6.06754 48.4157 10.9258 46.9079 15.9748 45.8913C19.9646 45.0894 23.9825 44.5981 27.9158 44.4343H27.9511H27.9652C28.0005 44.4343 28.0358 44.4287 28.0641 44.4287C28.742 44.4004 29.4128 44.3835 30.1049 44.3778V39.9503C25.0276 39.9898 19.8163 40.5433 14.6119 41.588C12.7407 41.9664 10.9258 42.3956 9.22402 42.8587L7.3033 43.3839V41.7575V10.3863V9.6521L8.12948 9.33584C11.2224 8.15554 14.5555 7.20113 18.0297 6.50086C21.4687 5.80623 24.9005 5.38832 28.2335 5.24714C28.3042 5.24149 28.3607 5.24149 28.403 5.24149C29.1727 5.21326 29.9495 5.19631 30.7121 5.19631C30.9946 5.19631 31.27 5.20196 31.5454 5.20196H31.5807C31.9832 5.21326 32.3928 5.2189 32.7953 5.24149Z" fill="white"/>
<path d="M46.4522 9.81006C45.1812 9.81006 43.9171 9.77617 42.7026 9.70276C41.2267 9.61805 39.7579 9.47686 38.3456 9.28485C37.4841 9.16625 36.6367 9.03072 35.8105 8.87824V51.6459C39.0588 52.3066 42.632 52.6454 46.4522 52.6454C51.0351 52.6454 55.7593 52.1598 60.4905 51.211C65.8501 50.1267 70.9909 48.4664 75.4043 46.3881V3.8916C71.1039 5.77218 66.2456 7.28003 61.2037 8.29656C56.2324 9.30179 51.2682 9.81006 46.4522 9.81006ZM67.9403 10.5442L69.8611 10.0247V11.6455V43.0223V43.7565L69.0349 44.0727C65.949 45.2474 62.616 46.2018 59.1276 46.9021C54.8413 47.7661 50.5761 48.2066 46.4522 48.2066C45.1741 48.2066 43.903 48.1614 42.6743 48.0767L41.3468 47.9864V46.919V46.8004V43.8977L41.3538 43.9033V14.5313V13.2888L42.9003 13.3679C44.0231 13.4244 45.1882 13.4526 46.4522 13.4526C51.7342 13.4526 57.1504 12.8992 62.5524 11.8092C64.3602 11.4534 66.175 11.0242 67.9403 10.5442Z" fill="white"/>
<path d="M5.52437 65.0701C4.97358 64.607 4.25329 64.3755 3.3706 64.3755C2.91867 64.3755 2.50203 64.4376 2.12778 64.5619C1.75352 64.6861 1.42869 64.8555 1.16035 65.0701C0.892018 65.2847 0.680184 65.5445 0.531893 65.8382C0.383601 66.1318 0.312988 66.4537 0.312988 66.7982V72.5755C0.312988 73.0555 0.404783 73.4508 0.595444 73.7614C0.786104 74.072 1.02619 74.3262 1.32278 74.5182C1.61936 74.7158 1.95125 74.8514 2.31845 74.9304C2.68565 75.0095 3.05285 75.049 3.40593 75.049C3.82255 75.049 4.21092 74.9813 4.57811 74.8514C4.93825 74.7215 5.25604 74.5408 5.52437 74.3149C5.79271 74.089 6.00455 73.8292 6.1599 73.5412C6.31526 73.2532 6.39292 72.9426 6.39292 72.6207V71.9712H4.51456V72.4851C4.51456 72.6941 4.47925 72.8635 4.40158 72.999C4.33096 73.1346 4.23211 73.2475 4.12619 73.3209C4.00614 73.4 3.87198 73.4565 3.73075 73.4904C3.58952 73.5242 3.45535 73.5412 3.33531 73.5412C2.90456 73.5412 2.60796 73.4395 2.43848 73.2306C2.26901 73.0216 2.19135 72.7675 2.19135 72.4625V67.0975C2.19135 66.7417 2.26901 66.4537 2.42437 66.2222C2.57972 65.9906 2.89043 65.8777 3.35649 65.8777C3.70956 65.8777 3.99201 65.985 4.20386 66.1996C4.4157 66.4142 4.51456 66.674 4.51456 66.9676V67.4703H6.39292V66.8829C6.39292 66.5215 6.31526 66.1827 6.1599 65.872C6.00455 65.5614 5.79271 65.296 5.52437 65.0701Z" fill="white"/>
<path d="M16.801 65.0078C16.4903 64.7988 16.1513 64.6463 15.7771 64.5334C15.4028 64.4261 15.0215 64.3696 14.6401 64.3696C14.2588 64.3696 13.8846 64.4261 13.5033 64.5334C13.129 64.6407 12.7971 64.7988 12.5005 65.0078C12.1898 65.2224 11.9497 65.4935 11.7661 65.821C11.5825 66.1429 11.4907 66.5213 11.4907 66.9392V72.4793C11.4907 72.9198 11.5825 73.2981 11.7661 73.6144C11.9497 73.9306 12.1969 74.1904 12.5005 74.3937C12.7971 74.6083 13.129 74.7721 13.5033 74.8794C13.8775 74.9867 14.2588 75.0432 14.6401 75.0432C15.0215 75.0432 15.3957 74.9867 15.7771 74.8794C16.1513 74.7721 16.4903 74.6083 16.801 74.3937C17.0975 74.1848 17.3376 73.925 17.5212 73.6144C17.7048 73.2981 17.7966 72.9198 17.7966 72.4793V66.9392C17.7966 66.5156 17.7048 66.1429 17.5212 65.821C17.3376 65.4935 17.0975 65.2224 16.801 65.0078ZM15.9183 72.4793C15.9183 72.8407 15.7912 73.1118 15.537 73.2812C15.2828 73.4506 14.9862 73.541 14.6401 73.541C14.2941 73.541 13.9976 73.4563 13.7433 73.2812C13.4891 73.1118 13.3691 72.8407 13.3691 72.4793V66.9392C13.3691 66.5778 13.4962 66.3067 13.7433 66.1373C13.9976 65.9678 14.2941 65.8775 14.6401 65.8775C14.9862 65.8775 15.2828 65.9622 15.537 66.1373C15.7912 66.3067 15.9183 66.5778 15.9183 66.9392V72.4793Z" fill="white"/>
<path d="M31.6229 74.9584V64.46H29.794L27.4002 70.017H27.3649L24.9498 64.46H23.1421V74.9584H25.0204V68.5769H25.0628L26.9059 73.0835H27.845L29.7022 68.5769H29.7446V74.9584H31.6229Z" fill="white"/>
<path d="M42.328 65.1998C42.0102 64.923 41.6501 64.731 41.2617 64.6237C40.8663 64.5164 40.4143 64.46 39.8988 64.46H37.0813V74.9528H38.9597V70.8528H39.92C40.6191 70.8528 41.184 70.7568 41.6148 70.5648C42.0455 70.3728 42.3915 70.1073 42.6458 69.7629C42.8647 69.4805 43.013 69.1755 43.0765 68.848C43.1471 68.5261 43.1754 68.1251 43.1754 67.6564C43.1754 67.0295 43.1118 66.5269 42.9918 66.1598C42.8717 65.7984 42.6458 65.4765 42.328 65.1998ZM41.3818 68.3962C41.3606 68.6108 41.3041 68.7915 41.2052 68.944C41.1064 69.1021 40.951 69.2263 40.7462 69.3111C40.5344 69.4014 40.2448 69.4409 39.8635 69.4409H38.9597V65.8718H39.9341C40.3013 65.8718 40.5838 65.917 40.7815 66.0017C40.9793 66.0921 41.1276 66.2163 41.2264 66.3857C41.3253 66.5551 41.3818 66.7471 41.3888 66.9674C41.4029 67.1876 41.41 67.4192 41.41 67.6677C41.41 67.9387 41.3959 68.1816 41.3818 68.3962Z" fill="white"/>
<path d="M51.2328 64.46H49.6651L46.7346 74.9528H48.613L49.1638 72.6995H51.7271L52.2779 74.9528H54.1563L51.2328 64.46ZM49.4957 71.2876L50.4137 67.487H50.449L51.367 71.2876H49.4957Z" fill="white"/>
<path d="M63.3788 70.785H63.3364L60.5048 64.46H58.697V74.9584H60.5754V68.6503H60.6107L63.4847 74.9584H65.2572V64.46H63.3788V70.785Z" fill="white"/>
<path d="M74.8605 64.46L73.3493 68.6334H73.3069L71.7958 64.46H69.8044L72.3889 70.5196V74.9584H74.2673V70.5196L76.8448 64.46H74.8605Z" fill="white"/>
<path d="M0.28418 77.9176H1.19512V79.945H1.8024V77.9176H2.70627V77.5054H0.28418V77.9176Z" fill="white"/>
<path d="M7.89677 77.5054L6.71045 79.945H7.36009L7.61432 79.3916H8.83594L9.09724 79.945H9.76807L8.54644 77.5054H7.89677ZM7.7979 78.9793L8.21455 78.0758L8.63118 78.9793H7.7979Z" fill="white"/>
<path d="M15.424 79.0471H16.1301V79.3577C15.9112 79.4932 15.6641 79.561 15.4028 79.561C15.1203 79.561 14.9014 79.4819 14.7531 79.3294C14.6048 79.177 14.5272 78.9624 14.5272 78.6969C14.5272 78.1548 14.8237 77.8837 15.4099 77.8837C15.777 77.8837 16.003 78.0136 16.1019 78.2734L16.7092 78.183C16.5821 77.7087 16.1442 77.4658 15.4099 77.4658C14.9862 77.4658 14.6331 77.5731 14.3365 77.7821C14.0399 77.991 13.8987 78.3016 13.8987 78.7195C13.8987 79.0923 14.0328 79.3972 14.2941 79.6344C14.5554 79.8716 14.9438 79.9902 15.4522 79.9902C15.9748 79.9902 16.4126 79.866 16.7515 79.6118V78.6405H15.424V79.0471Z" fill="white"/>
<path d="M24.0814 77.5054H23.467V79.945H25.6067V79.5328H24.0814V77.5054Z" fill="white"/>
<path d="M30.5847 77.5054H29.9636V79.945H30.5847V77.5054Z" fill="white"/>
<path d="M36.9334 79.1318L35.6835 77.5054H35.0833V79.945H35.6552V78.3525L36.891 79.945H37.4983V77.5054H36.9334V79.1318Z" fill="white"/>
<path d="M42.6812 78.8664H44.2065V78.4541H42.6812V77.9176H44.3265V77.5054H42.0598V79.945H44.3831V79.5328H42.6812V78.8664Z" fill="white"/>
<path d="M55.6463 78.4654H54.4388V77.5054H53.8245V79.945H54.4388V78.8777H55.6463V79.945H56.2536V77.5054H55.6463V78.4654Z" fill="white"/>
<path d="M61.4225 78.8664H62.9477V78.4541H61.4225V77.9176H63.0678V77.5054H60.8081V79.945H63.1243V79.5328H61.4225V78.8664Z" fill="white"/>
<path d="M69.2604 78.8664C69.7971 78.8043 70.0655 78.5784 70.0655 78.1887C70.0655 77.9233 69.9666 77.7426 69.7689 77.6466C69.5711 77.5506 69.2746 77.5054 68.8721 77.5054H67.5728V79.945H68.1871V78.9285H68.3071C68.4837 78.9285 68.6108 78.9455 68.6885 78.985C68.7661 79.0189 68.8438 79.081 68.9074 79.1601L69.5711 79.945H70.3055L69.9313 79.4707C69.6912 79.1544 69.4652 78.9568 69.2604 78.8664ZM68.639 78.5332H68.18V77.9176H68.6602C68.9921 77.9176 69.1969 77.9402 69.2887 77.9797C69.3805 78.0193 69.4229 78.0983 69.4229 78.2226C69.4229 78.3525 69.3664 78.4372 69.2604 78.4767C69.1545 78.5163 68.9497 78.5332 68.639 78.5332Z" fill="white"/>
<path d="M75.1712 78.8664H76.6965V78.4541H75.1712V77.9176H76.8165V77.5054H74.5498V79.945H76.873V79.5328H75.1712V78.8664Z" fill="white"/>
</svg>
