<svg width="97" height="89" viewBox="0 0 97 89" fill="none" xmlns="http://www.w3.org/2000/svg">
<path d="M28.8833 62.3978V62.3865L26.5364 58.3669L7.94899 26.5029H3.25513L24.1895 62.3865V62.3978H24.1952H28.8776H28.8833Z" fill="white"/>
<path d="M47.6362 62.3978V62.3865L45.2893 58.3669L42.948 54.3529L40.6011 50.3332L38.2599 46.3136L35.913 42.294L26.7019 26.5029H22.0137L33.566 46.3136L35.913 50.3332L38.2599 54.3529L40.6011 58.3669L42.948 62.3865L42.9423 62.3978H42.948H47.6305H47.6362Z" fill="white"/>
<path d="M54.6655 58.3669L52.3243 54.3529L49.9773 50.3332L47.6361 46.3136L45.2892 42.294L42.9479 38.28L40.601 34.2603L36.078 26.5029H31.3899L38.2541 38.2743L42.9479 46.3136L45.2892 50.3332L47.6361 54.3529L49.9773 58.3669L52.3243 62.3865L52.3186 62.3978H52.3243H57.0067H57.0124V62.3865L54.6655 58.3669Z" fill="white"/>
<path d="M64.7709 0.862793H60.0828L42.9707 30.2011L45.3119 34.2207L64.7709 0.862793Z" fill="white"/>
<path d="M33.5713 62.3978H38.2538H38.2595V62.3865L35.9126 58.3669L33.5713 54.3529L31.2244 50.3332L17.3251 26.5029H12.637L28.8775 54.3472L31.2244 58.3669L33.5713 62.3865L33.5656 62.3978H33.5713Z" fill="white"/>
<path d="M50.0002 42.2544L74.1473 0.862793H69.4592L47.6589 38.2347L47.6817 38.2798L50.0002 42.2544Z" fill="white"/>
<path d="M54.6884 50.2936L83.5237 0.862793H78.8356L52.3472 46.274L52.37 46.3135L54.6884 50.2936Z" fill="white"/>
<path d="M92.8998 0.862793H88.2117L57.0352 54.3076L57.0579 54.3527L59.3764 58.3273L92.8998 0.862793Z" fill="white"/>
<path d="M6.25769 79.1749C5.79628 79.5977 5.16396 79.8571 4.48039 79.8571C3.0278 79.8571 1.85435 78.707 1.85435 77.2694C1.85435 75.8431 3.0278 74.6817 4.48039 74.6817C5.15827 74.6817 5.79628 74.9467 6.25769 75.3751L7.4938 74.1405C6.7077 73.3963 5.64816 72.9453 4.48609 72.9453C2.0765 72.9453 0.116943 74.8847 0.116943 77.2694C0.116943 79.6541 2.0765 81.5935 4.48609 81.5935C5.64816 81.5935 6.71339 81.1368 7.4938 80.3983L6.25769 79.1749Z" fill="white"/>
<path d="M19.0059 72.9453C16.5963 72.9453 14.6367 74.8847 14.6367 77.2694C14.6367 79.6541 16.5963 81.5935 19.0059 81.5935C21.4155 81.5935 23.375 79.6541 23.375 77.2694C23.375 74.8847 21.4155 72.9453 19.0059 72.9453ZM19.0059 79.8683C17.5533 79.8683 16.3798 78.707 16.3798 77.2694C16.3798 75.8431 17.5533 74.6817 19.0059 74.6817C20.4471 74.6817 21.6205 75.8431 21.6205 77.2694C21.6205 78.707 20.4471 79.8683 19.0059 79.8683Z" fill="white"/>
<path d="M35.531 79.2651L32.9733 72.9453H31.0935V81.5935H32.8366V77.2694L34.5854 81.5935H36.4652L38.2197 77.2694V81.5935H39.9571V72.9453H38.0773L35.531 79.2651Z" fill="white"/>
<path d="M50.1257 72.9453H47.6819V81.5935H49.425V78.1376H50.137C51.5782 78.1376 52.7403 76.9762 52.7403 75.5499C52.7403 74.1067 51.5783 72.9453 50.1257 72.9453ZM50.1257 76.4012H49.425V74.6761H50.1257C50.6099 74.6761 51.0029 75.0651 51.0029 75.5443C51.0029 76.0122 50.6099 76.4012 50.1257 76.4012Z" fill="white"/>
<path d="M62.469 72.9453L59.3132 81.5935H61.1702L62.0589 79.1749H64.7419L65.6305 81.5935H67.4876L64.3318 72.9453H62.469ZM62.6855 77.4385L63.3862 75.4879L64.0982 77.4385H62.6855Z" fill="white"/>
<path d="M82.2477 72.9453H80.5103V78.7183L77.0184 72.9453H74.9734V81.5935H76.7165V75.8318L80.2198 81.5935H82.2477V72.9453Z" fill="white"/>
<path d="M93.7657 81.5935V77.4723L96.0442 72.9453H94.0961L92.8998 75.3413L91.6864 72.9453H89.7383L92.0226 77.4723V81.5935H93.7657Z" fill="white"/>
<path d="M0.0996094 85.794H1.10787V88.9623H1.67181V85.794H2.68577V85.2979H0.0996094V85.794Z" fill="white"/>
<path d="M6.77599 85.2979L5.43164 88.9623H6.02407L6.3089 88.1449H7.71021L7.99503 88.9623H8.58747L7.2431 85.2979H6.77599ZM6.47408 87.6488L7.00954 86.0477H7.02095L7.55641 87.6488H6.47408Z" fill="white"/>
<path d="M13.2182 87.4687H13.9701V87.6604C13.9645 87.8916 13.8961 88.0776 13.7537 88.2186C13.6113 88.3651 13.429 88.4384 13.2125 88.4384C13.0815 88.4384 12.9676 88.4102 12.8707 88.3539C12.7739 88.3088 12.6942 88.2467 12.6372 88.1678C12.5631 88.0889 12.5176 87.9874 12.4948 87.8577C12.4663 87.7281 12.4549 87.4857 12.4549 87.1248C12.4549 86.764 12.4663 86.5216 12.4948 86.3863C12.5176 86.2623 12.5688 86.1608 12.6372 86.0819C12.6942 86.0086 12.7739 85.9409 12.8707 85.8958C12.9676 85.8451 13.0815 85.8226 13.2125 85.8169C13.3948 85.8226 13.5429 85.8733 13.6682 85.9691C13.7879 86.0706 13.8733 86.2003 13.9189 86.3469H14.5113C14.4544 86.0424 14.3119 85.7831 14.0841 85.5745C13.8562 85.3659 13.5657 85.2644 13.2125 85.2588C12.922 85.2644 12.6771 85.3321 12.4834 85.4674C12.284 85.597 12.1416 85.7493 12.0505 85.9184C11.9935 86.0086 11.9536 86.1213 11.9251 86.2679C11.9023 86.4145 11.8853 86.6964 11.8853 87.1248C11.8853 87.542 11.8967 87.8295 11.9251 87.9761C11.9365 88.0551 11.9536 88.1227 11.9764 88.1734C11.9992 88.2242 12.022 88.2749 12.0505 88.3313C12.1416 88.5004 12.284 88.647 12.4834 88.7767C12.6771 88.912 12.922 88.9796 13.2125 88.9853C13.5885 88.9796 13.9018 88.85 14.1524 88.6076C14.3974 88.3595 14.5284 88.0494 14.5341 87.683V86.9388H13.2182V87.4687Z" fill="white"/>
<path d="M18.8691 85.2979H18.3052V88.9623H20.6692V88.438H18.8691V85.2979Z" fill="white"/>
<path d="M24.8844 85.2979H24.3208V88.9623H24.8844V85.2979Z" fill="white"/>
<path d="M30.9967 87.9024H30.9853L29.3105 85.2979H28.7808V88.9623H29.339V86.3577H29.3504L31.0252 88.9623H31.5549V85.2979H30.9967V87.9024Z" fill="white"/>
<path d="M35.4575 88.9623H37.8215V88.438H36.0215V87.3612H37.5595V86.8651H36.0215V85.8222H37.8215V85.2979H35.4575V88.9623Z" fill="white"/>
<path d="M47.0378 87.4687H47.7897V87.6604C47.784 87.8916 47.7157 88.0776 47.5732 88.2186C47.4308 88.3651 47.2486 88.4384 47.0321 88.4384C46.9011 88.4384 46.7871 88.4102 46.6903 88.3539C46.5935 88.3088 46.5137 88.2467 46.4568 88.1678C46.3827 88.0889 46.3371 87.9874 46.3144 87.8577C46.2859 87.7281 46.2745 87.4857 46.2745 87.1248C46.2745 86.764 46.2859 86.5216 46.3144 86.3863C46.3371 86.2623 46.3884 86.1608 46.4568 86.0819C46.5137 86.0086 46.5935 85.9409 46.6903 85.8958C46.7871 85.8451 46.9011 85.8226 47.0321 85.8169C47.2087 85.8226 47.3625 85.8733 47.4878 85.9691C47.6074 86.0706 47.6929 86.2003 47.7385 86.3469H48.3309C48.2739 86.0424 48.1315 85.7831 47.9036 85.5745C47.6758 85.3659 47.3853 85.2644 47.0321 85.2588C46.7416 85.2644 46.4966 85.3321 46.303 85.4674C46.1036 85.597 45.9612 85.7493 45.87 85.9184C45.8131 86.0086 45.7732 86.1213 45.7447 86.2679C45.7219 86.4145 45.7048 86.6964 45.7048 87.1248C45.7048 87.542 45.7162 87.8295 45.7447 87.9761C45.7561 88.0551 45.7732 88.1227 45.796 88.1734C45.8187 88.2242 45.8415 88.2749 45.87 88.3313C45.9612 88.5004 46.1036 88.647 46.303 88.7767C46.4966 88.912 46.7416 88.9796 47.0321 88.9853C47.4081 88.9796 47.7214 88.85 47.972 88.6076C48.2169 88.3595 48.348 88.0494 48.3537 87.683V86.9388H47.0378V87.4687Z" fill="white"/>
<path d="M54.4831 85.9233C54.3977 85.7541 54.2553 85.6019 54.0616 85.4723C53.8679 85.337 53.6173 85.2693 53.3268 85.2637C53.0363 85.2693 52.7913 85.337 52.5976 85.4723C52.3983 85.6019 52.2558 85.7541 52.1647 85.9233C52.1077 86.0135 52.0679 86.1262 52.0394 86.2728C52.0166 86.4194 51.9995 86.7013 51.9995 87.1297C51.9995 87.5469 52.0109 87.8344 52.0394 87.981C52.0508 88.0599 52.0679 88.1276 52.0906 88.1783C52.1134 88.2291 52.1362 88.2798 52.1647 88.3362C52.2558 88.5053 52.3983 88.6519 52.5976 88.7816C52.7913 88.9169 53.0363 88.9845 53.3268 88.9902C53.623 88.9845 53.8679 88.9112 54.0616 88.7816C54.2553 88.6519 54.3977 88.5053 54.4831 88.3362C54.5458 88.246 54.5914 88.1276 54.6142 87.981C54.637 87.8344 54.6484 87.5526 54.6484 87.1297C54.6484 86.7013 54.637 86.4194 54.6142 86.2728C54.5857 86.1319 54.5458 86.0135 54.4831 85.9233ZM54.0445 87.857C54.0161 87.9867 53.9648 88.0881 53.8964 88.1671C53.8395 88.2404 53.7654 88.3024 53.6743 88.3531C53.5774 88.4095 53.4578 88.4377 53.3268 88.4377C53.1958 88.4377 53.0818 88.4095 52.985 88.3531C52.8881 88.308 52.8084 88.246 52.7514 88.1671C52.6774 88.0881 52.6318 87.9867 52.609 87.857C52.5806 87.7273 52.5692 87.4849 52.5692 87.1241C52.5692 86.7633 52.5806 86.5209 52.609 86.3856C52.6318 86.2615 52.6831 86.1601 52.7514 86.0811C52.8084 86.0078 52.8881 85.9402 52.985 85.8951C53.0818 85.8444 53.1958 85.8218 53.3268 85.8162C53.4578 85.8218 53.5774 85.8444 53.6743 85.8951C53.7654 85.9458 53.8395 86.0078 53.8964 86.0811C53.9705 86.1601 54.0218 86.2615 54.0445 86.3856C54.0673 86.5152 54.0844 86.7633 54.0844 87.1241C54.0844 87.4905 54.073 87.733 54.0445 87.857Z" fill="white"/>
<path d="M58.4194 88.9623H60.7834V88.438H58.9834V87.3612H60.5214V86.8651H58.9834V85.8222H60.7834V85.2979H58.4194V88.9623Z" fill="white"/>
<path d="M65.8079 86.8706C65.6313 86.8481 65.4946 86.8312 65.392 86.8142C65.2098 86.7804 65.0787 86.7184 64.9933 86.6338C64.9078 86.5493 64.868 86.4534 64.868 86.3463C64.8737 86.1715 64.9306 86.0362 65.0559 85.9517C65.1699 85.8671 65.3123 85.822 65.4889 85.822C65.825 85.8277 66.1269 85.9235 66.406 86.1039L66.7193 85.6473C66.3775 85.4048 65.9788 85.2752 65.5174 85.2695C65.1357 85.2752 64.8395 85.371 64.6287 85.5683C64.4122 85.7656 64.304 86.025 64.304 86.3407C64.304 86.6056 64.3895 86.8312 64.5604 87.0172C64.7256 87.1976 64.9705 87.316 65.2895 87.3667C65.4661 87.3893 65.6313 87.4118 65.7794 87.4344C66.1041 87.4908 66.2636 87.6542 66.2636 87.9249C66.2579 88.2575 66.013 88.4266 65.5345 88.4322C65.13 88.4266 64.7768 88.3082 64.4806 88.0658L64.1104 88.483C64.5034 88.8156 64.9762 88.9847 65.5231 88.9847C66.3718 88.9735 66.8048 88.6183 66.8219 87.9192C66.8219 87.6599 66.7421 87.4344 66.5769 87.2371C66.4117 87.0397 66.1554 86.9214 65.8079 86.8706Z" fill="white"/>
<path d="M76.927 86.8651H75.463V85.2979H74.9048V88.9623H75.463V87.3612H76.927V88.9623H77.491V85.2979H76.927V86.8651Z" fill="white"/>
<path d="M81.3931 88.9623H83.7571V88.438H81.957V87.3612H83.495V86.8651H81.957V85.8222H83.7571V85.2979H81.3931V88.9623Z" fill="white"/>
<path d="M89.9716 86.3185C89.9603 85.9803 89.8406 85.7209 89.6014 85.5349C89.4077 85.3714 89.1571 85.2925 88.8495 85.2925H87.4026V88.9569H87.9665V87.3897H88.6843L89.4476 88.9569H90.1141L89.2539 87.3333C89.7267 87.1585 89.966 86.8203 89.9716 86.3185ZM87.9665 86.9048V85.7942H88.8438C89.0204 85.7942 89.1628 85.8337 89.2539 85.907C89.3736 85.9915 89.4362 86.1325 89.4419 86.3242C89.4419 86.482 89.3906 86.6173 89.2881 86.7244C89.1856 86.8428 89.0261 86.8992 88.8153 86.9048H87.9665Z" fill="white"/>
<path d="M93.6973 88.9623H96.0613V88.438H94.2555V87.3612H95.7992V86.8651H94.2555V85.8222H96.0613V85.2979H93.6973V88.9623Z" fill="white"/>
</svg>
