<svg width="75" height="69" viewBox="0 0 75 69" fill="none" xmlns="http://www.w3.org/2000/svg">
<path d="M7.98782 61.0519L8.01009 60.986L6.83019 60.7227L6.80793 60.7885C6.66879 61.3609 6.40165 61.7965 6.01206 62.0954C5.6169 62.3841 5.13826 62.531 4.56501 62.531C4.0975 62.531 3.66896 62.4246 3.25711 62.2119C2.86196 61.9991 2.56698 61.6699 2.38331 61.2343C2.18295 60.7986 2.0939 60.2769 2.0939 59.6943C2.0939 59.2385 2.17739 58.7927 2.33879 58.3672C2.50019 57.9417 2.78404 57.6023 3.16806 57.349C3.56321 57.1059 4.06411 56.9792 4.6485 56.9792C5.16053 56.9792 5.58351 57.0856 5.92301 57.3186C6.26251 57.5415 6.51852 57.9012 6.69106 58.4027L6.71332 58.4533L7.88208 58.2102L7.85983 58.1443C7.6372 57.4858 7.25317 56.964 6.70218 56.5943C6.15119 56.2346 5.47776 56.0522 4.67076 56.0522C3.9695 56.0522 3.31833 56.189 2.72281 56.4778C2.13843 56.7766 1.67092 57.2021 1.35925 57.7543C1.04202 58.3064 0.880615 58.9649 0.880615 59.6994C0.880615 60.3782 1.01975 61.0266 1.30359 61.6091C1.58187 62.2018 2.00486 62.6729 2.55028 62.9819C3.08457 63.301 3.79697 63.458 4.66519 63.458C5.49446 63.458 6.20685 63.2453 6.79123 62.84C7.37005 62.4297 7.7652 61.8269 7.98782 61.0519Z" fill="white"/>
<path d="M17.4994 56.5137C16.9039 56.1946 16.2249 56.0376 15.4903 56.0376C14.3605 56.0376 13.4255 56.377 12.7131 57.0456C12.0007 57.7143 11.6389 58.6615 11.6389 59.8418C11.6389 60.4699 11.7892 61.0626 12.1064 61.6248C12.4125 62.1871 12.8633 62.6329 13.4589 62.9621C14.0544 63.2914 14.7334 63.4484 15.4792 63.4484C16.1804 63.4484 16.8316 63.3015 17.4271 63.0027C18.0338 62.7139 18.5012 62.2682 18.8407 61.6958C19.1691 61.1335 19.3305 60.475 19.3305 59.7506C19.3305 59.0364 19.1691 58.4032 18.863 57.8358C18.5513 57.2786 18.095 56.8329 17.4994 56.5137ZM17.3714 61.8072C16.8817 62.2833 16.2416 62.5316 15.4792 62.5316C14.7334 62.5316 14.1045 62.2884 13.598 61.8173C13.1082 61.3412 12.8522 60.6827 12.8522 59.8519C12.8522 58.8236 13.1194 58.0688 13.6314 57.6332C14.1434 57.1976 14.7779 56.9747 15.4847 56.9747C15.9967 56.9747 16.4531 57.0912 16.8594 57.3141C17.2546 57.537 17.5718 57.8662 17.7833 58.2816C17.9948 58.697 18.1005 59.1934 18.1005 59.7607C18.1061 60.6371 17.8612 61.326 17.3714 61.8072Z" fill="white"/>
<path d="M31.0842 56.2812H29.955V63.454H31.0842V56.2812Z" fill="white"/>
<path d="M27.3059 62.1674L26.9887 61.3164L25.1075 56.2812H24.9795V58.8849L26.7159 63.454H27.7567L29.5321 58.895V56.3471L27.651 61.2252C27.5007 61.6152 27.3838 61.9242 27.3059 62.1674Z" fill="white"/>
<path d="M24.5614 56.2812H23.4155V63.454H24.5614V56.2812Z" fill="white"/>
<path d="M36.3493 56.2812H35.17V63.454H36.3493V56.2812Z" fill="white"/>
<path d="M40.4238 56.6966C40.1567 56.5244 39.8172 56.4079 39.4332 56.3572C39.1549 56.3066 38.743 56.2812 38.2199 56.2812H36.7728V57.2386H38.3034C38.7709 57.2386 39.0825 57.2589 39.2606 57.3045C39.5166 57.3703 39.7281 57.497 39.8784 57.6996C40.0398 57.9022 40.1122 58.1352 40.1122 58.424C40.1122 58.8089 39.9842 59.1027 39.717 59.3155C39.4499 59.5282 38.9824 59.6346 38.3256 59.6346H36.7728V60.6021H38.3145C39.4332 60.6021 40.2402 60.3792 40.6743 59.9537C41.1195 59.5282 41.3422 59.0065 41.3422 58.3936C41.3422 58.0339 41.2587 57.7046 41.0973 57.4058C40.9136 57.1018 40.7021 56.8537 40.4238 56.6966Z" fill="white"/>
<path d="M49.7126 56.2812H48.4993L45.416 63.454H46.6627L47.0133 62.6131H47.0022L47.8871 60.435L48.0763 59.9892L48.7275 58.4088H48.7387C48.8778 58.0593 48.9947 57.6945 49.0893 57.345C49.2062 57.6844 49.3676 58.0998 49.5679 58.5658L50.3638 60.435H48.3435L47.9817 61.3164H50.7367L51.6606 63.454H53.0019L49.7126 56.2812Z" fill="white"/>
<path d="M58.4955 58.5757L61.7402 62.9118V61.073L58.4955 56.7471V58.5757Z" fill="white"/>
<path d="M62.1797 61.6659L62.1575 61.6355V63.454H63.3256V56.2812H62.1797V61.6659Z" fill="white"/>
<path d="M58.0717 56.2812H56.9758V63.454H58.0717V56.2812Z" fill="white"/>
<path d="M71.975 58.3834C71.6689 58.7988 71.4018 59.1888 71.168 59.5333V59.5232L70.5168 60.4248V63.454H71.7079V60.4248L74.9192 56.2812H73.5278L71.975 58.3834Z" fill="white"/>
<path d="M70.4335 58.4392L68.8584 56.2812H67.4114L70.2609 60.0855L70.9232 59.1483L70.4335 58.4392Z" fill="white"/>
<path d="M0.880615 66.7215H1.75997V68.9453H2.34992V66.7215H3.22371V66.2656H0.880615V66.7215Z" fill="white"/>
<path d="M8.86721 66.2656H8.2383L7.0918 68.9453H7.72071L7.96559 68.3374H9.14549L9.39593 68.9453H10.0471L8.86721 66.2656ZM8.14368 67.8815L8.54997 66.8887L8.95626 67.8815H8.14368Z" fill="white"/>
<path d="M15.5126 67.9567H16.1972V68.3012C15.9801 68.4531 15.752 68.524 15.496 68.524C15.2232 68.524 15.0117 68.4379 14.867 68.2708C14.7223 68.0985 14.65 67.8655 14.65 67.5717C14.65 66.974 14.9338 66.6751 15.5015 66.6751C15.8521 66.6751 16.0748 66.817 16.1694 67.1057L16.7538 67.0044C16.6257 66.4776 16.2083 66.2192 15.5015 66.2192C15.0952 66.2192 14.7502 66.3357 14.4663 66.5637C14.1825 66.7916 14.0433 67.1361 14.0433 67.597C14.0433 68.0073 14.1713 68.3417 14.4274 68.6C14.6834 68.8584 15.0563 68.9901 15.546 68.9901C16.0525 68.9901 16.4699 68.8533 16.7983 68.5747V67.5059H15.5182V67.9567H15.5126Z" fill="white"/>
<path d="M23.3766 66.2656H22.7811V68.9453H24.8515V68.4945H23.3766V66.2656Z" fill="white"/>
<path d="M29.66 66.2656H29.0592V68.9453H29.66V66.2656Z" fill="white"/>
<path d="M35.7991 68.0588L34.5858 66.2656H34.007V68.9453H34.5635V67.1977L35.7546 68.9453H36.3445V66.2656H35.7991V68.0588Z" fill="white"/>
<path d="M41.3535 67.765H42.8284V67.3091H41.3535V66.7215H42.9397V66.2656H40.7524V68.9453H43.0009V68.4945H41.3535V67.765Z" fill="white"/>
<path d="M54.3823 67.3243H53.2191V66.2656H52.6235V68.9453H53.2191V67.7752H54.3823V68.9453H54.9778V66.2656H54.3823V67.3243Z" fill="white"/>
<path d="M59.97 67.765H61.4449V67.3091H59.97V66.7215H61.5562V66.2656H59.3689V68.9453H61.6174V68.4945H59.97V67.765Z" fill="white"/>
<path d="M67.5448 67.7644C68.0624 67.6934 68.3184 67.4452 68.3184 67.0197C68.3184 66.7259 68.2238 66.5284 68.0345 66.427C67.8453 66.3207 67.5559 66.27 67.1663 66.27H65.9141V68.9497H66.504V67.8302H66.6209C66.7878 67.8302 66.9103 67.8505 66.9882 67.891C67.0661 67.9315 67.1385 67.9974 67.1997 68.0835L67.8453 68.9497H68.5577L68.1959 68.4279C67.9566 68.0784 67.7396 67.8606 67.5448 67.7644ZM66.9437 67.3946H66.504V66.7158H66.9715C67.2888 66.7158 67.4947 66.7361 67.5782 66.7816C67.6616 66.8272 67.7062 66.9134 67.7062 67.0501C67.7062 67.192 67.6561 67.2831 67.5503 67.3287C67.4446 67.3743 67.2442 67.3946 66.9437 67.3946Z" fill="white"/>
<path d="M73.2551 67.765H74.73V67.3091H73.2551V66.7215H74.8413V66.2656H72.6541V68.9453H74.9025V68.4945H73.2551V67.765Z" fill="white"/>
<path d="M35.3537 40.5675V41.611H35.2981V41.6515H34.1516H19.4195H18.017L18.2953 40.4003C18.3454 40.1774 18.4011 39.9596 18.4511 39.752C18.5012 39.5544 18.5625 39.3518 18.6237 39.1492L18.6571 39.0377L18.6905 38.9313C18.7406 38.7743 18.7906 38.6274 18.8407 38.4754V38.4704L18.8463 38.4552C18.8908 38.3336 18.9353 38.212 18.9854 38.0854C19.0355 37.9486 19.0912 37.8119 19.1468 37.6751C19.2136 37.5029 19.2915 37.3256 19.3695 37.1533C19.4362 37.0014 19.503 36.8595 19.581 36.7025C19.6088 36.6417 19.6366 36.5759 19.6756 36.5151C19.7479 36.3682 19.8147 36.2365 19.8815 36.1098C19.9093 36.0541 19.9371 35.9984 19.9705 35.9477C20.0429 35.816 20.1208 35.6793 20.1987 35.5476C20.2266 35.4969 20.2599 35.4361 20.3045 35.3703C20.3045 35.3652 20.31 35.3652 20.31 35.3602L20.3156 35.345L20.3267 35.3247C20.4269 35.1525 20.5215 35.0005 20.6161 34.8587C20.7052 34.7219 20.7998 34.575 20.9056 34.4281L20.9445 34.3775C20.9723 34.3369 21.0057 34.2913 21.0336 34.2508L21.0725 34.1951C21.1727 34.0482 21.2896 33.8912 21.4009 33.7443C21.5289 33.5771 21.6625 33.4049 21.8127 33.2225C21.9129 33.0959 22.0187 32.9692 22.1578 32.8071L22.1689 32.797L22.1801 32.7869L22.2079 32.7565C22.2469 32.7058 22.2969 32.6552 22.3359 32.6096C22.4472 32.483 22.5641 32.3512 22.6921 32.2195C22.7199 32.1841 22.7478 32.1638 22.7645 32.1435C22.8925 32.0068 23.0149 31.8802 23.154 31.7484C23.193 31.7079 23.2319 31.6674 23.2765 31.6319C23.41 31.5002 23.5547 31.3635 23.744 31.1912C25.1743 29.8894 26.7828 28.8054 28.5415 27.9645H19.9483C17.6998 30.0363 15.9299 32.4373 14.6833 35.1119C13.3698 37.9283 12.7019 40.9221 12.6964 44.012L12.6908 46.0281V46.3726H40.4128V26.921V25.8775H40.4184V25.295L40.4128 22.129V6.78054V5.73705H40.4796L41.6261 5.7269H56.3581H57.7607L57.4824 6.97809C56.7032 10.4682 54.8165 13.6544 52.0281 16.1872C51.4382 16.7241 50.8204 17.2206 50.1692 17.6815H57.5158C58.9795 16.0352 60.1761 14.2167 61.0833 12.2665C62.3912 9.45006 63.0591 6.45634 63.0702 3.37144L63.0758 1.00586H35.3426V40.5675H35.3537Z" fill="white"/>
<path d="M17.9003 21.1514V20.1079V6.75524V5.48381L19.2694 5.73202C23.1263 6.43106 26.6493 8.14827 29.4432 10.6962C29.6324 10.8685 29.8217 11.0508 30.0053 11.2332V4.95699C28.4859 3.95909 26.8441 3.12328 25.1188 2.4597C22.0243 1.2693 18.7351 0.666504 15.3345 0.666504H12.702V24.4947H30.0053V21.1565H19.0412H17.9003V21.1514Z" fill="white"/>
<path d="M57.5213 24.4843V25.5278V40.2685V41.5349L56.1522 41.2866C52.3008 40.5927 48.7834 38.8805 45.9728 36.3275C45.9115 36.2718 45.8559 36.2211 45.7947 36.1654V42.32C47.1972 43.2014 48.7055 43.9562 50.2916 44.564C53.3917 45.7595 56.6809 46.3623 60.0759 46.3623H62.7084V21.1411H45.8002V24.4793H56.3748H57.5213V24.4843Z" fill="white"/>
</svg>
