<svg width="92" height="77" viewBox="0 0 92 77" fill="none" xmlns="http://www.w3.org/2000/svg">
<path d="M41.6363 13.2652L49.6436 23.7311C50.5491 23.7171 51.4545 23.7125 52.3723 23.7125C54.7129 23.7125 57.0288 23.7543 59.3017 23.8287L41.6363 0.745117L22.2278 26.1105C25.597 25.5296 29.1757 25.0463 32.9145 24.6652L41.6363 13.2652ZM27.2601 23.3825L41.6363 4.5978L54.7991 21.8024C53.986 21.7931 53.1792 21.7885 52.3661 21.7885C51.9473 21.7885 51.5284 21.7885 51.1034 21.7931L43.8414 12.3032L41.6301 9.41249L39.4189 12.3032L31.3192 22.8899C29.9518 23.0386 28.5967 23.2013 27.2601 23.3825Z" fill="white"/>
<path d="M29.7299 58.3543C19.7208 55.0361 13.5982 50.5932 13.5982 45.7134C13.5982 44.0868 14.2758 42.5114 15.5508 41.0103H72.4459L62.0795 27.4678C66.0216 27.2215 70.1053 27.0913 74.2876 27.0913C79.9235 27.0913 85.3746 27.3284 90.5486 27.7699C90.253 27.6955 89.945 27.6258 89.637 27.5561C89.9388 27.6258 90.2468 27.6955 90.5486 27.7699C90.8935 27.7977 91.2385 27.8303 91.5896 27.8628C90.678 27.6862 89.7479 27.5236 88.8055 27.3609C80.3547 25.9388 70.6289 25.1255 60.2809 25.1162C60.2193 25.1162 60.1577 25.1162 60.0961 25.1162C57.7432 25.1162 55.4149 25.158 53.1359 25.2417C52.3722 25.2696 51.6207 25.3021 50.8693 25.3346C43.6565 25.6739 36.8811 26.4128 30.7832 27.4678C30.2535 27.5607 29.7361 27.6537 29.2187 27.7466C25.6031 28.4159 22.2462 29.2013 19.1972 30.0843C7.95616 33.3374 0.958994 37.9244 0.958994 43.004C0.946675 49.5196 12.4895 55.2266 29.7299 58.3543ZM53.1051 28.2532L58.0758 34.7456H25.2273C32.1814 31.8177 41.8518 29.5359 53.1051 28.2532Z" fill="white"/>
<path d="M6.43451 71.1718C6.74864 71.0649 7.01966 70.9162 7.25372 70.7349C7.48778 70.549 7.67256 70.3399 7.80191 70.1029C7.93742 69.8659 7.99902 69.6149 7.99902 69.35V68.8202H6.37291V69.2385C6.37291 69.4058 6.34212 69.5452 6.27437 69.6567C6.21277 69.7683 6.1327 69.8566 6.03415 69.9216C5.92944 69.9867 5.81241 70.0332 5.68922 70.061C5.56603 70.0889 5.45515 70.1029 5.34428 70.1029C4.97471 70.1029 4.71601 70.0192 4.57434 69.8519C4.43268 69.6846 4.35877 69.4755 4.35877 69.2292V64.856C4.35877 64.5678 4.42652 64.3308 4.55587 64.1403C4.69137 63.9544 4.95623 63.8568 5.36276 63.8568C5.67073 63.8568 5.91711 63.9451 6.09574 64.1217C6.27436 64.2983 6.36675 64.5074 6.36675 64.7444V65.1534H7.99286V64.6747C7.99286 64.3773 7.92511 64.1031 7.79576 63.8521C7.66025 63.6012 7.48163 63.3828 7.24756 63.1969C6.76713 62.8204 6.15118 62.6299 5.38124 62.6299C4.98704 62.6299 4.62979 62.681 4.30333 62.7786C3.97688 62.8808 3.69971 63.0156 3.46565 63.1922C3.23159 63.3688 3.05296 63.5779 2.92361 63.815C2.79426 64.0566 2.73267 64.3169 2.73267 64.5957V69.3082C2.73267 69.6986 2.81274 70.0239 2.97904 70.2748C3.14535 70.5258 3.35477 70.7349 3.60731 70.8929C3.85985 71.0556 4.14934 71.1671 4.46963 71.2275C4.78993 71.2926 5.10406 71.3251 5.41203 71.3251C5.78776 71.3344 6.12038 71.2787 6.43451 71.1718Z" fill="white"/>
<path d="M21.0448 64.7258C21.0448 64.3819 20.9647 64.0752 20.8046 63.8149C20.6445 63.55 20.4412 63.3316 20.1825 63.155C19.9176 62.9877 19.622 62.8576 19.3017 62.7693C18.9753 62.681 18.6488 62.6392 18.3223 62.6392C17.9959 62.6392 17.6694 62.681 17.343 62.7693C17.0165 62.8576 16.727 62.9877 16.4745 63.155C16.2096 63.3316 15.9941 63.55 15.8401 63.8149C15.6799 64.0798 15.5999 64.3819 15.5999 64.7258V69.2431C15.5999 69.6056 15.6799 69.9123 15.8401 70.1679C16.0002 70.4235 16.2096 70.6373 16.4745 70.8046C16.727 70.9812 17.0165 71.1113 17.343 71.1996C17.6694 71.2879 17.9959 71.3298 18.3223 71.3298C18.6488 71.3298 18.9753 71.2833 19.3017 71.1996C19.6282 71.1113 19.9176 70.9812 20.1825 70.8046C20.435 70.6373 20.6445 70.4235 20.8046 70.1679C20.9647 69.9123 21.0448 69.6009 21.0448 69.2431V64.7258ZM19.4249 69.2431C19.4249 69.5405 19.314 69.759 19.0984 69.8984C18.8829 70.0378 18.6242 70.1075 18.3285 70.1075C18.0328 70.1075 17.7741 70.0378 17.5586 69.8984C17.343 69.759 17.2321 69.5405 17.2321 69.2431V64.7258C17.2321 64.4284 17.343 64.21 17.5586 64.0706C17.7741 63.9311 18.0328 63.8614 18.3285 63.8614C18.6242 63.8614 18.8829 63.9311 19.0984 64.0706C19.314 64.21 19.4249 64.4284 19.4249 64.7258V69.2431Z" fill="white"/>
<path d="M32.5327 67.2353H32.4958L30.4139 62.7041H28.8494V71.2599H30.4755V66.0595H30.5062L32.1016 69.7356H32.9146L34.5222 66.0595H34.553V71.2599H36.1791V62.7041H34.6023L32.5327 67.2353Z" fill="white"/>
<path d="M48.6147 63.308C48.3376 63.0849 48.0296 62.9269 47.6908 62.8386C47.352 62.7503 46.9578 62.7085 46.5143 62.7085H44.0752V71.2643H45.7013V67.9229H46.5267C47.1303 67.9229 47.623 67.8439 47.9926 67.6905C48.3622 67.5325 48.664 67.3141 48.8857 67.0352C49.0767 66.8028 49.1999 66.5565 49.2615 66.2916C49.3169 66.0267 49.3477 65.7014 49.3477 65.3203C49.3477 64.8091 49.2923 64.4001 49.1876 64.1027C49.0828 63.7913 48.8919 63.5311 48.6147 63.308ZM47.7955 65.9152C47.777 66.0918 47.7278 66.2405 47.6415 66.3613C47.5553 66.4915 47.4259 66.5891 47.2412 66.6634C47.0625 66.7378 46.8038 66.7703 46.4774 66.7703H45.6951V63.8611H46.539C46.8593 63.8611 47.0995 63.8982 47.2719 63.9679C47.4444 64.0423 47.5676 64.1445 47.6539 64.2793C47.7401 64.4141 47.7893 64.5721 47.7955 64.7534C47.8078 64.9346 47.814 65.1251 47.814 65.325C47.8201 65.5434 47.8078 65.7386 47.7955 65.9152Z" fill="white"/>
<path d="M58.1375 62.7041L55.606 71.2599H57.2321L57.7125 69.4196H59.9238L60.4042 71.2599H62.0303L59.4988 62.7041H58.1375ZM57.9958 68.267L58.7904 65.1672H58.8212L59.6158 68.267H57.9958Z" fill="white"/>
<path d="M74.7927 71.2599V62.7041H73.1728V67.8627H73.1358L70.6843 62.7041H69.126V71.2599H70.7521V66.1199H70.7829L73.2651 71.2599H74.7927Z" fill="white"/>
<path d="M85.7692 71.2599V67.6443L87.9989 62.7041H86.2742L84.9684 66.106H84.9376L83.6318 62.7041H81.9133L84.1431 67.6443V71.2599H85.7692Z" fill="white"/>
<path d="M4.11261 76.9668V74.8197H5.0119V74.4805H2.70825V74.8197H3.6137V76.9668H4.11261Z" fill="white"/>
<path d="M8.65197 74.4805L7.45703 76.9622H7.98675L8.23929 76.4045H9.48966L9.74219 76.9622H10.2658L9.07081 74.4805H8.65197ZM8.38095 76.0745L8.85524 74.9917H8.86755L9.34183 76.0745H8.38095Z" fill="white"/>
<path d="M13.8569 75.0196C13.9123 74.9685 13.9801 74.9266 14.0663 74.8941C14.1525 74.8616 14.2511 74.843 14.3681 74.843C14.5283 74.8477 14.6638 74.8802 14.7746 74.9452C14.8794 75.015 14.9533 75.0986 14.9964 75.2008H15.5261C15.4707 74.9917 15.3475 74.8198 15.1442 74.6757C14.9471 74.5363 14.6822 74.4666 14.3681 74.4619C14.1094 74.4619 13.8938 74.5084 13.7214 74.6013C13.5427 74.6896 13.4195 74.7919 13.3395 74.9081C13.2902 74.9685 13.2532 75.0475 13.2286 75.1451C13.204 75.2427 13.1917 75.4379 13.1917 75.726C13.1917 76.0095 13.204 76.2 13.2286 76.3023C13.2409 76.3534 13.2532 76.3999 13.2717 76.4371C13.2902 76.4696 13.3148 76.5068 13.3395 76.5439C13.4195 76.6601 13.5489 76.7577 13.7214 76.846C13.8938 76.939 14.1094 76.9854 14.3681 76.9901C14.7007 76.9854 14.9841 76.9018 15.2058 76.7345C15.4275 76.5672 15.5384 76.3581 15.5446 76.1071V75.6005H14.3743V75.9584H15.0457V76.0885C15.0395 76.2419 14.9779 76.3673 14.8547 76.4649C14.7254 76.5672 14.5652 76.6137 14.3743 76.6137C14.2572 76.6137 14.1587 76.5951 14.0725 76.5579C13.9862 76.5254 13.9185 76.4835 13.863 76.4324C13.8014 76.3813 13.7583 76.3069 13.7337 76.2233C13.709 76.135 13.6967 75.9723 13.6967 75.726C13.6967 75.4797 13.709 75.317 13.7337 75.2287C13.7522 75.1404 13.7953 75.0707 13.8569 75.0196Z" fill="white"/>
<path d="M18.9014 74.4805V76.9668H21.0018V76.609H19.4003V74.4805H18.9014Z" fill="white"/>
<path d="M24.7467 74.4805H24.248V76.9622H24.7467V74.4805Z" fill="white"/>
<path d="M28.2144 74.4805V76.9668H28.7133V75.2008H28.7194L30.21 76.9668H30.6781V74.4805H30.1792V76.2465H30.1731L28.6825 74.4805H28.2144Z" fill="white"/>
<path d="M36.2527 74.8383V74.4805H34.1523V76.9668H36.2527V76.609H34.6513V75.8793H36.0187V75.5447H34.6513V74.8383H36.2527Z" fill="white"/>
<path d="M43.41 74.9083C43.3607 74.9687 43.3238 75.0477 43.2991 75.1453C43.2745 75.2429 43.2683 75.4381 43.2683 75.7262C43.2683 76.0097 43.2806 76.2003 43.2991 76.3025C43.3114 76.3536 43.3238 76.4001 43.3422 76.4373C43.3607 76.4698 43.3853 76.507 43.41 76.5442C43.4901 76.6604 43.6194 76.758 43.7919 76.8463C43.9643 76.9392 44.1799 76.9857 44.4386 76.9903C44.7712 76.9857 45.0546 76.902 45.2763 76.7347C45.498 76.5674 45.6089 76.3583 45.6151 76.1073V75.6008H44.4448V75.9586H45.1162V76.0887C45.11 76.2421 45.0484 76.3676 44.9191 76.4652C44.7897 76.5674 44.6296 76.6139 44.4386 76.6139C44.3216 76.6139 44.223 76.5953 44.1368 76.5581C44.0506 76.5256 43.9828 76.4838 43.9274 76.4326C43.8658 76.3815 43.8227 76.3072 43.798 76.2235C43.7734 76.1352 43.7611 75.9725 43.7611 75.7262C43.7611 75.4799 43.7734 75.3173 43.798 75.229C43.8165 75.1453 43.8596 75.0756 43.9274 75.0245C43.9828 74.9734 44.0506 74.9315 44.1368 74.899C44.223 74.8665 44.3216 74.8479 44.4386 74.8479C44.5988 74.8525 44.7343 74.8851 44.8452 74.9501C44.9499 75.0198 45.0238 75.1035 45.0669 75.2057H45.5966C45.5412 74.9966 45.418 74.8246 45.2147 74.6806C45.0114 74.5412 44.7528 74.4714 44.4386 74.4668C44.1799 74.4668 43.9643 74.5133 43.7919 74.6062C43.6194 74.6899 43.4901 74.7921 43.41 74.9083Z" fill="white"/>
<path d="M49.0031 74.9081C48.9538 74.9685 48.9168 75.0475 48.8922 75.1451C48.8675 75.2427 48.8552 75.4379 48.8552 75.726C48.8552 76.0095 48.8675 76.2 48.8922 76.3023C48.9045 76.3534 48.9168 76.3999 48.9353 76.4371C48.9538 76.4696 48.9784 76.5068 49.0031 76.5439C49.0831 76.6601 49.2125 76.7577 49.3849 76.846C49.5574 76.939 49.773 76.9854 50.0317 76.9901C50.2965 76.9854 50.5121 76.939 50.6846 76.846C50.8571 76.7577 50.9803 76.6555 51.0603 76.5439C51.1158 76.4835 51.1527 76.4045 51.1774 76.3023C51.1958 76.2047 51.2081 76.0095 51.2081 75.726C51.2081 75.4379 51.1958 75.2427 51.1774 75.1451C51.1589 75.0475 51.1158 74.9685 51.0603 74.9081C50.9864 74.7919 50.8571 74.6896 50.6846 74.6013C50.5121 74.5084 50.2904 74.4619 50.0317 74.4619C49.773 74.4619 49.5574 74.5084 49.3849 74.6013C49.2125 74.6896 49.0831 74.7919 49.0031 74.9081ZM49.3973 75.2241C49.4157 75.1404 49.4589 75.0707 49.5266 75.0196C49.582 74.9685 49.6498 74.9266 49.736 74.8941C49.8223 74.8616 49.9208 74.843 50.0379 74.843C50.1549 74.8477 50.2596 74.8616 50.3458 74.8941C50.4259 74.9266 50.4937 74.9731 50.5429 75.0196C50.6107 75.0707 50.6538 75.1404 50.6784 75.2241C50.7031 75.3124 50.7092 75.4797 50.7092 75.7214C50.7092 75.9677 50.6969 76.1303 50.6784 76.2186C50.6538 76.3069 50.6107 76.3766 50.5429 76.4278C50.4937 76.4789 50.4259 76.5207 50.3458 76.5532C50.2596 76.5904 50.1549 76.609 50.0379 76.609C49.9208 76.609 49.8223 76.5904 49.736 76.5532C49.6498 76.5207 49.582 76.4789 49.5266 76.4278C49.4589 76.3766 49.4219 76.3023 49.3973 76.2186C49.3726 76.1303 49.3603 75.9677 49.3603 75.7214C49.3603 75.4797 49.3726 75.3124 49.3973 75.2241Z" fill="white"/>
<path d="M54.571 76.9668H56.6714V76.609H55.07V75.8793H56.4374V75.5447H55.07V74.8383H56.6714V74.4805H54.571V76.9668Z" fill="white"/>
<path d="M60.8906 76.609C60.5272 76.6044 60.2192 76.5254 59.9544 76.3627L59.6279 76.6462C59.979 76.8739 60.3979 76.9854 60.8844 76.9854C61.6359 76.9808 62.024 76.7391 62.0424 76.2651C62.0424 76.0885 61.9685 75.9351 61.8207 75.8004C61.6729 75.6656 61.445 75.5819 61.137 75.5494C60.983 75.5355 60.8598 75.5215 60.7674 75.5122C60.6073 75.489 60.4841 75.4472 60.4102 75.3914C60.3363 75.3356 60.2993 75.2706 60.2993 75.1962C60.3055 75.0754 60.3547 74.9871 60.4656 74.9267C60.5703 74.8709 60.6935 74.8384 60.8475 74.8384C61.1431 74.843 61.4142 74.9081 61.6606 75.0289L61.9377 74.7175C61.6359 74.5549 61.2787 74.4666 60.8721 74.4619C60.5334 74.4619 60.2685 74.5316 60.0837 74.6617C59.8928 74.7965 59.7942 74.9685 59.7942 75.1869C59.7942 75.3682 59.8681 75.5215 60.0221 75.647C60.17 75.7678 60.3855 75.8468 60.6689 75.884C60.829 75.9026 60.9707 75.9165 61.1062 75.9305C61.3957 75.9677 61.5374 76.0792 61.5374 76.2651C61.5312 76.4882 61.3156 76.6044 60.8906 76.609Z" fill="white"/>
<path d="M71.5221 76.9668V74.4805H71.0232V75.5447H69.7235V74.4805H69.2246V76.9668H69.7235V75.8793H71.0232V76.9668H71.5221Z" fill="white"/>
<path d="M77.0965 74.8383V74.4805H74.9961V76.9668H77.0965V76.609H75.495V75.8793H76.8624V75.5447H75.495V74.8383H77.0965Z" fill="white"/>
<path d="M81.9869 75.8656C82.4058 75.7448 82.6152 75.5171 82.6213 75.1778C82.6152 74.9501 82.5043 74.7735 82.2949 74.648C82.1224 74.5411 81.9007 74.4854 81.6235 74.4854H80.3362V76.9671H80.8351V75.9075H81.4695L82.1471 76.9671H82.7384L81.9869 75.8656ZM80.8412 75.5728V74.8199H81.6235C81.7837 74.8199 81.9068 74.8432 81.9869 74.8943C82.0916 74.9501 82.1471 75.0477 82.1532 75.1732C82.1532 75.28 82.1101 75.373 82.0177 75.4473C81.9253 75.5264 81.7837 75.5682 81.5989 75.5682H80.8412V75.5728Z" fill="white"/>
<path d="M88.0354 74.8383V74.4805H85.9351V76.9668H88.0354V76.609H86.434V75.8793H87.8014V75.5447H86.434V74.8383H88.0354Z" fill="white"/>
</svg>
