<svg width="76" height="77" viewBox="0 0 76 77" fill="none" xmlns="http://www.w3.org/2000/svg">
<path d="M54.6265 18.868L44.7426 26.48L48.5598 29.4198L58.4437 21.8078L54.6265 18.868Z" fill="white"/>
<path d="M34.6504 34.246L24.7665 41.8579L28.5837 44.7977L38.4677 37.1857L34.6504 34.246Z" fill="white"/>
<path d="M48.3453 14.0311L38.4614 21.6431L42.2787 24.5829L52.1626 16.9709L48.3453 14.0311Z" fill="white"/>
<path d="M28.3677 29.4159L18.4838 37.0278L22.301 39.9676L32.1849 32.3557L28.3677 29.4159Z" fill="white"/>
<path d="M22.3015 18.8649L18.4843 21.8047L28.3682 29.4166L32.1854 26.4768L22.3015 18.8649Z" fill="white"/>
<path d="M28.579 14.0304L24.7617 16.9702L34.6456 24.5822L38.4629 21.6424L28.579 14.0304Z" fill="white"/>
<path d="M48.5565 29.4157L44.7393 32.3555L54.6232 39.9674L58.4404 37.0276L48.5565 29.4157Z" fill="white"/>
<path d="M42.2789 34.2507L38.4617 37.1904L48.3456 44.8024L52.1628 41.8626L42.2789 34.2507Z" fill="white"/>
<path d="M52.1673 47.7428L48.351 44.7993L38.4671 52.4113L28.5832 44.7993L24.7668 47.7428L38.4671 58.2938L52.1673 47.7428Z" fill="white"/>
<path d="M18.4893 21.8062L14.673 18.8628L0.972778 29.4138L14.673 39.9649L18.4893 37.0258L8.60546 29.4138L18.4893 21.8062Z" fill="white"/>
<path d="M62.261 18.8628L58.4447 21.8062L68.3286 29.4138L58.4447 37.0258L62.261 39.9649L75.9613 29.4138L62.261 18.8628Z" fill="white"/>
<path d="M48.351 14.0287L52.1673 11.0896L38.4671 0.538574L24.7668 11.0896L28.5832 14.0287L38.4671 6.42114L48.351 14.0287Z" fill="white"/>
<path d="M6.99527 71.4522C7.58501 71.1072 7.98764 70.5876 8.21446 69.9237L8.23713 69.867L7.04064 69.6399L7.01795 69.6967C6.87619 70.1902 6.60401 70.5614 6.21273 70.8147C5.81012 71.0592 5.3281 71.1859 4.74402 71.1859C4.27336 71.1859 3.83673 71.0941 3.42277 70.9107C3.02016 70.7273 2.72529 70.4478 2.53816 70.0722C2.33969 69.701 2.24329 69.2512 2.24329 68.7534C2.24329 68.3603 2.32835 67.9804 2.4928 67.6135C2.65725 67.2511 2.94077 66.9585 3.33204 66.7401C3.73466 66.5305 4.24501 66.4213 4.83476 66.4213C5.35645 66.4213 5.78176 66.513 6.122 66.7139C6.46224 66.9061 6.72309 67.2161 6.90455 67.6441L6.92722 67.6878L8.10672 67.4782L8.08403 67.4214C7.85721 66.858 7.47161 66.4126 6.91589 66.0938C6.36016 65.7837 5.67401 65.6309 4.85744 65.6309C4.14861 65.6309 3.48514 65.7488 2.88406 65.9933C2.29431 66.2466 1.818 66.6134 1.50044 67.0851C1.18288 67.5568 1.01843 68.1245 1.01843 68.749C1.01843 69.3298 1.1602 69.8888 1.44373 70.3867C1.72726 70.8976 2.15255 71.295 2.70827 71.5614C3.25265 71.8366 3.97283 71.9719 4.84611 71.9719C5.68536 71.9807 6.40552 71.7973 6.99527 71.4522Z" fill="white"/>
<path d="M19.2039 70.4784C19.5328 69.9936 19.7029 69.4302 19.7029 68.8145C19.7029 68.2031 19.5385 67.6572 19.2323 67.1768C18.9147 66.6964 18.4497 66.3121 17.8486 66.037C17.2475 65.7618 16.5614 65.6265 15.8129 65.6265C14.6674 65.6265 13.7204 65.9191 13.0003 66.4912C12.2801 67.0632 11.9115 67.8755 11.9115 68.8843C11.9115 69.4215 12.0646 69.9325 12.3822 70.4128C12.6884 70.8932 13.1477 71.2775 13.7545 71.5614C14.3555 71.8453 15.0417 71.9807 15.8015 71.9807C16.5104 71.9807 17.1739 71.854 17.7749 71.5963C18.393 71.3518 18.8637 70.9675 19.2039 70.4784ZM15.8015 71.1858C15.0473 71.1858 14.4066 70.9762 13.8962 70.5745C13.3972 70.1639 13.142 69.6006 13.142 68.8887C13.142 68.0065 13.4142 67.3602 13.9359 66.9846C14.4576 66.6134 15.0927 66.4213 15.8129 66.4213C16.3346 66.4213 16.7939 66.5217 17.2079 66.7139C17.6105 66.906 17.928 67.1855 18.1435 67.5436C18.359 67.8974 18.4611 68.3254 18.4611 68.8101C18.4611 69.5656 18.2116 70.1596 17.7182 70.5657C17.2192 70.9762 16.5727 71.1858 15.8015 71.1858Z" fill="white"/>
<path d="M31.6052 65.8359H30.4603V71.9805H31.6052V65.8359Z" fill="white"/>
<path d="M28.2371 71.9805L30.0347 68.0763V65.8927L28.1294 70.0721C27.9763 70.4084 27.8572 70.6748 27.7721 70.8844L27.4546 70.1551L25.5492 65.8403H25.4188V68.0719L27.1824 71.9849H28.2371V71.9805Z" fill="white"/>
<path d="M24.9988 65.8359H23.8425V71.9805H24.9988V65.8359Z" fill="white"/>
<path d="M41.308 68.9759C41.756 68.6134 41.9828 68.1636 41.9828 67.6395C41.9828 67.3295 41.8977 67.05 41.7333 66.7923C41.5575 66.539 41.342 66.3294 41.0585 66.1897C40.7863 66.0455 40.446 65.9451 40.0548 65.8971C39.7712 65.8534 39.3573 65.8315 38.8242 65.8315H37.3612V66.6526H38.9093C39.3799 66.6526 39.7032 66.67 39.879 66.7093C40.1398 66.7617 40.3496 66.8753 40.5027 67.0456C40.6672 67.2203 40.7409 67.4168 40.7409 67.6658C40.7409 67.9933 40.6105 68.2466 40.3383 68.43C40.0661 68.6134 39.5954 68.7051 38.932 68.7051H37.3612V69.5349H38.9206C40.0548 69.5305 40.8713 69.3384 41.308 68.9759Z" fill="white"/>
<path d="M36.9411 65.8359H35.7452V71.9805H36.9411V65.8359Z" fill="white"/>
<path d="M50.4717 65.8359H49.2412L46.1223 71.9805H47.3869L47.7441 71.2599H47.7328L48.6287 69.3952L48.8159 69.0109L49.4793 67.6527H49.4907C49.6324 67.3514 49.7515 67.0413 49.8479 66.7443C49.967 67.0369 50.1314 67.3906 50.3299 67.7924L51.1351 69.3952H49.088L48.7194 70.1507H51.5094L52.445 71.9805H53.806L50.4717 65.8359Z" fill="white"/>
<path d="M63.072 70.4214V71.9805H64.2566V65.8359H63.0947V70.4476L63.072 70.4214Z" fill="white"/>
<path d="M58.9375 65.8359H57.8267V71.9805H58.9375V65.8359Z" fill="white"/>
<path d="M62.6463 69.9406L59.363 66.2329V67.8007L62.6463 71.5128V69.9406Z" fill="white"/>
<path d="M74.5834 65.8359L73.0126 67.6396C72.7064 67.9933 72.4342 68.3296 72.196 68.6222V68.6134L71.5326 69.3864V71.9805H72.7404V69.3864L75.9897 65.8359H74.5834Z" fill="white"/>
<path d="M71.4531 67.6832L69.8597 65.8359H68.391L71.2774 69.0938L71.9522 68.2903L71.4531 67.6832Z" fill="white"/>
<path d="M2.24852 76.9719V75.0416H3.03675V74.7446H1.01233V75.0416H1.80621V76.9719H2.24852Z" fill="white"/>
<path d="M6.60369 74.7446H6.23509L5.18604 76.9719H5.65101L5.87784 76.4697H6.97228L7.19343 76.9719H7.65842L6.60369 74.7446ZM5.99693 76.1727L6.41655 75.1988H6.42223L6.83617 76.1727H5.99693Z" fill="white"/>
<path d="M10.8114 75.2258C10.8568 75.1778 10.9192 75.1429 10.9929 75.1123C11.0666 75.0817 11.1573 75.0686 11.2594 75.0643C11.4012 75.0643 11.5203 75.0992 11.6167 75.156C11.7131 75.2171 11.7754 75.2957 11.8095 75.383H12.2745C12.2291 75.1953 12.1157 75.0381 11.9399 74.9158C11.7641 74.7891 11.5373 74.728 11.2594 74.7236C11.0326 74.7236 10.8398 74.7673 10.6924 74.8503C10.5392 74.9289 10.4258 75.0206 10.3578 75.1254C10.3124 75.1778 10.2841 75.252 10.2614 75.3394C10.2444 75.4267 10.233 75.6014 10.233 75.8591C10.233 76.1124 10.2444 76.2871 10.2614 76.3744C10.2727 76.4224 10.2841 76.4618 10.3011 76.4923C10.3181 76.5229 10.3351 76.5534 10.3578 76.5884C10.4258 76.6932 10.5392 76.7805 10.6924 76.8591C10.8455 76.9421 11.0326 76.9814 11.2594 76.9858C11.5543 76.9814 11.7981 76.9028 11.9909 76.7543C12.1837 76.6015 12.2858 76.4181 12.2858 76.1954V75.7412H11.2594V76.06H11.8492V76.1779C11.8492 76.3176 11.7868 76.4312 11.679 76.5142C11.5656 76.6059 11.4295 76.6495 11.2537 76.6495C11.1517 76.6495 11.0609 76.6321 10.9872 76.5971C10.9135 76.5666 10.8511 76.5316 10.8058 76.4836C10.749 76.4355 10.7094 76.3744 10.6924 76.2958C10.6697 76.2172 10.6583 76.0687 10.6583 75.8503C10.6583 75.632 10.6697 75.4835 10.6924 75.4005C10.7207 75.335 10.7547 75.2739 10.8114 75.2258Z" fill="white"/>
<path d="M15.2458 74.7446V76.9719H17.0878V76.6531H15.6823V74.7446H15.2458Z" fill="white"/>
<path d="M20.3774 74.7446H19.9412V76.9719H20.3774V74.7446Z" fill="white"/>
<path d="M23.8651 75.3866H23.8764L25.1807 76.9719H25.5947V74.7446H25.158V76.3255H25.1523L23.8424 74.7446H23.4285V76.9719H23.8651V75.3866Z" fill="white"/>
<path d="M30.4933 75.0634V74.7446H28.6456V76.9719H30.4933V76.6531H29.0821V75.998H30.2836V75.6967H29.0821V75.0634H30.4933Z" fill="white"/>
<path d="M36.7264 76.4918C36.7434 76.5224 36.7604 76.5529 36.7831 76.5879C36.8512 76.6927 36.9646 76.78 37.1177 76.8586C37.2708 76.9416 37.4579 76.9809 37.6848 76.9853C37.9796 76.9809 38.2235 76.9023 38.4163 76.7538C38.6091 76.601 38.7112 76.4175 38.7112 76.1948V75.7406H37.6848V76.0594H38.2745V76.1773C38.2688 76.3171 38.2121 76.4306 38.1044 76.5136C37.991 76.6053 37.8549 76.649 37.6791 76.649C37.577 76.649 37.4863 76.6315 37.4126 76.5966C37.3388 76.566 37.2765 76.5311 37.2311 76.483C37.1744 76.435 37.1347 76.3739 37.1177 76.2953C37.095 76.2167 37.0837 76.0682 37.0837 75.8498C37.0837 75.6314 37.095 75.483 37.1177 75.4C37.1347 75.3258 37.1744 75.2646 37.2311 75.2166C37.2765 75.1685 37.3388 75.1336 37.4126 75.103C37.4863 75.0725 37.577 75.0593 37.6791 75.055C37.8209 75.055 37.9399 75.0899 38.0363 75.1467C38.1327 75.2078 38.1951 75.2865 38.2291 75.3738H38.6941C38.6488 75.186 38.5354 75.0288 38.3596 74.9065C38.1838 74.7799 37.957 74.7187 37.6791 74.7144C37.4523 74.7144 37.2595 74.758 37.112 74.841C36.9589 74.9196 36.8455 75.0113 36.7774 75.1161C36.7321 75.1685 36.7037 75.2428 36.6811 75.3301C36.664 75.4175 36.6527 75.5921 36.6527 75.8498C36.6527 76.1031 36.664 76.2778 36.6811 76.3651C36.6981 76.4219 36.7094 76.4612 36.7264 76.4918Z" fill="white"/>
<path d="M41.6426 76.4923C41.6596 76.5229 41.6767 76.5534 41.6994 76.5884C41.7674 76.6932 41.8808 76.7805 42.0396 76.8591C42.1927 76.9421 42.3798 76.9814 42.6066 76.9858C42.8391 76.9814 43.0263 76.9378 43.1794 76.8591C43.3325 76.7805 43.4402 76.6888 43.5083 76.5884C43.5593 76.536 43.5933 76.4617 43.6104 76.3744C43.6274 76.2827 43.6387 76.1124 43.6387 75.8591C43.6387 75.6014 43.6274 75.4267 43.6104 75.3394C43.5933 75.252 43.5593 75.1822 43.5083 75.1254C43.4402 75.0206 43.3325 74.9289 43.1794 74.8503C43.0263 74.7673 42.8335 74.728 42.6066 74.7236C42.3798 74.7236 42.187 74.7673 42.0396 74.8503C41.8865 74.9289 41.7731 75.0206 41.6994 75.1254C41.654 75.1778 41.6256 75.252 41.6029 75.3394C41.5802 75.4267 41.5746 75.6014 41.5746 75.8591C41.5746 76.1124 41.5859 76.2871 41.6029 76.3744C41.6143 76.4224 41.6256 76.4618 41.6426 76.4923ZM42.0453 75.4093C42.0623 75.335 42.102 75.2739 42.1587 75.2258C42.204 75.1778 42.2664 75.1429 42.3401 75.1123C42.4138 75.0817 42.5046 75.0686 42.6066 75.0643C42.7087 75.0643 42.7994 75.0817 42.8788 75.1123C42.9525 75.1429 43.0092 75.1822 43.0546 75.2258C43.1113 75.2739 43.151 75.335 43.1737 75.4093C43.1964 75.4879 43.2021 75.6364 43.2021 75.8591C43.2021 76.0774 43.1907 76.2259 43.1737 76.3045C43.151 76.3831 43.1113 76.4443 43.0546 76.4923C43.0092 76.536 42.9525 76.5753 42.8788 76.6059C42.7994 76.6408 42.7087 76.6583 42.6066 76.6583C42.5046 76.6583 42.4138 76.6408 42.3401 76.6059C42.2664 76.5753 42.204 76.5404 42.1587 76.4923C42.102 76.4443 42.0623 76.3831 42.0453 76.3045C42.0226 76.2259 42.0112 76.0774 42.0112 75.8591C42.0169 75.6364 42.0226 75.4879 42.0453 75.4093Z" fill="white"/>
<path d="M48.435 75.0634V74.7446H46.5874V76.9719H48.435V76.6531H47.0295V75.998H48.231V75.6967H47.0295V75.0634H48.435Z" fill="white"/>
<path d="M52.1448 76.654C51.8272 76.654 51.555 76.5797 51.3225 76.4312L51.0333 76.6845C51.3395 76.8898 51.7081 76.9902 52.1391 76.9902C52.8026 76.9859 53.1428 76.7675 53.1541 76.3439C53.1541 76.1867 53.0918 76.0469 52.9614 75.929C52.8309 75.8067 52.6325 75.7325 52.3603 75.7063C52.2242 75.6932 52.1164 75.6801 52.037 75.6713C51.8953 75.6495 51.7932 75.6146 51.7252 75.5622C51.6628 75.5098 51.6287 75.453 51.6287 75.3875C51.6287 75.2783 51.6798 75.1997 51.7762 75.1473C51.8669 75.0949 51.9803 75.0687 52.1108 75.0687C52.3716 75.073 52.6098 75.1298 52.8253 75.239L53.0691 74.9595C52.8026 74.811 52.4907 74.7368 52.1278 74.728C51.8272 74.728 51.6004 74.7892 51.436 74.9071C51.2658 75.025 51.1864 75.1822 51.1864 75.3788C51.1864 75.5403 51.2545 75.6801 51.3849 75.7893C51.5153 75.8984 51.7025 75.9683 51.952 76.0033C52.0937 76.0164 52.2185 76.0338 52.3376 76.0425C52.5927 76.0775 52.7175 76.1779 52.7118 76.3439C52.7118 76.5448 52.519 76.6496 52.1448 76.654Z" fill="white"/>
<path d="M61.4898 76.9719V74.7446H61.0532V75.6967H59.9077V74.7446H59.4711V76.9719H59.9077V75.998H61.0532V76.9719H61.4898Z" fill="white"/>
<path d="M66.3881 75.0634V74.7446H64.5404V76.9719H66.3881V76.6531H64.9768V75.998H66.1784V75.6967H64.9768V75.0634H66.3881Z" fill="white"/>
<path d="M71.2434 75.3652C71.2377 75.16 71.1413 75.0027 70.9541 74.8892C70.801 74.7931 70.6082 74.7407 70.3644 74.7407H69.236V76.968H69.6726V76.0159H70.234L70.8294 76.968H71.3511L70.682 75.981C71.0562 75.8718 71.2377 75.6666 71.2434 75.3652ZM70.7103 75.6098C70.6309 75.6797 70.5062 75.719 70.3417 75.719H69.6783V75.0421H70.3644C70.5062 75.0421 70.6139 75.0639 70.6876 75.1119C70.784 75.1643 70.8294 75.2473 70.835 75.3652C70.8294 75.4613 70.7897 75.5443 70.7103 75.6098Z" fill="white"/>
<path d="M76.0001 75.0634V74.7446H74.1581V76.9719H76.0001V76.6531H74.5945V75.998H75.796V75.6967H74.5945V75.0634H76.0001Z" fill="white"/>
</svg>
