<svg width="99" height="80" viewBox="0 0 99 80" fill="none" xmlns="http://www.w3.org/2000/svg">
<path d="M11.52 76.7957H12.2637V79.5478H12.7552V76.7957H13.4924V76.3413H11.52V76.7957Z" fill="white"/>
<path d="M17.6831 79.548H18.2069L18.5691 78.7671H19.953L20.2957 79.548H20.8325L19.2869 76.1431L17.6831 79.548ZM18.7695 78.3127L19.2739 77.2247L19.7525 78.3127H18.7695Z" fill="white"/>
<path d="M26.9241 76.7382C27.3056 76.7382 27.629 76.911 27.8941 77.263L28.2433 76.9302C28.0428 76.6998 27.8359 76.5334 27.6225 76.431C27.4026 76.3286 27.1698 76.2773 26.9111 76.2773C26.439 76.2773 26.0381 76.4374 25.7083 76.7638C25.3785 77.0902 25.2168 77.4806 25.2168 77.9478C25.2168 78.4022 25.3785 78.7926 25.7018 79.119C26.0252 79.4454 26.4132 79.6054 26.8658 79.6054C27.3315 79.6054 27.713 79.439 28.0105 79.0998C28.1463 78.9526 28.2368 78.7926 28.295 78.6198C28.3532 78.4342 28.3791 78.223 28.3791 77.9798V77.871H27.0405V78.3254H27.8488C27.8294 78.5494 27.7195 78.7478 27.5255 78.9078C27.3315 79.0678 27.1181 79.151 26.8788 79.151C26.5942 79.151 26.3356 79.0422 26.0899 78.831C25.8312 78.6006 25.7018 78.3062 25.7018 77.9478C25.7018 77.6022 25.8182 77.3142 26.0511 77.0838C26.2903 76.8534 26.5813 76.7382 26.9241 76.7382Z" fill="white"/>
<path d="M33.9731 76.3413V79.5478H35.4145V79.0934H34.4643V76.3413H33.9731Z" fill="white"/>
<path d="M40.666 76.3413H40.1748V79.5478H40.666V76.3413Z" fill="white"/>
<path d="M48.5882 79.7396V76.3411H48.0967V78.5684L45.7363 76.1235V79.5476H46.2278V77.3012L48.5882 79.7396Z" fill="white"/>
<path d="M55.4486 76.7957V76.3413H53.6582V79.5478H55.4486V79.0934H54.1494V78.0181H55.4098V77.5637H54.1494V76.7957H55.4486Z" fill="white"/>
<path d="M66.5271 79.5478V76.3413H66.0421V77.5958H64.6453V76.3413H64.1538V79.5478H64.6453V78.0502H66.0421V79.5478H66.5271Z" fill="white"/>
<path d="M73.3877 76.7957V76.3413H71.6038V79.5478H73.3877V79.0934H72.0885V78.0181H73.3489V77.5637H72.0885V76.7957H73.3877Z" fill="white"/>
<path d="M80.1404 77.2821C80.1404 76.9941 80.037 76.7573 79.8236 76.5781C79.636 76.4181 79.3256 76.3413 78.8988 76.3413H78.3232V79.5478H78.8147V78.2358H78.9053L79.83 79.5478H80.425L79.4226 78.1846C79.636 78.1398 79.8106 78.0374 79.94 77.871C80.0758 77.7046 80.1404 77.5061 80.1404 77.2821ZM78.9699 77.8134H78.8147V76.7957H78.9894C79.442 76.7957 79.6619 76.9621 79.6619 77.2885C79.6684 77.6405 79.4355 77.8134 78.9699 77.8134Z" fill="white"/>
<path d="M85.2102 79.5478H86.9941V79.0934H85.695V78.0181H86.9554V77.5637H85.695V76.7957H86.9941V76.3413H85.2102V79.5478Z" fill="white"/>
<path d="M7.75624 70.5873C7.59457 70.7985 7.40703 70.9841 7.19362 71.1505C6.98022 71.3105 6.72802 71.4385 6.43701 71.5345C6.146 71.6305 5.82913 71.6817 5.47992 71.6817C5.02077 71.6817 4.60042 71.5921 4.22534 71.4129C3.85026 71.2337 3.52692 70.9841 3.25531 70.6577C2.9837 70.3313 2.77026 69.9601 2.62153 69.5313C2.47279 69.1024 2.40167 68.6352 2.40167 68.1232C2.40167 67.5408 2.47278 67.016 2.61505 66.5424C2.75732 66.0688 2.95135 65.6847 3.19709 65.3775C3.45576 65.0639 3.76617 64.8207 4.12185 64.6607C4.47753 64.5007 4.86557 64.4175 5.27945 64.4175C5.64159 64.4175 5.96494 64.4879 6.24948 64.6351C6.53403 64.7823 6.77326 64.9807 6.98021 65.2367C7.16128 65.4607 7.32298 65.7359 7.45879 66.0624C7.59459 66.3888 7.69805 66.6896 7.76919 66.9712H8.293L8.23478 64.1103H7.72391L7.45879 64.4943C7.12898 64.3151 6.7862 64.1807 6.41759 64.0847C6.05544 63.9887 5.64803 63.9375 5.20181 63.9375C4.60039 63.9375 4.03134 64.0399 3.50105 64.2447C2.97077 64.4495 2.51161 64.7375 2.1236 65.1087C1.72912 65.4863 1.42514 65.9344 1.1988 66.4592C0.978926 66.984 0.862549 67.56 0.862549 68.2064C0.862549 68.8464 0.972465 69.4225 1.20527 69.9345C1.43161 70.4465 1.73558 70.8753 2.11713 71.2337C2.49867 71.5857 2.94488 71.8609 3.44283 72.0465C3.94078 72.2321 4.45812 72.3281 5.00134 72.3281C5.84203 72.3281 6.55988 72.1553 7.16777 71.8161C7.77566 71.4769 8.26068 70.9073 8.62929 70.1137L8.15071 69.9089C8.05371 70.1457 7.91791 70.3761 7.75624 70.5873Z" fill="white"/>
<path d="M22.9861 69.8579C23.2189 69.3395 23.3353 68.7571 23.3353 68.1235C23.3353 67.4898 23.2189 66.9138 22.9925 66.389C22.7662 65.8642 22.4493 65.4226 22.0484 65.0514C21.6604 64.6866 21.1948 64.4114 20.6645 64.2066C20.1277 64.0082 19.5586 63.9058 18.9572 63.9058C18.3752 63.9058 17.819 64.0018 17.2887 64.2002C16.7584 64.3986 16.2864 64.6802 15.8854 65.045C15.478 65.4162 15.1611 65.8578 14.9283 66.3698C14.6955 66.8818 14.5791 67.4643 14.5791 68.1107C14.5791 68.7059 14.689 69.2627 14.9089 69.7875C15.1288 70.3123 15.4328 70.7539 15.8143 71.1187C16.2023 71.4899 16.6615 71.7844 17.1982 71.9892C17.735 72.2004 18.317 72.3028 18.9507 72.3028C19.5457 72.3028 20.1083 72.2068 20.6321 72.0084C21.156 71.81 21.6216 71.5348 22.016 71.1699C22.4299 70.8179 22.7533 70.3763 22.9861 69.8579ZM21.6151 69.5763C21.5051 70.0115 21.3305 70.3955 21.0913 70.7411C20.8585 71.0803 20.561 71.3428 20.1924 71.5348C19.8238 71.7204 19.4099 71.8164 18.9572 71.8164C18.4722 71.8164 18.0518 71.7204 17.7026 71.5348C17.3534 71.3492 17.0624 71.0867 16.8296 70.7603C16.5903 70.4211 16.4157 70.0307 16.3058 69.5955C16.1959 69.1603 16.1376 68.6675 16.1376 68.1235C16.1376 67.6307 16.1894 67.1634 16.2928 66.7218C16.3963 66.2802 16.558 65.8898 16.7714 65.557C16.9977 65.2114 17.2887 64.9362 17.6509 64.725C18.013 64.5202 18.4463 64.4114 18.9572 64.4114C19.4164 64.4114 19.8238 64.501 20.173 64.6802C20.5287 64.8594 20.8261 65.109 21.0589 65.429C21.2918 65.7554 21.4728 66.1458 21.5957 66.6066C21.7186 67.0674 21.7768 67.5731 21.7768 68.1235C21.7768 68.6611 21.725 69.1411 21.6151 69.5763Z" fill="white"/>
<path d="M30.8109 70.9649C30.7527 71.1825 30.6557 71.3425 30.5005 71.4513C30.3841 71.5345 30.2224 71.5985 30.009 71.6369C29.7956 71.6753 29.5951 71.7073 29.4011 71.7201V72.1233H33.0743V71.7201C32.9838 71.7137 32.7898 71.6817 32.4988 71.6049C32.2013 71.5345 32.0073 71.4577 31.9167 71.3809C31.7809 71.2785 31.6775 71.0993 31.6128 70.8625C31.5481 70.6193 31.5158 70.2673 31.5158 69.8065V65.0192H31.5998L34.5552 71.9954H34.8786L37.9827 65.1664H38.0797V70.9969C38.0797 71.1377 38.0473 71.2529 37.9891 71.3425C37.9245 71.4321 37.8275 71.5153 37.6981 71.5857C37.614 71.6241 37.4524 71.6561 37.226 71.6817C36.9997 71.7073 36.8122 71.7201 36.6634 71.7201V72.1233H40.6859V71.7201C40.5695 71.7137 40.4142 71.7009 40.2202 71.6689C40.0262 71.6369 39.8839 71.6049 39.8128 71.5665C39.6705 71.4961 39.567 71.4193 39.5153 71.3297C39.4636 71.2401 39.4377 71.1313 39.4377 70.9969V65.2176C39.4377 65.096 39.4636 64.9808 39.5153 64.872C39.567 64.7696 39.6641 64.6928 39.8128 64.648C39.8969 64.6224 40.0327 64.5904 40.2202 64.5648C40.4078 64.5328 40.5565 64.52 40.6794 64.5136V64.1104H37.7111C37.7046 64.1808 37.6787 64.3152 37.6205 64.5136C37.5623 64.7184 37.4912 64.9104 37.4136 65.096L35.189 70.1329L32.5828 64.1167H29.4787V64.52C29.6663 64.5264 29.8603 64.5584 30.0478 64.6032C30.2354 64.648 30.4035 64.7248 30.5328 64.8272C30.6557 64.9232 30.7462 65.0448 30.8109 65.192C30.8756 65.3456 30.9079 65.5376 30.9079 65.7744V69.8769C30.8949 70.3825 30.8691 70.7473 30.8109 70.9649Z" fill="white"/>
<path d="M53.8521 67.1952C54.0396 66.8752 54.1301 66.504 54.1301 66.088C54.1301 65.4864 53.865 65.0128 53.3347 64.648C52.8044 64.2896 52.1189 64.1104 51.2718 64.1104H47.1135V64.5136C47.2299 64.52 47.3657 64.5328 47.5274 64.5584C47.6891 64.5776 47.8508 64.616 48.0124 64.6608C48.1676 64.712 48.2711 64.7952 48.3164 64.8976C48.3617 65 48.3811 65.1216 48.3811 65.256V71.0417C48.3811 71.1889 48.3552 71.3105 48.297 71.4065C48.2388 71.5025 48.1482 71.5729 48.0189 71.6241C47.9413 71.6561 47.8055 71.6817 47.6115 71.6945C47.4175 71.7137 47.2687 71.7265 47.1653 71.7329V72.1362H51.0713V71.7329C50.9096 71.7265 50.7285 71.7137 50.5345 71.6945C50.3405 71.6689 50.2047 71.6497 50.1271 71.6241C49.9719 71.5729 49.8684 71.4961 49.8232 71.3937C49.7714 71.2913 49.752 71.1761 49.752 71.0481V68.6161H50.7738C51.2071 68.6161 51.621 68.5649 52.009 68.4689C52.397 68.3729 52.7527 68.2193 53.0825 68.008C53.4123 67.784 53.671 67.5152 53.8521 67.1952ZM52.4746 66.888C52.4293 67.08 52.3323 67.272 52.1836 67.4512C52.0413 67.6368 51.8214 67.7968 51.5304 67.9248C51.2394 68.0528 50.8643 68.1168 50.4052 68.1168H49.752V64.5712H50.6574C51.0196 64.5712 51.3235 64.6224 51.5692 64.7184C51.815 64.8144 52.009 64.9552 52.1577 65.128C52.3 65.2944 52.397 65.4864 52.4552 65.7104C52.5134 65.9344 52.5393 66.152 52.5393 66.3632C52.5393 66.5232 52.5199 66.696 52.4746 66.888Z" fill="white"/>
<path d="M68.92 71.7202C68.81 71.7138 68.6807 71.6946 68.5255 71.6626C68.3703 71.6242 68.2409 71.5794 68.1375 71.5282C67.9952 71.4386 67.8788 71.3554 67.7947 71.2657C67.7107 71.1761 67.6395 71.0545 67.5748 70.9073L64.5419 63.9888H64.031C63.5977 64.968 63.1062 66.088 62.5565 67.3424C62.0068 68.5969 61.5024 69.7297 61.0433 70.7345C60.9528 70.9329 60.8622 71.0866 60.7652 71.1954C60.6682 71.3042 60.5389 71.413 60.3643 71.5154C60.2543 71.573 60.1185 71.6242 59.9569 71.6626C59.7887 71.701 59.6529 71.7202 59.543 71.7266V72.1298H62.9704V71.7266C62.6341 71.7138 62.3302 71.6626 62.0586 71.5793C61.787 71.4961 61.6512 71.381 61.6512 71.2273C61.6512 71.1633 61.6641 71.0801 61.6835 70.9777C61.7029 70.8753 61.7417 70.7473 61.7999 70.5809C61.8581 70.4145 61.9292 70.2353 62.0004 70.0369C62.078 69.8385 62.175 69.6081 62.2914 69.3457H65.486L66.2427 71.1441C66.2621 71.1825 66.275 71.2274 66.2815 71.2722C66.2879 71.3234 66.2944 71.3618 66.2944 71.3938C66.2944 71.477 66.1845 71.5474 65.9646 71.605C65.7447 71.6626 65.4667 71.701 65.1368 71.7202V72.1234H68.92V71.7202ZM62.5242 68.8465L63.8823 65.736L65.2597 68.8465H62.5242Z" fill="white"/>
<path d="M82.3712 72.2002V66.3313C82.3712 65.9217 82.3971 65.5825 82.4488 65.3136C82.5006 65.0448 82.6041 64.8656 82.7593 64.7696C82.8692 64.712 83.0438 64.648 83.2895 64.5968C83.5353 64.5392 83.7228 64.5072 83.8392 64.5072V64.104H80.1402V64.5072C80.2824 64.5136 80.4894 64.552 80.761 64.6224C81.0326 64.6928 81.2266 64.7568 81.3495 64.8336C81.4788 64.9168 81.5758 65.0832 81.6469 65.3328C81.7181 65.5824 81.7504 65.9409 81.7504 66.4081V70.2226L76.6351 64.1104H74.0354V64.5136C74.1971 64.52 74.4105 64.5712 74.6757 64.6608C74.9408 64.7504 75.1477 64.8528 75.3029 64.9808C75.4193 65.0768 75.5099 65.2112 75.581 65.384C75.6521 65.5568 75.6845 65.7296 75.6845 65.9024V69.8514C75.6845 70.3762 75.6586 70.7474 75.6004 70.965C75.5422 71.1826 75.4452 71.3426 75.29 71.445C75.2188 71.4962 75.0507 71.5602 74.7791 71.6242C74.5075 71.6882 74.3135 71.7266 74.1971 71.733V72.1362H77.9285V71.733C77.8315 71.7266 77.6245 71.6946 77.3206 71.6178C77.0102 71.5474 76.8097 71.4706 76.7127 71.3874C76.5769 71.285 76.4734 71.1058 76.4088 70.8562C76.3441 70.6066 76.3118 70.2546 76.3118 69.7873V65.6529L81.828 72.213H82.3712V72.2002Z" fill="white"/>
<path d="M94.4772 64.104V64.5072C94.6001 64.52 94.7359 64.5264 94.8846 64.5392C95.0269 64.5456 95.1626 64.5712 95.292 64.5968C95.4084 64.6288 95.5054 64.6672 95.583 64.7184C95.6541 64.7696 95.693 64.84 95.693 64.9296C95.693 65.032 95.5184 65.352 95.1627 65.8897C94.807 66.4209 94.2961 67.1633 93.63 68.1169C93.2938 67.5793 93.0221 67.1505 92.8087 66.8177C92.6018 66.4849 92.3948 66.1521 92.1944 65.8129C92.1232 65.6977 92.0521 65.576 91.9745 65.448C91.8969 65.32 91.8322 65.2112 91.774 65.1088C91.7288 65.0192 91.6899 64.9488 91.6641 64.8976C91.6382 64.84 91.6253 64.8016 91.6253 64.7824C91.6253 64.6992 91.7158 64.6352 91.8969 64.5904C92.0779 64.5456 92.3819 64.52 92.8217 64.5136V64.1104H88.9351V64.5136C89.0515 64.52 89.1808 64.5392 89.3231 64.5712C89.4653 64.6032 89.5882 64.6416 89.6917 64.6992C89.8339 64.7824 89.9568 64.8784 90.0668 64.9872C90.1767 65.096 90.2995 65.256 90.4418 65.4736C90.6746 65.8385 90.9462 66.2673 91.2567 66.7793C91.5671 67.2849 91.8516 67.7585 92.1103 68.2001C92.2267 68.3985 92.3237 68.5713 92.4078 68.7313C92.4918 68.8913 92.5306 69.0001 92.5306 69.0641V71.0162C92.5306 71.157 92.5048 71.2786 92.4466 71.381C92.3884 71.477 92.2849 71.5538 92.1297 71.6114C92.0327 71.6434 91.871 71.6754 91.6317 71.6946C91.3925 71.7138 91.2114 71.7266 91.095 71.7394V72.1426H95.3567V71.7394C95.2144 71.733 95.0269 71.7138 94.8005 71.669C94.5677 71.6242 94.406 71.5858 94.322 71.5602C94.1732 71.5026 94.0633 71.4194 94.0051 71.317C93.9404 71.2146 93.9146 71.0994 93.9146 70.965V69.4353C93.9146 69.1537 93.9404 68.9425 93.9922 68.7953C94.0439 68.6481 94.1474 68.4561 94.309 68.2129C94.7294 67.5601 95.0851 67.0161 95.3696 66.5937C95.6542 66.1649 95.9581 65.7489 96.2944 65.3328C96.4625 65.128 96.5789 65 96.6436 64.9488C96.7018 64.8976 96.8182 64.8272 96.9863 64.7376C97.0575 64.6928 97.1674 64.648 97.3291 64.5968C97.4843 64.552 97.6007 64.5264 97.6783 64.52V64.1168H94.4772V64.104Z" fill="white"/>
<path d="M98.2866 17.53H68.5907H68.2479L83.2705 0.774414H50.0436H45.3681H15.2453L30.2679 17.53H0.235596L16.8685 36.0905L34.245 55.4766L49.2676 38.7209L64.2902 55.4766L80.6385 37.2361L80.6579 37.2169L98.2866 17.53ZM45.3357 4.28169L34.2321 16.666L23.1284 4.28169H45.3357ZM90.3971 21.0373L79.2934 33.4216L68.1962 21.0373H90.3971ZM34.2385 21.9525L45.284 34.2856H23.1866L34.2385 21.9525ZM38.1639 21.0373H60.3583L49.2611 33.4216L38.1639 21.0373ZM64.2773 21.9525L75.3227 34.2792H53.2253L64.2773 21.9525ZM38.2092 17.53L49.2547 5.20331L60.3001 17.53H38.2092ZM64.2773 16.666L53.1736 4.28169H75.3744L64.2773 16.666ZM30.3131 21.0373L19.216 33.4216L8.11874 21.0373H30.3131ZM45.3357 37.7993L34.2321 50.1836L23.1284 37.7993H45.3357ZM75.3744 37.7993L64.2708 50.1836L53.1671 37.7993H75.3744Z" fill="white"/>
</svg>
